{"glyphs":{"0":{"ha":739,"x_min":-78,"x_max":817,"o":"m 369 785 q 541 749 460 785 q 683 653 622 714 q 781 511 744 593 q 817 336 817 429 q 782 163 817 244 q 687 22 747 82 q 544 -74 626 -39 q 369 -110 463 -110 q 196 -76 278 -110 q 53 16 114 -43 q -42 157 -7 75 q -78 336 -78 239 q -44 508 -78 428 q 49 649 -10 589 q 190 746 108 710 q 365 785 271 782 l 369 785 z "},"1":{"ha":393,"x_min":-96,"x_max":456,"o":"m 456 92 q 440 13 456 50 q 397 -51 424 -24 q 333 -95 369 -79 q 254 -111 296 -111 q 165 -95 206 -111 q 96 -51 125 -79 q 51 13 67 -24 q 35 92 35 50 l 32 318 q -69 407 -31 344 q -92 486 -89 446 q -86 563 -96 526 q -53 629 -76 599 q 4 681 -31 660 q 246 792 176 792 q 327 775 289 792 q 394 730 365 758 q 439 663 422 701 q 456 582 456 625 l 456 92 z "},"2":{"ha":671,"x_min":-74,"x_max":744,"o":"m 46 282 q -38 358 -6 308 q -71 468 -71 408 q -32 598 -71 539 q 65 699 7 657 q 192 766 124 742 q 322 790 261 790 q 478 766 403 790 q 609 697 553 742 q 699 585 665 651 q 733 436 733 519 q 667 254 733 329 q 722 185 700 226 q 744 94 744 143 q 728 15 744 53 q 683 -51 711 -22 q 619 -95 656 -79 q 540 -111 582 -111 l 131 -111 q 51 -91 88 -108 q -14 -47 14 -74 q -58 17 -42 -19 q -74 94 -74 53 q -47 185 -74 136 q 46 282 -19 233 z "},"3":{"ha":681,"x_min":-72,"x_max":756,"o":"m 725 583 q 704 500 725 543 q 625 397 683 457 l 626 397 q 721 264 686 340 q 756 99 756 188 q 722 -66 756 11 q 632 -200 689 -143 q 497 -290 575 -257 q 332 -324 419 -324 q 182 -293 254 -324 q 53 -214 110 -262 q -37 -106 -3 -165 q -72 13 -72 -46 q -33 121 -72 71 q 97 200 7 171 q 62 300 67 247 q 81 399 57 353 q -6 474 28 424 q -40 588 -40 525 q -25 669 -40 631 q 17 734 -10 707 q 82 777 44 761 q 164 793 119 793 l 504 793 q 590 776 550 792 q 659 732 629 760 q 706 667 689 704 q 725 583 724 629 z "},"4":{"ha":636,"x_min":-104,"x_max":733,"o":"m 733 94 q 708 -1 733 44 q 646 -74 683 -46 l 646 -137 q 630 -201 646 -167 q 586 -262 614 -235 q 520 -309 558 -290 q 439 -328 482 -328 q 360 -309 397 -328 q 296 -262 324 -290 q 252 -201 268 -235 q 236 -137 236 -167 l 236 -111 l 110 -111 q 27 -94 68 -111 q -44 -46 -14 -76 q -90 26 -75 -15 q -94 114 -104 67 l 67 658 q 106 728 79 699 q 169 775 133 758 q 246 794 206 792 q 326 782 286 796 q 382 751 357 771 q 426 705 407 731 q 455 649 444 679 q 465 588 465 618 q 458 540 465 567 q 442 485 451 513 q 423 431 433 457 q 406 386 413 406 q 533 365 474 394 q 625 274 593 336 q 703 200 672 247 q 733 94 733 153 z "},"5":{"ha":672,"x_min":-71,"x_max":751,"o":"m 685 586 q 663 492 685 536 q 601 421 640 449 q 710 283 669 363 q 751 104 751 203 q 718 -66 751 13 q 628 -201 685 -144 q 493 -291 571 -258 q 328 -324 415 -324 q 194 -299 264 -324 q 67 -233 125 -275 q -28 -133 10 -190 q -65 -7 -65 -75 q -42 81 -65 36 q 11 157 -19 126 q -48 228 -25 185 q -71 319 -71 271 l -71 586 q -55 667 -71 629 q -10 733 -39 706 q 56 776 18 760 q 135 792 93 792 l 479 792 q 560 776 522 792 q 626 733 599 760 q 669 667 653 706 q 685 586 685 629 z "},"6":{"ha":732,"x_min":-79,"x_max":815,"o":"m 367 -110 q 199 -73 279 -110 q 56 26 118 -36 q -42 169 -6 88 q -79 342 -79 251 q -65 454 -79 399 q -21 561 -50 510 l 183 918 q 260 988 213 965 q 356 1011 307 1011 q 405 1006 379 1011 q 457 985 431 1000 q 532 908 507 954 q 557 810 557 863 q 556 778 557 794 q 547 746 554 763 q 567 736 558 740 q 588 726 576 732 q 758 560 700 664 q 815 340 815 456 q 799 224 815 283 q 754 115 783 165 q 678 21 722 63 q 584 -50 635 -21 q 478 -94 533 -79 q 367 -110 422 -110 z "},"7":{"ha":694,"x_min":-76,"x_max":793,"o":"m 385 -218 q 324 -277 360 -253 q 247 -312 288 -301 q 166 -316 207 -322 q 88 -285 125 -310 q 31 -226 51 -260 q 2 -156 10 -193 q 1 -80 -6 -118 q 28 -7 7 -42 q 120 163 86 100 q 175 263 154 225 q 209 326 196 301 q 239 382 222 350 l 128 382 q 49 397 86 382 q -15 440 13 413 q -60 504 -43 467 q -76 586 -76 542 q -60 665 -76 628 q -15 731 -43 703 q 49 776 13 760 q 128 792 86 792 l 590 792 q 666 769 629 788 q 731 724 703 751 q 776 661 758 696 q 793 588 793 626 q 765 478 793 539 l 385 -218 z "},"8":{"ha":692,"x_min":-79,"x_max":772,"o":"m 346 1004 q 583 901 486 1004 l 582 901 q 678 665 678 801 q 675 628 678 649 q 669 590 672 608 q 745 466 718 536 q 772 314 772 396 q 739 149 772 226 q 648 14 706 72 q 513 -78 590 -44 q 347 -111 436 -111 q 182 -79 260 -111 q 46 9 104 -47 q -46 144 -12 65 q -79 314 -79 222 q -55 456 -79 390 q 14 578 -31 522 q 4 678 4 622 q 111 911 10 817 l 111 910 q 346 1004 210 1004 z "},"9":{"ha":731,"x_min":-83,"x_max":811,"o":"m 365 792 q 477 774 414 792 q 618 711 540 757 q 703 640 667 682 q 763 549 739 599 q 799 447 788 500 q 811 340 811 393 q 797 228 811 283 q 753 121 782 172 l 547 -237 q 472 -306 518 -283 q 376 -329 425 -329 q 327 -324 353 -329 q 275 -303 301 -318 q 199 -225 224 -272 q 175 -128 175 -178 q 185 -64 175 -93 q 163 -54 174 -58 q 143 -44 153 -50 q -26 122 31 18 q -83 342 -83 226 q -67 458 -83 399 q -22 567 -51 517 q 52 660 8 618 q 147 731 96 701 q 254 776 199 760 q 365 792 310 792 z "},"f":{"ha":524,"x_min":-92,"x_max":617,"o":"m 407 999 q 551 949 492 999 q 617 801 610 900 q 574 678 617 731 q 464 606 531 625 l 464 597 q 551 525 526 572 q 576 415 576 478 q 553 304 576 351 q 464 233 529 257 l 464 46 q 432 -88 460 -24 q 359 -201 404 -153 q 253 -279 314 -250 q 125 -308 193 -308 q 47 -297 85 -308 q -22 -260 8 -285 q -70 -199 -51 -236 q -92 -110 -89 -161 q -49 18 -92 -36 q 61 89 -6 72 l 61 231 q -23 300 0 253 q -51 410 -46 347 q -26 522 -51 472 q 61 597 0 571 l 61 644 q 88 777 61 713 q 162 890 115 842 q 272 969 208 939 q 407 999 335 999 z "},"h":{"ha":743,"x_min":-62,"x_max":833,"o":"m 139 993 q 277 939 221 993 q 340 794 333 885 l 340 779 q 363 781 351 781 q 386 781 374 781 q 558 747 476 781 q 700 653 639 713 q 797 515 761 594 q 833 343 833 435 l 833 79 q 818 3 833 38 q 776 -58 803 -32 q 713 -98 749 -83 q 633 -114 676 -112 q 555 -99 592 -114 q 490 -60 518 -85 q 446 1 463 -35 q 429 78 429 36 l 429 333 q 417 365 429 351 q 386 378 406 378 q 353 364 367 378 q 340 333 340 350 l 340 81 q 325 3 340 39 q 283 -58 310 -32 q 219 -98 256 -83 q 140 -114 183 -112 q 65 -98 101 -114 q 0 -56 28 -82 q -45 6 -28 -29 q -62 79 -62 40 l -62 807 q -47 880 -62 846 q -5 939 -32 914 q 59 978 22 964 q 139 993 96 993 z "},"g":{"ha":739,"x_min":-81,"x_max":814,"o":"m 381 -364 q 312 -406 349 -392 q 239 -419 275 -419 q 158 -403 196 -419 q 93 -358 121 -386 q 49 -292 65 -329 q 33 -214 33 -254 q 59 -120 33 -164 q 122 -44 85 -76 q -27 110 26 13 q -81 336 -81 208 q -44 508 -81 426 q 56 650 -7 589 q 199 747 118 711 q 367 783 279 783 q 541 748 460 783 q 683 652 622 713 q 778 510 743 592 q 813 336 813 428 q 783 171 813 247 q 806 92 799 135 q 813 -4 813 50 q 787 -137 814 -72 q 713 -251 760 -201 q 603 -332 667 -301 q 469 -364 540 -362 l 381 -364 z "},"i":{"ha":272,"x_min":-65,"x_max":336,"o":"m 138 992 q 215 976 179 992 q 278 932 251 960 q 321 867 306 904 q 336 790 336 831 q 320 713 336 750 q 277 649 304 676 q 213 605 250 621 q 135 589 176 589 q -10 644 46 592 q -65 796 -65 697 q -47 873 -64 838 q -3 935 -31 908 q 60 976 24 961 q 138 992 97 992 m 138 779 q 214 764 179 779 q 274 723 249 749 q 316 662 300 697 q 336 588 332 626 l 336 86 q 285 -54 336 0 q 142 -115 233 -108 q 1 -68 57 -115 q -65 67 -54 -21 l -65 593 q -44 667 -61 633 q -1 726 -28 701 q 60 764 25 750 q 133 779 94 778 l 138 779 z "},"j":{"ha":389,"x_min":-99,"x_max":457,"o":"m 257 779 q 335 765 299 779 q 398 724 371 750 q 440 663 425 697 q 456 588 456 628 l 456 49 q 435 -77 457 -14 q 369 -192 413 -140 q 263 -276 326 -243 q 118 -308 199 -308 q 40 -297 78 -308 q -28 -260 1 -285 q -77 -199 -58 -236 q -99 -110 -96 -161 q -56 18 -99 -36 q 54 89 -12 72 l 54 593 q 71 667 54 633 q 115 725 88 700 q 178 764 142 750 q 253 779 214 778 l 257 779 m 257 992 q 335 976 299 992 q 398 932 371 960 q 440 867 425 904 q 456 790 456 831 q 440 713 456 750 q 397 649 424 676 q 333 605 369 621 q 254 589 296 589 q 110 644 165 592 q 54 796 54 697 q 72 873 56 838 q 116 935 89 908 q 180 976 143 961 q 257 992 217 992 z "},"k":{"ha":622,"x_min":-62,"x_max":717,"o":"m 657 236 q 702 166 688 204 q 717 90 717 128 q 700 14 717 51 q 651 -56 683 -24 q 565 -102 603 -87 q 490 -112 526 -117 q 413 -82 453 -108 q 319 -4 372 -56 q 248 -83 294 -56 q 143 -111 201 -111 q 66 -95 103 -111 q 1 -51 29 -79 q -45 14 -28 -24 q -62 93 -62 51 l -62 794 q -47 871 -62 833 q -2 936 -31 908 q 64 981 26 964 q 143 999 101 999 q 222 983 185 999 q 288 939 260 967 q 331 874 315 911 q 347 794 347 836 l 347 713 l 368 733 q 435 779 399 764 q 510 794 472 794 q 586 778 549 794 q 656 733 624 763 q 701 665 686 703 q 717 590 717 628 q 701 514 717 551 q 656 446 686 476 l 551 342 l 657 236 z "},"l":{"ha":396,"x_min":-68,"x_max":493,"o":"m 135 994 q 213 980 176 994 q 278 939 250 965 q 322 878 306 913 q 338 801 338 843 l 338 282 q 447 216 404 267 q 493 90 490 165 q 479 19 493 53 q 441 -42 465 -15 q 382 -88 417 -69 q 306 -112 347 -107 l 281 -112 q 146 -83 210 -112 q 35 -6 82 -54 q -40 108 -12 43 q -68 243 -68 172 l -68 811 q -52 880 -68 847 q -8 938 -36 913 q 56 978 19 963 q 135 994 93 993 z "},"m":{"ha":896,"x_min":-65,"x_max":961,"o":"m 293 783 q 373 776 335 783 q 447 751 411 769 q 603 783 518 783 q 739 756 674 783 q 853 682 804 729 q 932 570 903 635 q 961 432 961 506 l 961 83 q 944 9 961 44 q 900 -53 928 -26 q 835 -95 872 -79 q 758 -111 799 -111 q 673 -90 714 -111 q 604 -37 632 -69 q 534 -90 576 -69 q 447 -111 492 -111 q 363 -91 404 -111 q 293 -39 322 -71 q 226 -91 265 -71 q 138 -111 186 -111 q 59 -94 96 -111 q -6 -49 22 -78 q -49 17 -33 -21 q -65 100 -65 56 l -65 432 q -37 567 -65 503 q 39 678 -10 631 q 153 755 88 726 q 293 783 218 783 z "},"n":{"ha":756,"x_min":-71,"x_max":825,"o":"m 378 788 q 548 754 467 788 q 690 663 629 721 q 788 524 751 604 q 825 351 825 444 l 825 94 q 810 17 825 53 q 767 -47 794 -19 q 704 -90 740 -74 q 626 -107 668 -106 q 548 -92 585 -107 q 483 -51 511 -78 q 438 11 454 -25 q 422 90 422 47 l 422 340 q 409 372 422 358 q 376 385 396 385 q 347 374 360 385 q 335 347 335 363 l 335 94 q 318 17 335 54 q 274 -47 301 -19 q 209 -91 246 -75 q 132 -107 172 -107 q 55 -92 92 -107 q -10 -50 18 -76 q -54 13 -37 -24 q -71 90 -71 49 l -71 340 q -35 514 -69 432 q 60 656 0 596 q 201 752 119 717 q 378 788 282 788 z "},"o":{"ha":739,"x_min":-78,"x_max":817,"o":"m 369 785 q 541 749 460 785 q 683 653 622 714 q 781 511 744 593 q 817 336 817 429 q 782 163 817 244 q 687 22 747 82 q 544 -74 626 -39 q 369 -110 463 -110 q 196 -76 278 -110 q 53 16 114 -43 q -42 157 -7 75 q -78 336 -78 239 q -44 508 -78 428 q 50 649 -10 589 q 192 746 110 710 q 369 785 274 782 z "},"p":{"ha":732,"x_min":-68,"x_max":828,"o":"m 381 783 q 552 748 471 783 q 694 652 633 713 q 792 510 756 592 q 828 336 828 428 q 794 163 828 244 q 699 20 760 81 q 557 -76 639 -40 q 381 -111 475 -111 q 358 -111 369 -111 q 336 -110 347 -111 l 336 -125 q 320 -203 336 -167 q 277 -266 304 -239 q 213 -309 250 -293 q 133 -325 176 -325 q 59 -310 94 -325 q -5 -270 24 -296 q -50 -209 -33 -244 q -68 -132 -67 -174 l -68 336 q -33 508 -68 426 q 65 650 3 589 q 208 747 126 711 q 381 783 289 783 z "},"q":{"ha":732,"x_min":-96,"x_max":800,"o":"m 351 785 q 524 749 443 785 q 667 651 606 713 q 765 509 729 590 q 800 338 800 428 l 800 -131 q 782 -208 799 -172 q 737 -269 765 -243 q 673 -309 708 -294 q 599 -324 638 -324 q 519 -308 556 -324 q 455 -265 482 -292 q 412 -201 428 -237 q 396 -124 396 -165 l 396 -108 q 374 -110 385 -110 q 351 -110 364 -110 q 175 -74 257 -110 q 33 22 93 -39 q -62 164 -28 82 q -96 338 -96 246 q -60 511 -96 429 q 35 653 -25 593 q 178 749 96 714 q 351 785 260 785 z "},"r":{"ha":474,"x_min":-75,"x_max":575,"o":"m 126 -112 q -13 -60 42 -112 q -75 82 -68 -8 l -75 344 q -37 513 -74 435 q 58 651 -1 592 q 198 744 118 710 q 368 782 278 779 q 447 767 410 782 q 510 726 483 751 q 554 665 538 700 q 575 590 571 629 q 559 508 575 546 q 516 441 543 469 q 452 397 489 413 q 374 379 415 381 q 342 367 356 379 q 329 335 329 354 l 329 72 q 269 -61 322 -10 q 126 -112 215 -112 z "},"s":{"ha":653,"x_min":-71,"x_max":726,"o":"m 494 786 q 573 769 536 786 q 636 723 610 751 q 678 658 663 694 q 693 586 693 622 q 675 505 693 543 q 626 439 657 467 q 699 334 674 393 q 725 214 725 275 q 701 83 726 143 q 631 -19 676 24 q 525 -87 586 -62 q 396 -111 464 -111 l 140 -111 q 63 -96 99 -111 q -1 -54 26 -81 q -44 9 -28 -28 q -60 88 -60 46 q -40 173 -60 132 q 15 243 -19 214 q -47 345 -22 288 q -71 461 -71 403 q -47 583 -71 525 q 20 685 -22 642 q 120 756 63 729 q 244 786 178 783 l 494 786 z "},"t":{"ha":663,"x_min":-69,"x_max":764,"o":"m 136 999 q 214 983 178 999 q 277 941 250 968 q 321 877 304 914 q 342 797 338 840 l 342 793 l 469 793 q 552 776 515 793 q 615 732 589 760 q 656 667 642 704 q 671 589 671 631 q 653 512 671 549 q 608 447 636 475 q 544 402 581 419 q 469 385 507 385 l 342 385 l 342 343 q 354 310 342 324 q 386 296 367 296 q 418 306 408 296 q 558 359 483 360 q 696 306 633 358 q 743 236 726 274 q 762 160 760 199 q 750 85 764 122 q 706 17 736 47 q 564 -78 640 -46 q 397 -111 488 -111 q 217 -79 301 -111 q 70 13 133 -47 q -31 156 7 72 q -69 342 -68 239 l -69 800 q -53 878 -69 842 q -8 942 -36 915 q 58 983 21 968 q 136 999 94 999 z "},"u":{"ha":756,"x_min":-71,"x_max":826,"o":"m 131 785 q 208 769 171 785 q 272 725 244 753 q 317 660 300 697 q 333 581 333 622 l 333 336 q 347 305 333 318 q 378 292 360 292 q 408 302 394 292 q 421 329 421 313 l 421 582 q 436 656 421 619 q 478 720 451 692 q 542 766 506 749 q 619 785 578 783 q 698 768 661 785 q 763 724 735 751 q 808 660 792 696 q 826 588 825 625 l 826 336 q 791 163 826 244 q 695 20 756 81 q 553 -76 635 -40 q 378 -111 471 -111 q 208 -79 289 -114 q 65 16 126 -44 q -34 156 3 76 q -71 326 -71 236 l -71 582 q -56 659 -71 622 q -14 723 -40 696 q 49 767 13 750 q 126 785 85 783 l 131 785 z "},"w":{"ha":896,"x_min":-69,"x_max":961,"o":"m 293 -111 q 153 -83 218 -111 q 39 -6 88 -54 q -37 106 -10 42 q -65 240 -65 169 l -65 572 q -53 654 -69 615 q -9 722 -37 693 q 58 767 19 750 q 138 783 96 783 q 224 764 185 783 q 290 713 263 744 q 361 767 319 749 q 447 786 403 786 q 535 765 493 786 q 604 711 576 744 q 673 763 632 743 q 758 783 714 783 q 835 767 799 783 q 900 725 872 751 q 944 663 928 699 q 961 589 961 628 l 961 240 q 932 102 961 167 q 853 -10 903 38 q 739 -84 804 -57 q 603 -111 674 -111 q 447 -79 518 -111 q 373 -104 411 -97 q 293 -111 335 -111 z "},"v":{"ha":654,"x_min":-81,"x_max":736,"o":"m 610 769 q 678 724 650 753 q 722 660 707 696 q 736 583 736 624 q 721 506 736 543 q 618 260 671 382 q 517 14 565 138 q 492 -24 508 -3 q 451 -65 475 -46 q 397 -98 428 -85 q 331 -111 367 -111 q 219 -82 268 -111 q 138 21 169 -53 q 54 221 88 142 q -1 353 21 300 q -37 440 -24 406 q -64 504 -51 474 q -81 583 -81 543 q -67 659 -81 624 q -24 723 -53 694 q 46 769 4 751 q 126 782 86 783 q 200 765 165 781 q 263 723 235 750 q 311 660 292 696 q 328 622 321 632 q 335 641 332 632 q 343 660 339 650 q 390 726 360 699 q 457 769 419 754 q 534 785 494 785 q 610 769 574 786 z "},"x":{"ha":761,"x_min":-67,"x_max":828,"o":"m 488 724 q 553 767 518 753 q 626 782 589 782 q 699 767 663 782 q 767 724 735 753 q 811 658 796 694 q 826 582 826 621 q 812 506 826 543 q 768 440 797 469 l 664 335 q 716 283 690 308 q 768 232 742 258 q 813 166 797 203 q 828 90 828 129 q 813 15 828 51 q 768 -53 799 -22 q 701 -97 738 -83 q 627 -110 665 -111 q 551 -94 589 -110 q 483 -50 514 -79 l 381 51 l 263 -68 q 199 -102 235 -92 q 128 -111 164 -112 q 57 -95 92 -110 q -6 -53 22 -81 q -49 13 -35 -24 q -65 86 -64 49 q -52 160 -65 124 q -11 228 -39 197 l 99 336 l -8 443 q -53 508 -39 472 q -65 579 -67 543 q -50 651 -64 615 q -10 718 -36 688 q 133 783 57 785 q 276 724 210 782 l 381 619 l 488 724 z "},"y":{"ha":743,"x_min":-92,"x_max":806,"o":"m 110 785 q 184 770 147 785 q 249 730 221 756 q 295 668 278 704 q 313 589 313 632 l 313 338 q 325 307 313 319 q 357 294 338 294 q 388 305 374 294 q 401 331 401 315 l 401 585 q 417 663 401 626 q 459 726 432 699 q 523 769 486 753 q 603 785 560 785 q 680 769 643 785 q 744 728 717 754 q 789 667 772 703 q 806 589 806 631 l 806 -125 q 789 -203 806 -167 q 744 -265 772 -239 q 680 -307 717 -292 q 603 -322 643 -322 q 528 -308 565 -322 q 464 -267 492 -293 q 419 -203 436 -240 q 401 -121 401 -167 l 401 -108 q 379 -110 390 -110 q 357 -110 368 -110 q 185 -75 267 -110 q 42 21 103 -40 q -56 165 -19 82 q -92 347 -92 249 l -92 585 q -76 663 -92 626 q -34 726 -61 699 q 30 769 -7 753 q 110 785 67 785 z "},"z":{"ha":767,"x_min":-67,"x_max":832,"o":"m 632 783 q 708 765 671 783 q 772 719 744 747 q 815 655 799 690 q 832 583 832 619 q 772 442 832 501 q 703 371 729 397 q 663 329 678 344 q 640 306 647 314 q 625 293 632 299 q 708 273 669 290 q 774 228 746 256 q 817 165 801 200 q 832 89 832 129 q 816 14 832 51 q 772 -53 800 -24 q 706 -99 743 -82 q 628 -111 669 -115 l 136 -111 q 24 -75 71 -112 q -45 16 -24 -37 q -58 128 -67 69 q -4 231 -50 188 l 144 381 q 58 401 97 383 q -9 447 19 418 q -52 511 -37 475 q -64 589 -67 547 q -46 666 -62 631 q -1 727 -29 701 q 62 768 26 753 q 136 783 97 783 l 632 783 z "},"c":{"ha":664,"x_min":-79,"x_max":739,"o":"m 369 783 q 491 765 426 783 q 611 713 556 747 q 703 630 667 679 q 739 518 739 581 q 706 410 739 460 q 621 338 672 360 q 706 263 674 313 q 739 156 739 213 q 701 41 739 90 q 606 -42 663 -8 q 486 -94 550 -76 q 369 -111 422 -111 q 197 -75 278 -111 q 53 22 115 -39 q -44 165 -8 83 q -79 336 -79 246 q -43 506 -79 425 q 54 649 -7 588 q 197 747 115 710 q 369 783 279 783 z "},"a":{"ha":747,"x_min":-82,"x_max":818,"o":"m 818 336 l 818 90 q 801 12 818 49 q 756 -52 783 -25 q 691 -95 728 -79 q 617 -111 654 -111 q 518 -85 561 -111 q 445 -106 482 -100 q 371 -111 408 -111 q 239 -91 301 -111 q 124 -35 176 -71 q 29 49 71 0 q -39 157 -12 99 q -77 304 -72 229 q -62 449 -82 379 q -3 579 -43 518 q 94 685 38 640 q 222 757 151 731 q 371 783 292 783 q 548 746 467 783 q 689 646 629 708 q 783 503 749 583 q 818 336 817 422 z "},"d":{"ha":732,"x_min":-96,"x_max":800,"o":"m 599 996 q 676 981 639 996 q 740 940 713 967 q 784 875 768 913 q 800 793 800 838 l 800 336 q 764 165 800 246 q 666 22 728 83 q 523 -75 604 -39 q 353 -111 442 -111 q 183 -76 264 -111 q 40 20 101 -40 q -59 163 -22 81 q -96 336 -96 244 q -60 508 -96 426 q 38 650 -24 589 q 181 747 99 711 q 353 783 263 783 q 375 783 364 783 q 396 782 386 783 l 396 794 q 413 873 396 836 q 457 937 429 910 q 522 980 485 964 q 599 996 558 996 z "},"!":{"ha":278,"x_min":-67,"x_max":343,"o":"m 343 93 q 326 15 343 51 q 282 -50 310 -22 q 217 -94 254 -78 q 140 -111 181 -111 q 58 -94 96 -111 q -7 -50 21 -78 q -51 15 -35 -22 q -67 93 -67 51 q -51 172 -67 135 q -7 238 -35 210 q 58 283 21 267 q 140 299 96 299 q 217 283 181 299 q 282 238 254 267 q 326 172 310 210 q 343 93 343 135 m 140 999 q 217 983 181 999 q 282 940 254 967 q 326 874 310 913 q 343 793 343 836 l 343 325 q 326 243 343 281 q 282 178 310 206 q 217 135 254 151 q 140 119 181 119 q 58 135 96 119 q -7 178 21 151 q -51 243 -35 206 q -67 325 -67 281 l -67 793 q -51 874 -67 836 q -7 940 -35 913 q 58 983 21 967 q 140 999 96 999 z "},"\"":{"ha":510,"x_min":-65,"x_max":575,"o":"m 140 999 q 222 983 185 999 q 287 939 260 967 q 329 874 314 911 q 344 794 344 836 l 344 621 q 329 542 344 579 q 287 476 314 504 q 222 433 260 449 q 140 417 185 417 q 61 433 99 417 q -5 476 24 449 q -49 542 -33 504 q -65 621 -65 579 l -65 794 q -49 874 -65 836 q -5 939 -33 911 q 61 983 24 967 q 140 999 99 999 m 371 999 q 453 983 415 999 q 517 939 490 967 q 560 874 544 911 q 575 794 575 836 l 575 621 q 560 542 575 579 q 517 476 544 504 q 453 433 490 449 q 371 417 415 417 q 292 433 329 417 q 226 476 254 449 q 181 542 197 504 q 165 621 165 579 l 165 794 q 181 874 165 836 q 226 939 197 911 q 292 983 254 967 q 371 999 329 999 z "},"$":{"ha":740,"x_min":-83,"x_max":824,"o":"m 374 1093 q 521 1031 458 1093 q 549 999 538 1013 l 599 999 q 675 983 639 999 q 738 941 711 968 q 782 878 765 914 q 803 799 799 842 q 757 660 803 715 q 636 592 711 604 q 772 456 719 542 q 824 268 824 371 q 803 147 824 206 q 745 41 782 89 q 660 -42 708 -7 q 557 -96 611 -78 q 478 -175 529 -146 q 374 -204 428 -204 q 274 -178 324 -204 q 200 -111 224 -153 l 143 -111 q 60 -95 97 -111 q -5 -52 22 -79 q -47 13 -32 -25 q -62 94 -62 50 q -16 224 -62 168 q 104 294 31 281 q -30 428 24 344 q -83 618 -83 513 q -60 735 -83 676 q 1 844 -37 793 q 89 932 39 894 q 192 985 139 969 q 226 1031 206 1010 q 374 1093 289 1093 z "},"%":{"ha":1168,"x_min":-87,"x_max":1256,"o":"m 763 988 q 860 910 825 964 q 896 792 896 856 q 888 735 896 761 q 832 560 860 647 q 776 383 804 472 q 721 207 749 294 q 665 32 693 119 q 624 -35 651 -6 q 560 -84 596 -65 q 485 -108 525 -103 q 407 -100 446 -112 q 336 -58 367 -85 q 288 3 306 -31 q 265 77 269 38 q 274 156 261 117 l 497 857 q 541 927 513 896 q 605 977 569 958 q 681 999 640 996 q 763 988 722 1003 m 269 999 q 515 892 417 999 q 614 644 614 789 q 515 401 614 504 q 267 294 417 294 q 124 321 189 296 q 11 392 58 346 q -62 506 -36 439 q -87 660 -87 574 q -50 796 -81 733 q 28 903 -19 858 q 138 974 76 949 q 269 999 200 999 m 911 597 q 1048 567 985 597 q 1157 489 1111 538 q 1229 376 1203 440 q 1256 243 1256 311 q 1157 0 1256 103 l 1158 0 q 908 -107 1057 -107 q 765 -81 831 -106 q 653 -9 700 -56 q 580 105 606 38 q 554 258 554 172 q 592 394 561 332 q 670 502 622 457 q 780 572 718 547 q 911 597 842 597 z "},"&":{"ha":831,"x_min":-71,"x_max":922,"o":"m 853 400 q 841 333 853 368 q 807 271 829 299 l 853 233 q 900 170 883 206 q 919 98 917 135 q 911 24 922 61 q 874 -44 900 -12 q 809 -93 844 -75 q 736 -114 774 -111 q 662 -105 699 -117 q 593 -64 625 -93 q 569 -42 581 -53 q 546 -22 558 -32 q 434 -87 494 -64 q 303 -111 374 -111 q 147 -79 217 -111 q 29 6 78 -47 q -45 126 -19 58 q -71 267 -71 194 q -57 374 -71 321 q -10 476 -43 428 q -52 656 -58 564 q 1 824 -46 749 q 126 949 47 900 q 303 997 206 997 q 447 967 382 997 q 558 886 511 936 q 629 772 604 836 q 654 639 654 707 q 653 617 654 628 q 651 596 653 607 q 726 583 690 599 q 790 538 763 567 q 835 474 818 510 q 853 400 853 438 z "},"'":{"ha":272,"x_min":-69,"x_max":340,"o":"m 136 1001 q 218 985 181 1001 q 283 942 256 969 q 325 876 310 914 q 340 797 340 839 l 340 624 q 325 544 340 582 q 283 479 310 507 q 218 435 256 451 q 136 419 181 419 q 57 435 94 419 q -9 479 19 451 q -53 544 -37 507 q -69 624 -69 582 l -69 797 q -53 876 -69 839 q -9 942 -37 914 q 57 985 19 969 q 136 1001 94 1001 z "},"(":{"ha":532,"x_min":-76,"x_max":600,"o":"m 394 111 q 476 96 438 111 q 541 53 514 81 q 584 -11 568 26 q 600 -93 600 -49 q 584 -172 600 -135 q 541 -237 568 -210 q 476 -281 514 -265 q 394 -297 438 -297 l 376 -297 q 203 -260 285 -297 q 59 -162 121 -224 q -40 -19 -3 -100 q -76 153 -76 63 l -76 549 q -40 721 -76 639 q 59 865 -3 803 q 203 963 121 926 q 376 1000 285 1000 l 394 1000 q 476 984 438 1000 q 541 940 514 968 q 584 875 568 913 q 600 796 600 838 q 584 714 600 751 q 541 649 568 676 q 476 607 514 622 q 394 592 438 592 q 372 583 382 592 q 353 560 361 574 q 340 529 344 546 q 335 497 335 513 l 335 172 q 353 130 335 149 q 394 111 371 111 z "},")":{"ha":533,"x_min":-67,"x_max":610,"o":"m 139 111 q 181 130 163 111 q 199 172 199 149 l 199 497 q 194 529 199 513 q 181 560 189 546 q 162 583 172 574 q 139 592 151 592 q 57 607 94 592 q -8 649 19 622 q -51 714 -35 676 q -67 796 -67 751 q -51 875 -67 838 q -8 940 -35 913 q 57 984 19 968 q 139 1000 94 1000 l 157 1000 q 331 963 249 1000 q 474 865 413 926 q 573 721 536 803 q 610 549 610 639 l 610 153 q 573 -19 610 63 q 474 -162 536 -100 q 331 -260 413 -224 q 157 -297 249 -297 l 139 -297 q 57 -281 94 -297 q -8 -237 19 -265 q -51 -172 -35 -210 q -67 -93 -67 -135 q -51 -11 -67 -49 q -8 53 -35 26 q 57 96 19 81 q 139 111 94 111 z "},"*":{"ha":507,"x_min":-74,"x_max":581,"o":"m 254 371 q 166 391 206 371 q 99 444 126 411 q 17 477 56 451 q -44 543 -21 503 q -67 593 -60 567 q -74 644 -74 619 q -61 715 -74 679 q -74 788 -74 750 q -67 839 -74 813 q -46 892 -61 865 q 96 988 10 976 q 254 1063 150 1063 q 343 1043 303 1063 q 411 989 383 1024 q 553 890 499 976 q 581 789 581 842 q 568 717 581 751 q 578 681 575 699 q 581 644 581 664 q 551 540 581 588 q 411 443 499 458 q 343 390 383 408 q 254 371 303 371 z "},"[":{"ha":432,"x_min":-62,"x_max":501,"o":"m 501 796 q 458 665 501 717 q 346 597 415 613 l 346 106 q 458 38 415 90 q 501 -93 501 -15 q 485 -172 501 -135 q 442 -237 469 -210 q 376 -281 414 -265 q 297 -297 339 -297 l 142 -297 q 64 -282 99 -297 q 3 -240 29 -267 q -40 -179 -24 -214 q -62 -107 -57 -144 l -62 810 q -40 881 -57 847 q 3 941 -24 915 q 63 983 29 967 q 139 1000 97 999 l 297 1000 q 376 984 339 1000 q 442 940 414 968 q 485 875 469 913 q 501 796 501 838 z "},"]":{"ha":433,"x_min":-68,"x_max":496,"o":"m -68 -93 q -25 38 -68 -15 q 88 106 18 90 l 88 597 q -25 665 18 613 q -68 796 -68 717 q -52 875 -68 838 q -8 940 -36 913 q 57 984 19 968 q 136 1000 94 1000 l 293 1000 q 369 983 335 999 q 431 941 404 967 q 474 881 457 915 q 496 810 490 847 l 496 -107 q 474 -179 490 -144 q 431 -240 457 -214 q 369 -282 404 -267 q 292 -297 335 -297 l 136 -297 q 57 -281 94 -297 q -8 -237 19 -265 q -52 -172 -36 -210 q -68 -93 -68 -135 z "},"+":{"ha":574,"x_min":-94,"x_max":668,"o":"m 286 799 q 358 785 324 799 q 419 747 392 771 q 465 690 447 722 q 490 621 483 658 q 560 597 528 614 q 616 552 592 579 q 654 490 640 525 q 668 417 668 456 q 654 344 668 379 q 616 283 640 310 q 560 237 592 256 q 490 213 528 218 q 465 143 483 175 q 419 87 447 111 q 358 49 392 63 q 286 35 324 35 q 213 49 247 35 q 152 88 179 64 q 107 144 125 113 q 82 213 89 176 q 9 234 42 217 q -47 279 -24 251 q -82 342 -69 307 q -94 417 -94 376 q -83 494 -94 458 q -48 556 -71 529 q 8 600 -25 583 q 82 621 40 617 q 105 691 88 658 q 149 747 122 724 q 211 785 176 771 q 286 799 246 799 z "},",":{"ha":274,"x_min":-69,"x_max":342,"o":"m 135 300 q 216 283 178 300 q 282 239 254 267 q 326 174 310 211 q 342 96 342 138 l 342 -78 q 326 -157 342 -119 q 282 -222 310 -194 q 216 -266 254 -250 q 135 -282 178 -282 q 56 -266 93 -282 q -10 -222 18 -250 q -53 -157 -37 -194 q -69 -78 -69 -119 l -69 96 q -53 174 -69 138 q -10 239 -37 211 q 56 283 18 267 q 135 300 93 300 z "},"-":{"ha":626,"x_min":-68,"x_max":694,"o":"m 694 418 q 678 339 694 376 q 635 273 663 301 q 569 228 607 244 q 490 213 532 213 l 136 213 q 54 228 92 213 q -10 273 17 244 q -53 339 -37 301 q -68 418 -68 376 q -53 499 -68 461 q -10 565 -37 538 q 54 608 17 592 q 136 624 92 624 l 490 624 q 569 608 532 624 q 635 565 607 592 q 678 499 663 538 q 694 418 694 461 z "},".":{"ha":257,"x_min":-76,"x_max":335,"o":"m 335 94 q 319 15 335 53 q 275 -51 303 -22 q 209 -95 247 -79 q 128 -111 171 -111 q 49 -95 86 -111 q -17 -51 11 -79 q -60 15 -44 -22 q -76 94 -76 53 q -60 174 -76 136 q -17 240 -44 211 q 49 284 11 268 q 128 300 86 300 q 209 284 171 300 q 275 240 247 268 q 319 174 303 211 q 335 94 335 136 z "},"/":{"ha":449,"x_min":-101,"x_max":549,"o":"m 531 733 l 308 31 q 236 -65 281 -33 q 142 -104 192 -97 q 44 -94 92 -111 q -39 -43 -4 -78 q -87 42 -74 -8 q -83 154 -101 93 l 140 856 q 204 951 161 919 q 297 990 247 983 q 396 981 346 997 q 482 929 446 964 q 533 844 518 894 q 531 733 549 793 z "},"{":{"ha":608,"x_min":-93,"x_max":675,"o":"m 469 111 q 549 95 511 111 q 615 51 586 79 q 659 -13 643 24 q 675 -92 675 -50 q 659 -174 675 -136 q 615 -238 643 -211 q 549 -281 586 -265 q 469 -297 511 -297 l 451 -297 q 278 -260 360 -297 q 135 -162 197 -224 q 38 -18 74 -100 q 1 154 1 64 l 1 178 q -67 251 -42 206 q -93 350 -93 297 q -69 454 -93 408 q 1 526 -44 500 l 1 549 q 38 720 1 639 q 135 863 74 801 q 278 962 197 925 q 451 999 360 999 l 469 999 q 549 983 511 999 q 615 939 586 967 q 659 874 643 911 q 675 794 675 836 q 659 715 675 753 q 615 650 643 678 q 549 606 586 622 q 469 590 511 590 q 447 581 457 590 q 428 558 436 572 q 416 528 421 544 q 411 496 411 511 l 411 172 q 428 130 411 149 q 469 111 446 111 z "},"\\":{"ha":449,"x_min":-92,"x_max":543,"o":"m -92 793 q -81 856 -92 825 q -52 913 -71 886 q -8 958 -33 939 q 50 988 18 978 q 128 997 89 1001 q 203 974 168 993 q 266 924 239 954 q 308 856 293 893 q 419 505 363 682 q 531 154 476 328 q 539 74 543 114 q 517 -1 535 33 q 468 -62 499 -36 q 396 -101 438 -89 q 324 -110 363 -114 q 248 -87 285 -106 q 182 -38 211 -68 q 140 31 153 -8 q 29 382 86 204 q -82 733 -28 560 q -92 793 -92 761 z "},"|":{"ha":293,"x_min":-64,"x_max":354,"o":"m 144 1000 q 226 983 188 1000 q 292 938 264 967 q 338 872 321 910 q 354 790 354 833 l 354 -87 q 338 -169 354 -131 q 292 -235 321 -207 q 226 -281 264 -264 q 144 -297 188 -297 q 63 -281 101 -297 q -3 -235 25 -264 q -47 -169 -31 -207 q -64 -87 -64 -131 l -64 790 q -47 872 -64 833 q -3 938 -31 910 q 63 983 25 967 q 144 1000 101 1000 z "},"}":{"ha":608,"x_min":-67,"x_max":701,"o":"m 139 111 q 180 130 163 111 q 197 172 197 149 l 197 496 q 192 528 197 511 q 180 558 188 544 q 162 581 172 572 q 139 590 151 590 q 60 606 97 590 q -6 650 22 622 q -51 715 -35 678 q -67 794 -67 753 q -51 874 -67 836 q -6 939 -35 911 q 60 983 22 967 q 139 999 97 999 l 157 999 q 330 962 249 999 q 473 863 411 925 q 571 720 535 801 q 607 549 607 639 l 607 526 q 676 453 650 499 q 701 350 701 407 q 677 248 701 293 q 607 176 653 203 l 607 154 q 571 -18 607 64 q 473 -162 535 -100 q 330 -260 411 -224 q 157 -297 249 -297 l 139 -297 q 60 -281 97 -297 q -6 -238 22 -265 q -51 -174 -35 -211 q -67 -92 -67 -136 q -51 -13 -67 -50 q -6 51 -35 24 q 60 95 22 79 q 139 111 97 111 z "},":":{"ha":265,"x_min":-72,"x_max":339,"o":"m 339 94 q 323 15 339 53 q 279 -51 307 -22 q 213 -95 251 -79 q 132 -111 175 -111 q 53 -95 90 -111 q -12 -51 15 -79 q -56 15 -40 -22 q -72 94 -72 53 q -56 174 -72 136 q -12 240 -40 211 q 53 284 15 268 q 132 300 90 300 q 213 284 175 300 q 279 240 251 268 q 323 174 307 211 q 339 94 339 136 m 339 579 q 323 500 339 538 q 279 434 307 463 q 213 390 251 406 q 132 374 175 374 q 53 390 90 374 q -12 434 15 406 q -56 500 -40 463 q -72 579 -72 538 q -56 658 -72 621 q -12 724 -40 696 q 53 769 15 753 q 132 785 90 785 q 213 769 175 785 q 279 724 251 753 q 323 658 307 696 q 339 579 339 621 z "},";":{"ha":272,"x_min":-69,"x_max":342,"o":"m 342 579 q 326 500 342 538 q 282 434 310 463 q 216 390 254 406 q 135 374 178 374 q 56 390 93 374 q -10 434 18 406 q -53 500 -37 463 q -69 579 -69 538 q -53 658 -69 621 q -10 724 -37 696 q 56 769 18 753 q 135 785 93 785 q 216 769 178 785 q 282 724 254 753 q 326 658 310 696 q 342 579 342 621 m 135 300 q 216 283 178 300 q 282 239 254 267 q 326 174 310 211 q 342 96 342 138 l 342 -78 q 326 -157 342 -119 q 282 -222 310 -194 q 216 -266 254 -250 q 135 -282 178 -282 q 56 -266 93 -282 q -10 -222 18 -250 q -53 -157 -37 -194 q -69 -78 -69 -119 l -69 96 q -53 174 -69 138 q -10 239 -37 211 q 56 283 18 267 q 135 300 93 300 z "},"‘":{"ha":329,"x_min":-86,"x_max":417,"o":"m 311 968 q 373 913 349 946 q 407 843 397 881 q 412 766 417 806 q 386 690 407 726 l 299 538 q 242 476 276 500 q 169 442 208 451 q 90 440 131 433 q 14 468 50 446 q -44 522 -21 489 q -76 593 -67 556 q -82 670 -86 631 q -58 744 -78 710 l 32 896 q 85 957 53 933 q 157 990 118 981 q 235 995 196 1000 q 311 968 275 990 z "},"’":{"ha":329,"x_min":-85,"x_max":417,"o":"m 311 971 q 373 916 349 949 q 407 846 397 883 q 412 769 417 808 q 386 693 407 729 l 299 540 q 242 478 276 503 q 169 445 208 454 q 90 442 131 436 q 14 471 50 449 l 15 471 q -42 525 -19 493 q -75 594 -65 557 q -81 670 -85 631 q -58 747 -78 710 l 32 899 q 85 960 53 936 q 157 993 118 983 q 235 998 196 1003 q 311 971 275 993 z "},"“":{"ha":618,"x_min":-75,"x_max":693,"o":"m 322 968 q 399 890 372 938 q 425 790 425 843 q 418 739 425 765 q 397 690 411 713 l 310 538 q 253 476 288 500 q 181 442 219 451 q 102 440 143 433 q 25 468 61 446 l 26 468 q -33 522 -10 489 q -65 593 -56 556 q -71 670 -75 631 q -47 744 -67 710 l 43 896 q 97 957 64 933 q 168 990 129 981 q 247 995 207 1000 q 322 968 286 990 m 588 968 q 649 913 625 946 q 683 842 674 879 q 688 765 693 804 q 663 690 683 725 l 575 538 q 519 476 553 500 q 447 442 485 451 q 367 440 408 433 q 290 468 326 446 l 292 468 q 234 522 257 490 q 201 591 211 554 q 195 667 192 628 q 218 744 199 707 l 308 896 q 384 971 335 944 q 485 997 433 997 q 537 990 510 997 q 588 968 564 983 z "},"”":{"ha":618,"x_min":-75,"x_max":693,"o":"m 322 968 q 399 890 372 938 q 425 790 425 843 q 418 739 425 765 q 397 690 411 713 l 310 538 q 253 476 288 500 q 181 442 219 451 q 102 440 143 433 q 25 468 61 446 l 26 468 q -33 522 -10 489 q -65 593 -56 556 q -71 670 -75 631 q -47 744 -67 710 l 43 896 q 97 957 64 933 q 168 990 129 981 q 247 995 207 1000 q 322 968 286 990 m 588 968 q 649 913 625 946 q 683 842 674 879 q 688 765 693 804 q 663 690 683 725 l 575 538 q 519 476 553 500 q 447 442 485 451 q 367 440 408 433 q 290 468 326 446 l 292 468 q 234 522 257 490 q 201 591 211 554 q 195 667 192 628 q 218 744 199 707 l 308 896 q 384 971 335 944 q 485 997 433 997 q 537 990 510 997 q 588 968 564 983 z "},"‚":{"ha":331,"x_min":-83,"x_max":418,"o":"m 313 224 q 376 167 351 200 q 409 97 400 135 q 413 20 418 60 q 388 -56 408 -19 l 299 -208 q 240 -267 274 -244 q 167 -299 206 -290 q 90 -303 129 -308 q 14 -276 50 -297 q -59 -199 -35 -246 q -83 -100 -83 -153 q -77 -50 -83 -76 q -56 3 -71 -24 l 33 153 q 90 212 57 188 q 161 247 124 236 q 238 252 199 257 q 313 224 276 247 z "},"„":{"ha":618,"x_min":-72,"x_max":690,"o":"m 322 224 q 399 146 372 193 q 425 46 425 99 q 418 -6 425 21 q 397 -54 411 -32 q 353 -131 376 -92 q 310 -207 331 -169 q 234 -281 281 -256 q 135 -307 188 -307 q 78 -299 107 -307 q 25 -276 50 -292 q -47 -201 -21 -247 q -72 -101 -72 -154 q -47 0 -72 -49 l 43 151 q 119 226 69 200 q 219 253 168 253 q 272 246 244 253 q 322 224 299 239 m 588 224 q 664 146 638 193 q 690 46 690 99 q 683 -6 690 21 q 663 -54 676 -32 q 619 -131 642 -92 q 575 -207 596 -171 q 500 -282 547 -257 q 400 -307 453 -307 q 344 -299 372 -307 q 290 -276 315 -292 q 219 -201 244 -247 q 193 -101 193 -154 q 196 -72 193 -87 q 210 -30 199 -57 q 244 40 222 -3 q 307 150 267 82 q 384 226 335 200 q 485 253 433 253 q 537 246 510 253 q 588 224 564 239 z "},"`":{"ha":417,"x_min":-85,"x_max":501,"o":"m -72 901 q -35 975 -61 942 q 26 1030 -8 1008 q 99 1058 60 1051 q 176 1050 139 1064 l 175 1050 q 263 1028 221 1039 q 344 1006 304 1017 q 415 966 383 992 q 468 907 447 940 q 495 835 489 874 q 489 757 501 796 l 489 758 q 451 683 478 717 q 390 629 425 650 q 315 602 356 608 q 236 608 275 596 q 154 631 196 619 q 72 654 113 643 q -1 690 32 664 q -53 751 -33 717 q -78 824 -72 785 q -72 901 -85 864 z "},"à":{"ha":729,"x_min":-82,"x_max":818,"o":"m 818 336 l 818 90 q 801 12 818 49 q 756 -52 783 -25 q 691 -95 728 -79 q 617 -111 654 -111 q 518 -85 561 -111 q 445 -106 482 -100 q 371 -111 408 -111 q 239 -91 301 -111 q 124 -35 176 -71 q 29 49 71 0 q -39 157 -12 99 q -77 304 -72 229 q -62 449 -82 379 q -3 579 -43 518 q 94 685 38 640 q 222 757 151 731 q 371 783 292 783 q 548 746 467 783 q 689 646 629 708 q 783 503 749 583 q 818 336 817 422 m 60 936 q 97 1010 71 976 q 158 1065 124 1043 q 231 1092 192 1086 q 308 1085 271 1099 l 307 1085 q 394 1063 353 1074 q 476 1040 436 1051 q 547 1001 515 1026 q 600 942 579 975 q 627 869 621 908 q 621 792 633 831 l 621 793 q 583 718 610 751 q 522 664 557 685 q 447 637 488 643 q 368 643 407 631 q 286 666 328 654 q 204 689 244 678 q 131 725 164 699 q 79 785 99 751 q 53 859 60 819 q 60 936 47 899 z "},"´":{"ha":415,"x_min":-85,"x_max":501,"o":"m 489 901 q 494 821 501 861 q 467 747 488 781 q 416 689 447 714 q 346 654 385 664 q 276 634 304 642 q 231 622 249 626 q 200 614 213 617 q 178 608 188 611 q 97 603 138 596 q 22 632 57 611 q -37 685 -12 653 q -72 757 -62 718 q -79 835 -85 796 q -53 908 -74 874 q -1 967 -33 942 q 71 1006 31 993 l 240 1050 q 319 1055 279 1061 q 393 1029 358 1049 q 453 977 428 1010 q 489 901 478 944 z "},"á":{"ha":729,"x_min":-82,"x_max":818,"o":"m 818 336 l 818 90 q 801 12 818 49 q 756 -52 783 -25 q 691 -95 728 -79 q 617 -111 654 -111 q 518 -85 561 -111 q 445 -106 482 -100 q 371 -111 408 -111 q 239 -91 301 -111 q 124 -35 176 -71 q 29 49 71 0 q -39 157 -12 99 q -77 304 -72 229 q -62 449 -82 379 q -3 579 -43 518 q 94 685 38 640 q 222 757 151 731 q 371 783 292 783 q 548 746 467 783 q 689 646 629 708 q 783 503 749 583 q 818 336 817 422 m 676 936 q 682 856 689 896 q 655 782 675 815 q 603 724 635 749 q 533 689 572 699 q 464 669 492 676 q 418 656 436 661 q 388 649 400 651 q 365 643 375 646 q 285 638 325 631 q 210 667 244 646 q 150 720 175 688 q 115 792 125 753 q 108 869 103 831 q 134 942 114 908 q 186 1002 154 976 q 258 1040 218 1028 l 428 1085 q 506 1090 467 1096 q 581 1064 546 1083 q 640 1012 615 1044 q 676 936 665 979 z "},"?":{"ha":607,"x_min":-85,"x_max":701,"o":"m 308 999 q 460 968 389 999 q 585 884 532 938 q 670 759 639 831 q 701 607 701 688 q 681 480 701 538 q 624 371 660 422 q 531 277 583 315 q 408 222 478 239 q 335 146 382 174 q 229 118 289 118 q 149 135 186 118 q 85 179 113 151 q 42 244 58 207 q 26 322 26 281 l 26 421 q -48 485 -18 443 q -85 586 -78 528 q -57 740 -85 665 q 22 872 -29 814 q 147 964 74 929 q 308 999 219 999 m 432 93 q 416 14 432 51 q 372 -51 400 -24 q 307 -95 344 -79 q 228 -111 269 -111 q 149 -95 186 -111 q 85 -51 113 -79 q 42 14 58 -24 q 26 93 26 51 q 42 172 26 135 q 85 236 58 208 q 149 280 113 264 q 228 296 186 296 q 307 280 269 296 q 372 236 344 264 q 416 172 400 208 q 432 93 432 135 z "},"A":{"ha":760,"x_min":-68,"x_max":828,"o":"m 381 999 q 551 965 469 999 q 693 874 632 932 q 791 735 754 815 q 828 563 828 656 l 828 94 q 813 17 828 53 q 770 -47 797 -19 q 707 -90 743 -74 q 629 -107 671 -106 q 551 -92 588 -107 q 485 -51 514 -78 q 441 11 457 -25 q 425 90 425 47 l 425 142 l 338 142 l 338 94 q 321 17 338 54 q 276 -47 304 -19 q 212 -91 249 -75 q 135 -107 175 -107 q 58 -92 94 -107 q -7 -50 21 -76 q -51 13 -35 -24 q -68 90 -68 49 l -68 551 q -32 725 -67 643 q 63 867 3 807 q 203 963 122 928 q 381 999 285 999 z "},"B":{"ha":767,"x_min":-64,"x_max":838,"o":"m 460 1000 q 608 972 539 1000 q 727 895 676 944 q 808 778 778 846 q 838 632 838 711 q 826 538 838 583 q 794 454 814 493 q 826 369 814 414 q 838 279 838 325 q 808 129 838 204 q 726 1 779 54 q 606 -81 674 -51 q 460 -111 538 -111 l 139 -111 q 58 -94 96 -111 q -6 -50 21 -78 q -49 15 -33 -22 q -62 93 -64 51 l -62 797 q -44 874 -60 838 q -3 937 -29 910 q 56 981 22 964 q 131 1000 90 997 l 460 1000 z "},"=":{"ha":614,"x_min":-67,"x_max":681,"o":"m 681 369 q 665 291 681 328 q 622 226 649 254 q 558 183 594 199 q 479 167 521 167 l 136 167 q 56 183 93 167 q -8 226 19 199 q -51 291 -35 254 q -67 369 -67 328 q -51 448 -67 411 q -8 513 -35 485 q 56 556 19 540 q 136 572 93 572 l 479 572 q 558 556 521 572 q 622 513 594 540 q 665 448 649 485 q 681 369 681 411 m 681 610 q 665 531 681 568 q 622 467 649 494 q 558 423 594 439 q 479 407 521 407 l 136 407 q 56 423 93 407 q -8 467 19 439 q -51 531 -35 494 q -67 610 -67 568 q -51 688 -67 651 q -8 753 -35 725 q 56 797 19 781 q 136 813 93 813 l 479 813 q 558 797 521 813 q 622 753 594 781 q 665 688 649 725 q 681 610 681 651 z "},"<":{"ha":533,"x_min":-100,"x_max":603,"o":"m 304 756 q 351 773 326 767 q 399 779 375 779 q 502 751 454 779 q 578 671 550 722 q 599 602 594 638 q 595 532 603 567 q 569 467 588 497 q 522 414 551 436 q 569 360 551 390 q 595 297 588 331 q 599 227 603 263 q 578 160 594 192 q 503 81 550 110 q 399 53 456 53 q 304 75 349 53 q 152 156 229 115 q 0 236 75 196 q -75 313 -50 264 q -100 414 -100 361 q -74 520 -100 471 q 1 594 -49 569 l 304 756 z "},">":{"ha":536,"x_min":-68,"x_max":635,"o":"m 532 596 q 608 519 582 569 q 635 414 635 468 q 610 313 635 361 q 533 236 586 264 q 407 169 457 196 q 324 125 357 143 q 269 96 290 107 q 229 75 247 85 q 136 53 182 53 q 31 81 79 53 q -44 160 -17 110 q -65 227 -61 192 q -60 297 -68 263 q -35 363 -53 332 q 13 415 -17 393 q -44 488 -24 444 q -65 578 -65 531 q -49 656 -65 619 q -6 720 -33 693 q 58 763 22 747 q 136 779 94 779 q 183 773 160 779 q 229 756 207 767 l 532 596 z "},"ˆ":{"ha":614,"x_min":-81,"x_max":697,"o":"m 263 708 q 196 663 233 678 q 119 649 158 649 q 42 665 79 649 q -25 711 4 681 q -67 781 -54 743 q -78 856 -81 818 q -58 931 -75 894 q -11 997 -42 968 l 156 1164 q 223 1210 186 1194 q 299 1225 260 1225 q 374 1210 338 1225 q 442 1168 410 1196 l 625 999 q 673 931 656 968 q 694 856 690 894 q 684 778 697 817 q 639 708 671 740 q 573 664 610 679 q 499 648 536 649 q 424 661 461 647 q 356 704 386 675 l 356 703 q 329 727 342 715 q 304 750 317 739 l 263 708 z "},"˜":{"ha":714,"x_min":-68,"x_max":782,"o":"m 447 1068 q 579 1121 504 1121 q 627 1115 603 1121 q 678 1094 651 1110 q 754 1022 726 1067 q 782 918 782 976 q 750 807 782 864 q 547 651 679 685 q 474 642 510 642 q 374 654 421 642 q 290 690 326 667 l 268 701 q 133 650 213 650 q 85 656 110 650 q 35 676 61 661 q -41 750 -14 706 q -68 853 -68 794 q -61 908 -68 881 q -37 964 -54 935 q 81 1085 8 1043 q 240 1128 154 1128 q 338 1115 289 1128 q 421 1082 386 1101 l 447 1068 z "},"¡":{"ha":243,"x_min":-67,"x_max":343,"o":"m 343 610 q 326 688 343 651 q 282 753 310 725 q 217 797 254 781 q 140 814 181 814 q 58 797 96 814 q -7 753 21 781 q -51 688 -35 725 q -67 610 -67 651 q -51 531 -67 568 q -7 465 -35 493 q 58 420 21 436 q 140 404 96 404 q 217 420 181 404 q 282 465 254 436 q 326 531 310 493 q 343 610 343 568 m 140 -296 q 217 -280 181 -296 q 282 -237 254 -264 q 326 -171 310 -210 q 343 -90 343 -133 l 343 378 q 326 460 343 422 q 282 524 310 497 q 217 567 254 551 q 140 583 181 583 q 58 567 96 583 q -7 524 21 551 q -51 460 -35 497 q -67 378 -67 422 l -67 -90 q -51 -171 -67 -133 q -7 -237 -35 -210 q 58 -280 21 -264 q 140 -296 96 -296 z "},"¿":{"ha":619,"x_min":-82,"x_max":703,"o":"m 311 -325 q 159 -294 231 -325 q 34 -210 88 -264 q -51 -85 -19 -157 q -82 67 -82 -14 q -61 194 -82 136 q -4 303 -40 251 q 89 397 36 358 q 211 451 142 435 q 284 528 238 500 q 390 556 331 556 q 470 539 433 556 q 534 494 507 522 q 577 430 561 467 q 593 351 593 393 l 593 253 q 667 188 637 231 q 704 88 697 146 q 676 -66 704 8 q 597 -198 649 -140 q 473 -290 546 -255 q 311 -325 400 -325 m 188 581 q 204 660 188 622 q 247 725 220 697 q 313 769 275 753 q 392 785 350 785 q 470 769 433 785 q 534 725 507 753 q 577 660 561 697 q 593 581 593 622 q 577 502 593 539 q 534 438 561 465 q 470 394 507 410 q 392 378 433 378 q 313 394 350 378 q 247 438 275 410 q 204 502 220 465 q 188 581 188 539 z "},"â":{"ha":729,"x_min":-82,"x_max":818,"o":"m 818 336 l 818 90 q 801 12 818 49 q 756 -52 783 -25 q 691 -95 728 -79 q 617 -111 654 -111 q 518 -85 561 -111 q 445 -106 482 -100 q 371 -111 408 -111 q 239 -91 301 -111 q 124 -35 176 -71 q 29 49 71 0 q -39 157 -12 99 q -77 304 -72 229 q -62 449 -82 379 q -3 579 -43 518 q 94 685 38 640 q 222 757 151 731 q 371 783 292 783 q 548 746 467 783 q 689 646 629 708 q 783 503 749 583 q 818 336 817 422 m 332 665 q 265 620 303 635 q 188 606 228 606 q 111 622 149 606 q 44 668 74 638 q 2 738 15 700 q -8 813 -11 775 q 11 888 -6 851 q 58 954 28 925 l 225 1121 q 292 1167 256 1151 q 368 1182 329 1182 q 443 1167 407 1182 q 511 1125 479 1153 l 694 956 q 742 888 725 925 q 763 813 760 851 q 753 735 767 774 q 708 665 740 697 q 642 621 679 636 q 568 605 606 606 q 493 618 531 604 q 425 661 456 632 l 425 660 q 399 684 411 672 q 374 707 386 696 l 332 665 z "},"ã":{"ha":729,"x_min":-82,"x_max":818,"o":"m 818 336 l 818 90 q 801 12 818 49 q 756 -52 783 -25 q 691 -95 728 -79 q 617 -111 654 -111 q 518 -85 561 -111 q 445 -106 482 -100 q 371 -111 408 -111 q 239 -91 301 -111 q 124 -35 176 -71 q 29 49 71 0 q -39 157 -12 99 q -77 304 -72 229 q -62 449 -82 379 q -3 579 -43 518 q 94 685 38 640 q 222 757 151 731 q 371 783 292 783 q 548 746 467 783 q 689 646 629 708 q 783 503 749 583 q 818 336 817 422 m 464 1061 q 596 1114 521 1114 q 644 1108 619 1114 q 694 1088 668 1103 q 771 1015 743 1060 q 799 911 799 969 q 767 800 799 857 q 564 644 696 678 q 490 635 526 635 q 390 647 438 635 q 307 683 343 660 l 285 694 q 150 643 229 643 q 102 649 126 643 q 51 669 78 654 q -24 743 3 699 q -51 846 -51 788 q -44 901 -51 874 q -21 957 -37 928 q 98 1078 25 1036 q 257 1121 171 1121 q 354 1108 306 1121 q 438 1075 403 1094 l 464 1061 z "},"¨":{"ha":542,"x_min":-68,"x_max":611,"o":"m 343 846 q 327 767 343 804 q 283 701 311 729 q 217 656 256 672 q 136 640 179 640 q 57 656 94 640 q -8 701 19 672 q -52 767 -36 729 q -68 846 -68 804 q -52 925 -68 888 q -8 991 -36 963 q 57 1035 19 1019 q 136 1051 94 1051 q 217 1035 179 1051 q 283 991 256 1019 q 327 925 311 963 q 343 846 343 888 m 611 846 q 595 767 611 804 q 551 701 579 729 q 485 656 524 672 q 404 640 447 640 q 325 656 363 640 q 260 701 288 672 q 216 767 232 729 q 200 846 200 804 q 216 925 200 888 q 260 991 232 963 q 325 1035 288 1019 q 404 1051 363 1051 q 485 1035 447 1051 q 551 991 524 1019 q 595 925 579 963 q 611 846 611 888 z "},"è":{"ha":729,"x_min":-78,"x_max":818,"o":"m 369 783 q 540 747 458 783 q 683 647 621 710 q 781 504 744 585 q 818 336 818 424 q 781 219 818 265 q 682 156 744 172 q 686 117 686 135 q 656 11 686 54 q 578 -59 625 -32 q 476 -99 531 -86 q 371 -111 421 -111 q 199 -78 281 -114 q 56 21 118 -42 q -42 165 -6 83 q -78 336 -78 246 q -42 504 -78 424 q 56 647 -6 585 q 198 746 117 708 q 369 783 279 783 m 25 936 q 63 1010 36 976 q 123 1065 89 1043 q 197 1092 157 1086 q 274 1085 236 1099 l 272 1085 q 360 1063 318 1074 q 442 1040 401 1051 q 513 1001 481 1026 q 565 942 544 975 q 592 869 586 908 q 586 792 599 831 l 586 793 q 549 718 575 751 q 488 664 522 685 q 413 637 453 643 q 333 643 372 631 q 251 666 293 654 q 169 689 210 678 q 97 725 129 699 q 44 785 64 751 q 19 859 25 819 q 25 936 13 899 z "},"é":{"ha":729,"x_min":-78,"x_max":818,"o":"m 369 783 q 540 747 458 783 q 683 647 621 710 q 781 504 744 585 q 818 336 818 424 q 781 219 818 265 q 682 156 744 172 q 686 117 686 135 q 656 11 686 54 q 578 -59 625 -32 q 476 -99 531 -86 q 371 -111 421 -111 q 199 -78 281 -114 q 56 21 118 -42 q -42 165 -6 83 q -78 336 -78 246 q -42 504 -78 424 q 56 647 -6 585 q 198 746 117 708 q 369 783 279 783 m 710 936 q 715 856 722 896 q 688 782 708 815 q 637 724 668 749 q 567 689 606 699 q 497 669 525 676 q 451 656 469 661 q 421 649 433 651 q 399 643 408 646 q 318 638 358 631 q 243 667 278 646 q 183 720 208 688 q 149 792 158 753 q 142 869 136 831 q 167 942 147 908 q 219 1002 188 976 q 292 1040 251 1028 l 461 1085 q 540 1090 500 1096 q 614 1064 579 1083 q 674 1012 649 1044 q 710 936 699 979 z "},"ê":{"ha":729,"x_min":-78,"x_max":818,"o":"m 369 783 q 540 747 458 783 q 683 647 621 710 q 781 504 744 585 q 818 336 818 424 q 781 219 818 265 q 682 156 744 172 q 686 117 686 135 q 656 11 686 54 q 578 -59 625 -32 q 476 -99 531 -86 q 371 -111 421 -111 q 199 -78 281 -114 q 56 21 118 -42 q -42 165 -6 83 q -78 336 -78 246 q -42 504 -78 424 q 56 647 -6 585 q 198 746 117 708 q 369 783 279 783 m 319 668 q 253 623 290 638 q 176 608 215 608 q 99 624 136 608 q 32 671 61 640 q -10 740 3 703 q -21 816 -24 778 q -1 891 -18 854 q 46 957 15 928 l 213 1124 q 280 1169 243 1154 q 356 1185 317 1185 q 431 1170 394 1185 q 499 1128 467 1156 l 682 958 q 730 891 713 928 q 751 815 747 854 q 741 738 754 776 q 696 668 728 700 q 630 624 667 639 q 556 608 593 608 q 481 621 518 607 q 413 664 443 635 l 413 663 q 386 687 399 675 q 361 710 374 699 l 319 668 z "},"ë":{"ha":729,"x_min":-78,"x_max":818,"o":"m 369 783 q 540 747 458 783 q 683 647 621 710 q 781 504 744 585 q 818 336 818 424 q 781 219 818 265 q 682 156 744 172 q 686 117 686 135 q 656 11 686 54 q 578 -59 625 -32 q 476 -99 531 -86 q 371 -111 421 -111 q 199 -78 281 -114 q 56 21 118 -42 q -42 165 -6 83 q -78 336 -78 246 q -42 504 -78 424 q 56 647 -6 585 q 198 746 117 708 q 369 783 279 783 m 443 872 q 427 793 443 831 q 383 727 411 756 q 317 683 356 699 q 236 667 279 667 q 157 683 194 667 q 92 727 119 699 q 48 793 64 756 q 32 872 32 831 q 48 951 32 914 q 92 1017 64 989 q 157 1062 119 1046 q 236 1078 194 1078 q 317 1062 279 1078 q 383 1017 356 1046 q 427 951 411 989 q 443 872 443 914 m 711 872 q 695 793 711 831 q 651 727 679 756 q 585 683 624 699 q 504 667 547 667 q 425 683 463 667 q 360 727 388 699 q 316 793 332 756 q 300 872 300 831 q 316 951 300 914 q 360 1017 332 989 q 425 1062 388 1046 q 504 1078 463 1078 q 585 1062 547 1078 q 651 1017 624 1046 q 695 951 679 989 q 711 872 711 914 z "},"î":{"ha":589,"x_min":-92,"x_max":682,"o":"m 292 785 q 368 769 333 785 q 428 728 403 754 q 470 667 454 703 q 490 593 486 632 l 490 92 q 439 -49 490 6 q 296 -110 388 -103 q 156 -62 211 -110 q 89 72 100 -15 l 89 599 q 110 673 93 639 q 153 731 126 707 q 214 769 179 756 q 288 785 249 783 l 292 785 m 250 661 q 178 617 217 632 q 101 603 139 603 q 26 619 63 604 q -37 664 -10 635 q -80 735 -68 697 q -89 810 -92 772 q -69 885 -86 849 q -24 950 -51 921 l 143 1117 q 210 1163 174 1147 q 286 1178 247 1178 q 361 1163 325 1178 q 429 1121 397 1149 l 613 951 q 659 882 642 919 q 679 806 676 844 q 669 729 682 767 q 626 661 657 692 q 558 615 594 629 q 483 601 521 601 q 408 616 444 601 q 343 657 372 631 l 343 656 q 317 680 329 668 q 292 703 304 692 l 250 661 z "},"ï":{"ha":503,"x_min":-87,"x_max":592,"o":"m 251 781 q 328 765 293 781 q 388 724 363 750 q 430 663 414 699 q 450 589 446 628 l 450 88 q 399 -53 450 1 q 256 -114 347 -107 q 115 -67 171 -114 q 49 68 60 -19 l 49 594 q 69 669 53 635 q 113 727 86 703 q 174 765 139 751 q 247 781 208 779 l 251 781 m 324 872 q 308 793 324 831 q 264 727 292 756 q 198 683 236 699 q 117 667 160 667 q 38 683 75 667 q -28 727 0 699 q -72 793 -56 756 q -87 872 -87 831 q -72 951 -87 914 q -28 1017 -56 989 q 38 1062 0 1046 q 117 1078 75 1078 q 198 1062 160 1078 q 264 1017 236 1046 q 308 951 292 989 q 324 872 324 914 m 592 872 q 576 793 592 831 q 532 727 560 756 q 466 683 504 699 q 385 667 428 667 q 306 683 343 667 q 240 727 268 699 q 197 793 213 756 q 181 872 181 831 q 197 951 181 914 q 240 1017 213 989 q 306 1062 268 1046 q 385 1078 343 1078 q 466 1062 428 1078 q 532 1017 504 1046 q 576 951 560 989 q 592 872 592 914 z "},"ò":{"ha":728,"x_min":-78,"x_max":817,"o":"m 369 785 q 541 749 460 785 q 683 653 622 714 q 781 511 744 593 q 817 336 817 429 q 782 163 817 244 q 687 22 747 82 q 544 -74 626 -39 q 369 -110 463 -110 q 196 -76 278 -110 q 53 16 114 -43 q -42 157 -7 75 q -78 336 -78 239 q -44 508 -78 428 q 50 649 -10 589 q 192 746 110 710 q 369 785 274 782 m 61 936 q 99 1010 72 976 q 159 1065 125 1043 q 233 1092 193 1086 q 310 1085 272 1099 l 308 1085 q 396 1063 354 1074 q 478 1040 438 1051 q 549 1001 517 1026 q 601 942 581 975 q 628 869 622 908 q 622 792 635 831 l 622 793 q 585 718 611 751 q 524 664 558 685 q 449 637 489 643 q 369 643 408 631 q 288 666 329 654 q 206 689 246 678 q 133 725 165 699 q 81 785 100 751 q 55 859 61 819 q 61 936 49 899 z "},"ó":{"ha":728,"x_min":-78,"x_max":817,"o":"m 369 785 q 541 749 460 785 q 683 653 622 714 q 781 511 744 593 q 817 336 817 429 q 782 163 817 244 q 687 22 747 82 q 544 -74 626 -39 q 369 -110 463 -110 q 196 -76 278 -110 q 53 16 114 -43 q -42 157 -7 75 q -78 336 -78 239 q -44 508 -78 428 q 50 649 -10 589 q 192 746 110 710 q 369 785 274 782 m 681 940 q 686 860 693 900 q 659 786 679 819 q 608 728 639 753 q 538 693 576 703 q 468 673 496 681 q 422 660 440 665 q 392 653 404 656 q 369 647 379 650 q 289 642 329 635 q 214 671 249 650 q 154 724 179 692 q 119 796 129 757 q 113 874 107 835 q 138 947 118 913 q 190 1006 158 981 q 263 1044 222 1032 l 432 1089 q 510 1094 471 1100 q 585 1068 550 1088 q 644 1016 619 1049 q 681 940 669 983 z "},"ô":{"ha":728,"x_min":-78,"x_max":817,"o":"m 369 785 q 541 749 460 785 q 683 653 622 714 q 781 511 744 593 q 817 336 817 429 q 782 163 817 244 q 687 22 747 82 q 544 -74 626 -39 q 369 -110 463 -110 q 196 -76 278 -110 q 53 16 114 -43 q -42 157 -7 75 q -78 336 -78 239 q -44 508 -78 428 q 50 649 -10 589 q 192 746 110 710 q 369 785 274 782 m 329 664 q 263 619 300 633 q 185 604 225 604 q 108 620 146 604 q 42 667 71 636 q -1 736 13 699 q -11 812 -14 774 q 8 887 -8 850 q 56 953 25 924 l 222 1119 q 290 1165 253 1150 q 365 1181 326 1181 q 440 1166 404 1181 q 508 1124 476 1151 l 692 954 q 740 887 722 924 q 760 811 757 850 q 751 734 764 772 q 706 664 738 696 q 640 619 676 635 q 565 603 603 604 q 490 617 528 603 q 422 660 453 631 l 422 658 q 396 683 408 671 q 371 706 383 694 l 329 664 z "},"õ":{"ha":728,"x_min":-78,"x_max":817,"o":"m 369 785 q 541 749 460 785 q 683 653 622 714 q 781 511 744 593 q 817 336 817 429 q 782 163 817 244 q 687 22 747 82 q 544 -74 626 -39 q 369 -110 463 -110 q 196 -76 278 -110 q 53 16 114 -43 q -42 157 -7 75 q -78 336 -78 239 q -44 508 -78 428 q 50 649 -10 589 q 192 746 110 710 q 369 785 274 782 m 460 1061 q 592 1114 517 1114 q 640 1108 615 1114 q 690 1088 664 1103 q 767 1015 739 1060 q 794 911 794 969 q 763 800 794 857 q 560 644 692 678 q 486 635 522 635 q 386 647 433 635 q 303 683 339 660 l 281 694 q 146 643 225 643 q 98 649 122 643 q 47 669 74 654 q -28 743 -1 699 q -56 846 -56 788 q -49 901 -56 874 q -25 957 -42 928 q 94 1078 21 1036 q 253 1121 167 1121 q 350 1108 301 1121 q 433 1075 399 1094 l 460 1061 z "},"ö":{"ha":728,"x_min":-78,"x_max":817,"o":"m 369 785 q 541 749 460 785 q 683 653 622 714 q 781 511 744 593 q 817 336 817 429 q 782 163 817 244 q 687 22 747 82 q 544 -74 626 -39 q 369 -110 463 -110 q 196 -76 278 -110 q 53 16 114 -43 q -42 157 -7 75 q -78 336 -78 239 q -44 508 -78 428 q 50 649 -10 589 q 192 746 110 710 q 369 785 274 782 m 443 872 q 427 793 443 831 q 383 727 411 756 q 317 683 356 699 q 236 667 279 667 q 157 683 194 667 q 92 727 119 699 q 48 793 64 756 q 32 872 32 831 q 48 951 32 914 q 92 1017 64 989 q 157 1062 119 1046 q 236 1078 194 1078 q 317 1062 279 1078 q 383 1017 356 1046 q 427 951 411 989 q 443 872 443 914 m 711 872 q 695 793 711 831 q 651 727 679 756 q 585 683 624 699 q 504 667 547 667 q 425 683 463 667 q 360 727 388 699 q 316 793 332 756 q 300 872 300 831 q 316 951 300 914 q 360 1017 332 989 q 425 1062 388 1046 q 504 1078 463 1078 q 585 1062 547 1078 q 651 1017 624 1046 q 695 951 679 989 q 711 872 711 914 z "},"ù":{"ha":731,"x_min":-71,"x_max":826,"o":"m 131 785 q 208 769 171 785 q 272 725 244 753 q 317 660 300 697 q 333 581 333 622 l 333 336 q 347 305 333 318 q 378 292 360 292 q 408 302 394 292 q 421 329 421 313 l 421 582 q 436 656 421 619 q 478 720 451 692 q 542 766 506 749 q 619 785 578 783 q 698 768 661 785 q 763 724 735 751 q 808 660 792 696 q 826 588 825 625 l 826 336 q 791 163 826 244 q 695 20 756 81 q 553 -76 635 -40 q 378 -111 471 -111 q 208 -79 289 -114 q 65 16 126 -44 q -34 156 3 76 q -71 326 -71 236 l -71 582 q -56 659 -71 622 q -14 723 -40 696 q 49 767 13 750 q 126 785 85 783 l 131 785 m 68 936 q 106 1010 79 976 q 166 1065 132 1043 q 240 1092 200 1086 q 317 1085 279 1099 l 315 1085 q 403 1063 361 1074 q 485 1040 444 1051 q 556 1001 524 1026 q 608 942 588 975 q 635 869 629 908 q 629 792 642 831 l 629 793 q 592 718 618 751 q 531 664 565 685 q 456 637 496 643 q 376 643 415 631 q 294 666 336 654 q 213 689 253 678 q 140 725 172 699 q 88 785 107 751 q 62 859 68 819 q 68 936 56 899 z "},"ú":{"ha":731,"x_min":-71,"x_max":826,"o":"m 131 785 q 208 769 171 785 q 272 725 244 753 q 317 660 300 697 q 333 581 333 622 l 333 336 q 347 305 333 318 q 378 292 360 292 q 408 302 394 292 q 421 329 421 313 l 421 582 q 436 656 421 619 q 478 720 451 692 q 542 766 506 749 q 619 785 578 783 q 698 768 661 785 q 763 724 735 751 q 808 660 792 696 q 826 588 825 625 l 826 336 q 791 163 826 244 q 695 20 756 81 q 553 -76 635 -40 q 378 -111 471 -111 q 208 -79 289 -114 q 65 16 126 -44 q -34 156 3 76 q -71 326 -71 236 l -71 582 q -56 659 -71 622 q -14 723 -40 696 q 49 767 13 750 q 126 785 85 783 l 131 785 m 686 936 q 692 856 699 896 q 665 782 685 815 q 613 724 644 749 q 543 689 582 699 q 474 669 501 676 q 428 656 446 661 q 397 649 410 651 q 375 643 385 646 q 294 638 335 631 q 219 667 254 646 q 160 720 185 688 q 125 792 135 753 q 118 869 113 831 q 144 942 124 908 q 196 1002 164 976 q 268 1040 228 1028 l 438 1085 q 516 1090 476 1096 q 590 1064 556 1083 q 650 1012 625 1044 q 686 936 675 979 z "},"û":{"ha":731,"x_min":-71,"x_max":826,"o":"m 131 785 q 208 769 171 785 q 272 725 244 753 q 317 660 300 697 q 333 581 333 622 l 333 336 q 347 305 333 318 q 378 292 360 292 q 408 302 394 292 q 421 329 421 313 l 421 582 q 436 656 421 619 q 478 720 451 692 q 542 766 506 749 q 619 785 578 783 q 698 768 661 785 q 763 724 735 751 q 808 660 792 696 q 826 588 825 625 l 826 336 q 791 163 826 244 q 695 20 756 81 q 553 -76 635 -40 q 378 -111 471 -111 q 208 -79 289 -114 q 65 16 126 -44 q -34 156 3 76 q -71 326 -71 236 l -71 582 q -56 659 -71 622 q -14 723 -40 696 q 49 767 13 750 q 126 785 85 783 l 131 785 m 336 664 q 269 619 307 633 q 192 604 232 604 q 115 620 153 604 q 49 667 78 636 q 6 736 19 699 q -4 812 -7 774 q 15 887 -1 850 q 63 953 32 924 l 229 1119 q 297 1165 260 1150 q 372 1181 333 1181 q 447 1166 411 1181 q 515 1124 483 1151 l 699 954 q 747 887 729 924 q 767 811 764 850 q 758 734 771 772 q 713 664 744 696 q 647 619 683 635 q 572 603 610 604 q 497 617 535 603 q 429 660 460 631 l 429 658 q 403 683 415 671 q 378 706 390 694 l 336 664 z "},"ü":{"ha":731,"x_min":-71,"x_max":826,"o":"m 131 785 q 208 769 171 785 q 272 725 244 753 q 317 660 300 697 q 333 581 333 622 l 333 336 q 347 305 333 318 q 378 292 360 292 q 408 302 394 292 q 421 329 421 313 l 421 582 q 436 656 421 619 q 478 720 451 692 q 542 766 506 749 q 619 785 578 783 q 698 768 661 785 q 763 724 735 751 q 808 660 792 696 q 826 588 825 625 l 826 336 q 791 163 826 244 q 695 20 756 81 q 553 -76 635 -40 q 378 -111 471 -111 q 208 -79 289 -114 q 65 16 126 -44 q -34 156 3 76 q -71 326 -71 236 l -71 582 q -56 659 -71 622 q -14 723 -40 696 q 49 767 13 750 q 126 785 85 783 l 131 785 m 451 871 q 435 792 451 829 q 392 726 419 754 q 326 681 364 697 q 244 665 288 665 q 165 681 203 665 q 100 726 128 697 q 56 792 72 754 q 40 871 40 829 q 56 950 40 913 q 100 1016 72 988 q 165 1060 128 1044 q 244 1076 203 1076 q 326 1060 288 1076 q 392 1016 364 1044 q 435 950 419 988 q 451 871 451 913 m 719 871 q 703 792 719 829 q 660 726 688 754 q 594 681 632 697 q 513 665 556 665 q 433 681 471 665 q 368 726 396 697 q 324 792 340 754 q 308 871 308 829 q 324 950 308 913 q 368 1016 340 988 q 433 1060 396 1044 q 513 1076 471 1076 q 594 1060 556 1076 q 660 1016 632 1044 q 703 950 688 988 q 719 871 719 913 z "},"ý":{"ha":731,"x_min":-92,"x_max":806,"o":"m 110 785 q 184 770 147 785 q 249 730 221 756 q 295 668 278 704 q 313 589 313 632 l 313 338 q 325 307 313 319 q 357 294 338 294 q 388 305 374 294 q 401 331 401 315 l 401 585 q 417 663 401 626 q 459 726 432 699 q 523 769 486 753 q 603 785 560 785 q 680 769 643 785 q 744 728 717 754 q 789 667 772 703 q 806 589 806 631 l 806 -125 q 789 -203 806 -167 q 744 -265 772 -239 q 680 -307 717 -292 q 603 -322 643 -322 q 528 -308 565 -322 q 464 -267 492 -293 q 419 -203 436 -240 q 401 -121 401 -167 l 401 -108 q 379 -110 390 -110 q 357 -110 368 -110 q 185 -75 267 -110 q 42 21 103 -40 q -56 165 -19 82 q -92 347 -92 249 l -92 585 q -76 663 -92 626 q -34 726 -61 699 q 30 769 -7 753 q 110 785 67 785 m 668 936 q 674 856 681 896 q 647 782 667 815 q 595 724 626 749 q 525 689 564 699 q 456 669 483 676 q 410 656 428 661 q 379 649 392 651 q 357 643 367 646 q 276 638 317 631 q 201 667 236 646 q 142 720 167 688 q 107 792 117 753 q 100 869 94 831 q 126 942 106 908 q 178 1002 146 976 q 250 1040 210 1028 l 419 1085 q 498 1090 458 1096 q 572 1064 538 1083 q 632 1012 607 1044 q 668 936 657 979 z "},"ÿ":{"ha":731,"x_min":-92,"x_max":806,"o":"m 110 785 q 184 770 147 785 q 249 730 221 756 q 295 668 278 704 q 313 589 313 632 l 313 338 q 325 307 313 319 q 357 294 338 294 q 388 305 374 294 q 401 331 401 315 l 401 585 q 417 663 401 626 q 459 726 432 699 q 523 769 486 753 q 603 785 560 785 q 680 769 643 785 q 744 728 717 754 q 789 667 772 703 q 806 589 806 631 l 806 -125 q 789 -203 806 -167 q 744 -265 772 -239 q 680 -307 717 -292 q 603 -322 643 -322 q 528 -308 565 -322 q 464 -267 492 -293 q 419 -203 436 -240 q 401 -121 401 -167 l 401 -108 q 379 -110 390 -110 q 357 -110 368 -110 q 185 -75 267 -110 q 42 21 103 -40 q -56 165 -19 82 q -92 347 -92 249 l -92 585 q -76 663 -92 626 q -34 726 -61 699 q 30 769 -7 753 q 110 785 67 785 m 432 871 q 416 792 432 829 q 372 726 400 754 q 306 681 344 697 q 225 665 268 665 q 146 681 183 665 q 81 726 108 697 q 37 792 53 754 q 21 871 21 829 q 37 950 21 913 q 81 1016 53 988 q 146 1060 108 1044 q 225 1076 183 1076 q 306 1060 268 1076 q 372 1016 344 1044 q 416 950 400 988 q 432 871 432 913 m 700 871 q 684 792 700 829 q 640 726 668 754 q 574 681 613 697 q 493 665 536 665 q 414 681 451 665 q 349 726 376 697 q 305 792 321 754 q 289 871 289 829 q 305 950 289 913 q 349 1016 321 988 q 414 1060 376 1044 q 493 1076 451 1076 q 574 1060 536 1076 q 640 1016 613 1044 q 684 950 668 988 q 700 871 700 913 z "},"C":{"ha":719,"x_min":-74,"x_max":797,"o":"m 593 414 q 672 398 635 414 q 736 355 708 382 q 781 290 764 328 q 797 208 797 251 q 758 78 797 136 q 659 -22 719 19 q 527 -87 599 -64 q 389 -111 456 -111 l 376 -111 q 204 -78 286 -111 q 60 14 122 -44 q -37 152 -1 72 q -74 325 -74 232 l -74 551 q -40 725 -74 643 q 53 867 -7 807 q 196 963 114 928 q 376 999 278 999 q 513 977 439 999 q 649 915 586 956 q 755 813 713 874 q 797 676 797 753 q 781 597 797 635 q 737 531 765 560 q 671 487 708 503 q 592 471 633 471 q 482 501 522 471 q 413 578 442 532 q 397 592 408 588 q 375 596 386 596 q 343 585 356 596 q 331 558 331 574 l 331 332 q 344 303 329 315 q 378 292 358 292 q 414 310 403 292 q 442 351 428 332 q 477 385 457 371 q 525 406 497 399 q 593 414 553 414 z "},"D":{"ha":753,"x_min":-62,"x_max":825,"o":"m 397 999 q 558 965 481 999 q 694 875 635 932 q 789 740 753 818 q 825 572 825 661 l 825 315 q 790 153 825 231 q 697 17 756 76 q 561 -76 639 -42 q 397 -111 483 -111 l 143 -111 q 65 -95 101 -111 q -1 -52 28 -79 q -46 13 -29 -25 q -62 94 -62 50 l -62 793 q -47 869 -62 832 q -3 935 -31 907 q 61 981 24 964 q 143 999 99 999 l 397 999 z "},"E":{"ha":678,"x_min":-62,"x_max":743,"o":"m 650 447 q 631 362 650 401 q 581 294 613 322 q 644 267 615 286 q 696 222 674 249 q 731 163 718 196 q 743 94 743 131 q 727 13 743 50 q 683 -52 711 -25 q 618 -95 656 -79 q 539 -111 581 -111 l 142 -111 q 65 -95 101 -111 q 0 -52 28 -79 q -45 13 -28 -25 q -62 94 -62 50 l -62 793 q -47 869 -62 832 q -5 935 -32 907 q 60 981 22 964 q 142 999 97 999 l 539 999 q 618 983 581 999 q 683 938 656 967 q 727 872 711 910 q 743 793 743 835 q 699 663 743 715 q 586 594 654 610 q 633 528 615 567 q 650 447 650 490 z "},"F":{"ha":643,"x_min":-62,"x_max":744,"o":"m 540 589 q 619 514 588 565 q 651 399 651 463 q 636 319 651 357 q 594 254 621 282 q 529 210 567 226 q 447 194 492 194 l 349 194 l 349 94 q 333 13 349 50 q 290 -52 317 -25 q 224 -95 263 -79 q 143 -111 186 -111 q 61 -95 99 -111 q -3 -52 24 -79 q -47 13 -31 -25 q -62 94 -62 50 l -62 793 q -47 869 -62 832 q -3 935 -31 907 q 61 981 24 964 q 143 999 99 999 l 540 999 q 619 983 582 999 q 685 938 657 967 q 728 872 713 910 q 744 793 744 835 q 728 711 744 749 q 685 647 713 674 q 619 604 657 619 q 540 589 582 589 z "},"H":{"ha":776,"x_min":-62,"x_max":839,"o":"m 632 997 q 708 982 671 997 q 775 940 746 967 q 822 875 804 913 q 839 793 839 838 l 839 93 q 822 16 839 53 q 776 -49 804 -21 q 710 -94 747 -76 q 632 -111 672 -111 q 558 -95 594 -111 q 494 -51 522 -79 q 449 14 467 -24 q 432 93 432 51 l 432 210 l 351 210 l 351 93 q 335 14 351 51 q 292 -51 319 -24 q 226 -95 264 -79 q 147 -111 189 -111 q 64 -96 101 -111 q -1 -54 26 -81 q -45 9 -29 -28 q -62 90 -61 46 l -62 793 q -45 878 -62 840 q 1 942 -28 915 q 69 983 31 968 q 147 997 107 997 q 226 981 189 997 q 292 936 264 964 q 335 872 319 908 q 351 793 351 835 l 351 621 l 432 621 l 432 793 q 449 872 432 835 q 494 936 467 908 q 558 981 522 964 q 632 997 594 997 z "},"I":{"ha":283,"x_min":-64,"x_max":344,"o":"m 142 997 q 220 981 183 997 q 285 936 257 964 q 328 872 313 908 q 344 793 344 835 l 344 93 q 328 14 344 51 q 285 -51 313 -24 q 220 -95 257 -79 q 142 -111 183 -111 q 60 -95 97 -111 q -5 -51 22 -79 q -48 14 -32 -24 q -64 93 -64 51 l -64 793 q -48 872 -64 835 q -5 936 -32 908 q 60 981 22 964 q 142 997 97 997 z "},"J":{"ha":460,"x_min":-100,"x_max":531,"o":"m 324 997 q 405 981 367 997 q 471 936 443 964 q 515 872 499 908 q 531 793 531 835 l 531 313 q 494 149 528 225 q 404 15 461 72 q 270 -76 347 -42 q 103 -111 193 -110 q 24 -96 61 -111 q -40 -53 -12 -81 q -84 11 -68 -26 q -100 93 -100 49 q -84 172 -100 135 q -40 238 -68 210 q 24 283 -12 267 q 103 299 61 299 q 122 315 122 299 l 122 793 q 138 872 122 835 q 181 936 154 908 q 245 981 208 964 q 324 997 282 997 z "},"K":{"ha":768,"x_min":-62,"x_max":835,"o":"m 785 226 q 823 156 811 193 q 832 81 835 118 q 814 8 829 43 q 772 -56 799 -26 q 703 -96 740 -82 q 628 -111 667 -110 q 554 -99 590 -112 q 488 -58 518 -86 q 415 3 450 -26 q 347 65 379 33 q 324 -4 342 28 q 280 -60 307 -36 q 218 -97 253 -83 q 143 -111 183 -111 q 64 -95 101 -111 q -2 -51 26 -79 q -47 14 -31 -24 q -62 93 -62 51 l -62 793 q -47 872 -62 835 q -2 936 -31 908 q 64 981 26 964 q 143 997 101 997 q 218 983 183 997 q 280 945 253 969 q 324 888 307 921 q 347 819 342 856 q 418 881 383 851 q 488 942 453 910 q 557 984 519 971 q 632 996 594 997 q 706 979 669 994 q 772 936 742 964 q 817 865 801 903 q 831 788 832 826 q 815 712 831 749 q 768 644 799 675 l 539 444 l 785 226 z "},"L":{"ha":671,"x_min":-62,"x_max":775,"o":"m 572 300 q 651 284 614 300 q 715 240 688 268 q 759 175 743 213 q 775 96 775 138 q 759 14 775 51 q 715 -51 743 -24 q 651 -94 688 -78 q 572 -110 614 -110 l 144 -110 q 64 -94 100 -110 q 1 -53 28 -79 q -42 10 -26 -26 q -62 89 -58 46 l -62 794 q -47 874 -62 836 q -3 939 -31 911 q 63 983 25 967 q 144 999 100 999 q 221 983 183 999 q 286 939 258 967 q 331 874 314 911 q 349 794 349 836 l 349 300 l 572 300 z "},"M":{"ha":1028,"x_min":-65,"x_max":1093,"o":"m 701 999 q 850 967 781 999 q 972 883 919 936 q 1057 758 1025 829 q 1093 607 1089 688 l 1093 94 q 1076 13 1093 50 q 1032 -52 1060 -25 q 967 -95 1004 -79 q 889 -111 931 -111 q 774 -78 824 -111 q 700 10 724 -44 q 626 -78 676 -44 q 514 -111 576 -111 q 401 -78 451 -111 q 326 10 350 -44 q 253 -78 303 -44 q 139 -111 204 -111 q 60 -95 97 -111 q -6 -52 22 -79 q -49 13 -33 -25 q -65 94 -65 50 l -65 606 q -35 753 -65 682 q 49 878 -4 824 q 173 966 101 933 q 326 999 244 999 q 425 985 379 999 q 514 949 471 972 q 602 985 557 972 q 701 999 647 999 z "},"N":{"ha":760,"x_min":-68,"x_max":828,"o":"m 381 994 q 551 961 469 994 q 693 869 632 928 q 791 731 754 811 q 828 558 828 651 l 828 90 q 813 13 828 49 q 770 -51 797 -24 q 707 -94 743 -78 q 629 -111 671 -110 q 551 -97 588 -111 q 485 -56 514 -82 q 441 7 457 -29 q 425 86 425 43 l 425 547 q 412 578 425 565 q 379 592 399 592 q 350 581 363 592 q 338 554 338 569 l 338 90 q 321 13 338 50 q 276 -51 304 -24 q 212 -95 249 -79 q 135 -111 175 -111 q 58 -96 94 -111 q -7 -54 21 -81 q -51 8 -35 -28 q -68 86 -68 44 l -68 547 q -32 721 -67 639 q 63 863 3 803 q 203 959 122 924 q 381 994 285 994 z "},"R":{"ha":757,"x_min":-64,"x_max":832,"o":"m 342 63 q 319 -6 336 26 q 274 -61 301 -37 q 213 -98 247 -85 q 140 -111 178 -111 q 61 -95 99 -111 q -4 -51 24 -79 q -48 14 -32 -24 q -64 93 -64 51 l -64 797 q -48 876 -64 839 q -4 942 -32 914 q 61 985 24 969 q 140 1001 99 1001 l 383 1001 q 558 966 476 1001 q 700 869 639 931 q 797 727 761 808 q 832 553 832 646 q 804 394 832 468 q 725 261 776 321 l 746 240 q 789 174 775 211 q 803 97 803 136 q 789 21 803 58 q 747 -47 775 -17 q 681 -94 718 -79 q 603 -110 643 -110 q 526 -94 564 -110 q 457 -50 488 -79 l 342 63 z "},"S":{"ha":704,"x_min":-74,"x_max":778,"o":"m 757 799 q 712 661 757 717 q 592 592 667 606 q 726 457 674 542 q 778 268 778 372 q 749 122 778 190 q 668 3 719 54 q 549 -78 617 -47 q 401 -111 481 -110 l 153 -111 q 69 -95 107 -111 q 5 -52 32 -79 q -37 13 -22 -25 q -53 94 -53 50 q -41 164 -53 131 q -7 224 -29 197 q 46 269 15 250 q 113 294 76 288 q -22 428 29 343 q -74 618 -74 513 q -44 759 -74 690 q 38 881 -14 828 q 158 967 89 935 q 306 999 226 999 l 553 999 q 629 983 593 999 q 692 941 665 968 q 736 878 719 914 q 757 799 753 842 z "},"T":{"ha":728,"x_min":-90,"x_max":818,"o":"m 613 999 q 694 983 656 999 q 759 938 732 967 q 802 872 786 910 q 818 793 818 835 q 802 711 818 749 q 759 647 786 674 q 694 604 732 619 q 613 589 656 589 l 568 589 l 568 94 q 553 13 568 50 q 510 -52 538 -25 q 446 -95 483 -79 q 364 -111 408 -111 q 282 -95 319 -111 q 217 -52 244 -79 q 175 13 190 -25 q 160 94 160 50 l 160 589 l 114 589 q 35 604 72 589 q -31 647 -3 619 q -74 711 -58 674 q -90 793 -90 749 q -74 872 -90 835 q -31 938 -58 910 q 35 983 -3 967 q 114 999 72 999 l 613 999 z "},"U":{"ha":760,"x_min":-68,"x_max":828,"o":"m 381 -107 q 203 -72 285 -107 q 63 24 122 -36 q -32 166 3 85 q -68 339 -67 247 l -68 801 q -51 879 -68 843 q -7 942 -35 915 q 58 983 21 968 q 135 999 94 999 q 212 983 175 999 q 276 939 249 967 q 321 874 304 911 q 338 797 338 838 l 338 333 q 350 307 338 318 q 379 296 363 296 q 412 309 399 296 q 425 340 425 322 l 425 801 q 441 881 425 844 q 485 943 457 917 q 551 984 514 969 q 629 999 588 999 q 707 981 671 997 q 770 938 743 965 q 813 875 797 911 q 828 797 828 839 l 828 329 q 791 156 828 236 q 693 18 754 76 q 551 -74 632 -40 q 381 -107 469 -107 z "},"V":{"ha":821,"x_min":-83,"x_max":904,"o":"m 604 18 l 604 19 q 528 -76 581 -42 q 413 -111 475 -111 q 356 -101 385 -111 q 302 -74 328 -92 q 256 -33 276 -57 q 224 17 236 -10 l -69 718 q -82 797 -83 757 q -66 872 -81 836 q -23 938 -51 908 q 46 983 6 967 q 126 997 85 999 q 203 980 167 996 q 269 935 240 964 q 314 864 299 906 q 364 747 339 803 q 413 635 389 692 q 461 751 438 696 q 508 864 485 807 q 552 934 524 904 q 617 980 581 964 q 694 997 653 996 q 774 983 735 999 q 842 938 814 967 q 886 872 871 908 q 903 797 901 836 q 890 718 904 757 l 604 18 z "},"W":{"ha":1028,"x_min":-65,"x_max":1093,"o":"m 325 -111 q 174 -81 243 -111 q 54 1 106 -51 q -28 124 3 53 q -65 278 -60 194 l -65 793 q -49 872 -65 835 q -6 938 -33 910 q 58 983 21 967 q 138 999 94 999 q 253 964 204 999 q 325 876 301 929 q 398 965 349 931 q 514 1000 447 1000 q 626 965 576 1000 q 700 878 676 931 q 774 965 724 931 q 888 999 825 999 q 966 983 929 999 q 1031 938 1003 967 q 1076 872 1060 910 q 1093 793 1093 835 l 1093 279 q 1060 131 1090 201 q 976 6 1029 60 q 852 -79 924 -47 q 699 -111 781 -111 q 603 -100 650 -111 q 511 -64 556 -89 q 326 -111 428 -108 l 325 -111 z "},"X":{"ha":768,"x_min":-69,"x_max":838,"o":"m 794 210 q 828 135 819 175 q 828 58 836 96 q 799 -15 821 19 q 744 -75 778 -50 q 670 -108 710 -100 q 592 -110 631 -117 q 519 -81 554 -103 q 458 -25 485 -58 l 383 85 q 347 31 367 57 q 310 -22 326 4 q 251 -80 286 -58 q 178 -109 217 -101 q 99 -108 139 -117 q 24 -75 58 -100 l 25 -75 q -30 -14 -8 -49 q -59 59 -51 21 q -60 136 -67 97 q -29 210 -53 175 l 133 443 q 68 537 94 499 q 24 600 42 575 q -5 642 7 625 q -26 674 -17 658 q -61 748 -53 708 q -62 826 -69 788 q -34 899 -56 864 q 22 961 -12 935 q 142 999 78 999 q 235 976 190 999 q 310 910 281 954 l 308 910 q 347 853 329 879 q 383 803 365 828 q 457 911 421 857 q 517 968 482 947 q 590 995 551 989 q 668 993 629 1001 q 743 961 707 985 q 801 899 779 935 q 831 825 824 864 q 828 747 838 786 q 794 674 819 707 l 794 676 q 751 613 769 640 q 714 558 732 585 q 676 504 696 532 q 633 443 657 476 l 794 210 z "},"Y":{"ha":690,"x_min":-86,"x_max":776,"o":"m -86 794 q -70 874 -86 836 q -26 939 -54 911 q 38 983 1 967 q 117 999 75 999 q 198 983 160 999 q 263 939 236 967 q 306 874 290 911 q 322 794 322 836 l 322 671 q 344 649 322 649 q 368 671 368 649 l 368 794 q 384 874 368 836 q 428 939 400 911 q 492 983 456 967 q 571 999 529 999 q 652 983 614 999 q 717 939 690 967 q 760 874 744 911 q 776 794 776 836 l 776 668 q 759 550 776 607 q 712 444 742 493 q 640 356 682 396 q 546 289 597 315 l 546 93 q 530 14 546 51 q 486 -51 514 -24 q 422 -95 458 -79 q 343 -111 385 -111 q 261 -95 299 -111 q 197 -51 224 -79 q 153 14 169 -24 q 138 93 138 51 l 138 293 q -26 446 33 347 q -86 671 -86 544 l -86 794 z "},"Z":{"ha":769,"x_min":-65,"x_max":835,"o":"m 631 299 q 713 282 675 299 q 777 238 750 265 q 819 173 804 210 q 835 94 835 136 q 819 13 835 50 q 777 -52 804 -25 q 713 -95 750 -79 q 631 -111 675 -111 l 138 -111 q 57 -91 93 -108 q -6 -46 21 -74 q -47 17 -32 -18 q -61 93 -61 53 q -53 148 -61 119 q -29 204 -46 176 l 236 589 l 139 589 q 60 604 97 589 q -4 647 24 619 q -49 711 -32 674 q -65 793 -65 749 q -49 872 -65 835 q -4 938 -32 910 q 60 983 24 967 q 139 999 97 999 l 629 999 q 710 980 674 997 q 774 934 747 963 q 817 869 801 906 q 832 792 832 832 q 826 740 832 764 q 811 699 821 715 l 533 299 l 631 299 z "},"À":{"ha":729,"x_min":-68,"x_max":828,"o":"m 381 999 q 551 965 469 999 q 693 874 632 932 q 791 735 754 815 q 828 563 828 656 l 828 94 q 813 17 828 53 q 770 -47 797 -19 q 707 -90 743 -74 q 629 -107 671 -106 q 551 -92 588 -107 q 485 -51 514 -78 q 441 11 457 -25 q 425 90 425 47 l 425 142 l 338 142 l 338 94 q 321 17 338 54 q 276 -47 304 -19 q 212 -91 249 -75 q 135 -107 175 -107 q 58 -92 94 -107 q -7 -50 21 -76 q -51 13 -35 -24 q -68 90 -68 49 l -68 551 q -32 725 -67 643 q 63 867 3 807 q 203 963 122 928 q 381 999 285 999 m 7 1158 q 44 1232 18 1199 q 105 1287 71 1265 q 178 1315 139 1308 q 256 1307 218 1321 l 254 1307 q 342 1285 300 1296 q 424 1263 383 1274 q 494 1223 463 1249 q 547 1164 526 1197 q 574 1092 568 1131 q 568 1014 581 1053 l 568 1015 q 531 940 557 974 q 469 886 504 907 q 394 859 435 865 q 315 865 354 853 q 233 888 275 876 q 151 911 192 900 q 78 947 111 921 q 26 1008 46 974 q 1 1081 7 1042 q 7 1158 -6 1121 z "},"Á":{"ha":729,"x_min":-68,"x_max":828,"o":"m 381 999 q 551 965 469 999 q 693 874 632 932 q 791 735 754 815 q 828 563 828 656 l 828 94 q 813 17 828 53 q 770 -47 797 -19 q 707 -90 743 -74 q 629 -107 671 -106 q 551 -92 588 -107 q 485 -51 514 -78 q 441 11 457 -25 q 425 90 425 47 l 425 142 l 338 142 l 338 94 q 321 17 338 54 q 276 -47 304 -19 q 212 -91 249 -75 q 135 -107 175 -107 q 58 -92 94 -107 q -7 -50 21 -76 q -51 13 -35 -24 q -68 90 -68 49 l -68 551 q -32 725 -67 643 q 63 867 3 807 q 203 963 122 928 q 381 999 285 999 m 735 1158 q 740 1078 747 1118 q 713 1004 733 1038 q 662 946 693 971 q 592 911 631 921 q 522 891 550 899 q 476 878 494 883 q 446 871 458 874 q 424 865 433 868 q 343 860 383 853 q 268 889 303 868 q 208 942 233 910 q 174 1014 183 975 q 167 1092 161 1053 q 192 1165 172 1131 q 244 1224 213 1199 q 317 1263 276 1250 l 486 1307 q 565 1312 525 1318 q 639 1286 604 1306 q 699 1234 674 1267 q 735 1158 724 1201 z "},"Â":{"ha":729,"x_min":-68,"x_max":828,"o":"m 381 999 q 551 965 469 999 q 693 874 632 932 q 791 735 754 815 q 828 563 828 656 l 828 94 q 813 17 828 53 q 770 -47 797 -19 q 707 -90 743 -74 q 629 -107 671 -106 q 551 -92 588 -107 q 485 -51 514 -78 q 441 11 457 -25 q 425 90 425 47 l 425 142 l 338 142 l 338 94 q 321 17 338 54 q 276 -47 304 -19 q 212 -91 249 -75 q 135 -107 175 -107 q 58 -92 94 -107 q -7 -50 21 -76 q -51 13 -35 -24 q -68 90 -68 49 l -68 551 q -32 725 -67 643 q 63 867 3 807 q 203 963 122 928 q 381 999 285 999 m 336 881 q 269 835 307 850 q 192 821 232 821 q 115 837 153 821 q 49 883 78 853 q 6 953 19 915 q -4 1028 -7 990 q 15 1103 -1 1067 q 63 1169 32 1140 l 229 1336 q 297 1382 260 1367 q 372 1397 333 1397 q 447 1383 411 1397 q 515 1340 483 1368 l 699 1171 q 747 1103 729 1140 q 767 1028 764 1067 q 758 951 771 989 q 713 881 744 913 q 647 836 683 851 q 572 820 610 821 q 497 833 535 819 q 429 876 460 847 l 429 875 q 403 899 415 888 q 378 922 390 911 l 336 881 z "},"Ã":{"ha":729,"x_min":-68,"x_max":828,"o":"m 381 999 q 551 965 469 999 q 693 874 632 932 q 791 735 754 815 q 828 563 828 656 l 828 94 q 813 17 828 53 q 770 -47 797 -19 q 707 -90 743 -74 q 629 -107 671 -106 q 551 -92 588 -107 q 485 -51 514 -78 q 441 11 457 -25 q 425 90 425 47 l 425 142 l 338 142 l 338 94 q 321 17 338 54 q 276 -47 304 -19 q 212 -91 249 -75 q 135 -107 175 -107 q 58 -92 94 -107 q -7 -50 21 -76 q -51 13 -35 -24 q -68 90 -68 49 l -68 551 q -32 725 -67 643 q 63 867 3 807 q 203 963 122 928 q 381 999 285 999 m 471 1281 q 603 1333 528 1333 q 651 1328 626 1333 q 701 1307 675 1322 q 778 1234 750 1279 q 806 1131 806 1189 q 774 1019 806 1076 q 571 864 703 897 q 497 854 533 854 q 397 867 444 854 q 314 903 350 879 l 292 914 q 157 863 236 863 q 109 868 133 863 q 58 889 85 874 q -17 963 10 918 q -44 1065 -44 1007 q -37 1120 -44 1093 q -14 1176 -31 1147 q 105 1298 32 1256 q 264 1340 178 1340 q 361 1327 313 1340 q 444 1294 410 1314 l 471 1281 z "},"Ä":{"ha":729,"x_min":-68,"x_max":828,"o":"m 381 999 q 551 965 469 999 q 693 874 632 932 q 791 735 754 815 q 828 563 828 656 l 828 94 q 813 17 828 53 q 770 -47 797 -19 q 707 -90 743 -74 q 629 -107 671 -106 q 551 -92 588 -107 q 485 -51 514 -78 q 441 11 457 -25 q 425 90 425 47 l 425 142 l 338 142 l 338 94 q 321 17 338 54 q 276 -47 304 -19 q 212 -91 249 -75 q 135 -107 175 -107 q 58 -92 94 -107 q -7 -50 21 -76 q -51 13 -35 -24 q -68 90 -68 49 l -68 551 q -32 725 -67 643 q 63 867 3 807 q 203 963 122 928 q 381 999 285 999 m 454 1090 q 438 1011 454 1049 q 394 945 422 974 q 328 901 367 917 q 247 885 290 885 q 168 901 206 885 q 103 945 131 917 q 59 1011 75 974 q 43 1090 43 1049 q 59 1169 43 1132 q 103 1235 75 1207 q 168 1280 131 1264 q 247 1296 206 1296 q 328 1280 290 1296 q 394 1235 367 1264 q 438 1169 422 1207 q 454 1090 454 1132 m 722 1090 q 706 1011 722 1049 q 663 945 690 974 q 597 901 635 917 q 515 885 558 885 q 436 901 474 885 q 371 945 399 917 q 327 1011 343 974 q 311 1090 311 1049 q 327 1169 311 1132 q 371 1235 343 1207 q 436 1280 399 1264 q 515 1296 474 1296 q 597 1280 558 1296 q 663 1235 635 1264 q 706 1169 690 1207 q 722 1090 722 1132 z "},"È":{"ha":639,"x_min":-62,"x_max":743,"o":"m 650 447 q 631 362 650 401 q 581 294 613 322 q 644 267 615 286 q 696 222 674 249 q 731 163 718 196 q 743 94 743 131 q 727 13 743 50 q 683 -52 711 -25 q 618 -95 656 -79 q 539 -111 581 -111 l 142 -111 q 65 -95 101 -111 q 0 -52 28 -79 q -45 13 -28 -25 q -62 94 -62 50 l -62 793 q -47 869 -62 832 q -5 935 -32 907 q 60 981 22 964 q 142 999 97 999 l 539 999 q 618 983 581 999 q 683 938 656 967 q 727 872 711 910 q 743 793 743 835 q 699 663 743 715 q 586 594 654 610 q 633 528 615 567 q 650 447 650 490 m -32 1158 q 6 1232 -21 1199 q 66 1287 32 1265 q 140 1315 100 1308 q 217 1307 179 1321 l 215 1307 q 303 1285 261 1296 q 385 1263 344 1274 q 456 1223 424 1249 q 508 1164 488 1197 q 535 1092 529 1131 q 529 1014 542 1053 l 529 1015 q 492 940 518 974 q 431 886 465 907 q 356 859 396 865 q 276 865 315 853 q 194 888 236 876 q 113 911 153 900 q 40 947 72 921 q -12 1008 7 974 q -38 1081 -32 1042 q -32 1158 -44 1121 z "},"É":{"ha":639,"x_min":-62,"x_max":743,"o":"m 650 447 q 631 362 650 401 q 581 294 613 322 q 644 267 615 286 q 696 222 674 249 q 731 163 718 196 q 743 94 743 131 q 727 13 743 50 q 683 -52 711 -25 q 618 -95 656 -79 q 539 -111 581 -111 l 142 -111 q 65 -95 101 -111 q 0 -52 28 -79 q -45 13 -28 -25 q -62 94 -62 50 l -62 793 q -47 869 -62 832 q -5 935 -32 907 q 60 981 22 964 q 142 999 97 999 l 539 999 q 618 983 581 999 q 683 938 656 967 q 727 872 711 910 q 743 793 743 835 q 699 663 743 715 q 586 594 654 610 q 633 528 615 567 q 650 447 650 490 m 715 1157 q 721 1076 728 1117 q 694 1003 714 1036 q 642 944 674 969 q 572 910 611 919 q 503 890 531 897 q 457 877 475 882 q 426 869 439 872 q 404 864 414 867 q 324 859 364 851 q 249 888 283 867 q 189 941 214 908 q 154 1013 164 974 q 147 1090 142 1051 q 173 1163 153 1129 q 225 1223 193 1197 q 297 1261 257 1249 l 467 1306 q 545 1310 506 1317 q 619 1285 585 1304 q 679 1233 654 1265 q 715 1157 704 1200 z "},"Ê":{"ha":639,"x_min":-71,"x_max":743,"o":"m 650 447 q 631 362 650 401 q 581 294 613 322 q 644 267 615 286 q 696 222 674 249 q 731 163 718 196 q 743 94 743 131 q 727 13 743 50 q 683 -52 711 -25 q 618 -95 656 -79 q 539 -111 581 -111 l 142 -111 q 65 -95 101 -111 q 0 -52 28 -79 q -45 13 -28 -25 q -62 94 -62 50 l -62 793 q -47 869 -62 832 q -5 935 -32 907 q 60 981 22 964 q 142 999 97 999 l 539 999 q 618 983 581 999 q 683 938 656 967 q 727 872 711 910 q 743 793 743 835 q 699 663 743 715 q 586 594 654 610 q 633 528 615 567 q 650 447 650 490 m 272 881 q 206 835 243 850 q 128 821 168 821 q 51 837 89 821 q -15 883 14 853 q -58 953 -44 915 q -68 1028 -71 990 q -49 1103 -65 1067 q -1 1169 -32 1140 l 165 1336 q 233 1382 196 1367 q 308 1397 269 1397 q 383 1383 347 1397 q 451 1340 419 1368 l 635 1171 q 683 1103 665 1140 q 703 1028 700 1067 q 694 951 707 989 q 649 881 681 913 q 583 836 619 851 q 508 820 546 821 q 433 833 471 819 q 365 876 396 847 l 365 875 q 339 899 351 888 q 314 922 326 911 l 272 881 z "},"Ë":{"ha":639,"x_min":-62,"x_max":743,"o":"m 650 447 q 631 362 650 401 q 581 294 613 322 q 644 267 615 286 q 696 222 674 249 q 731 163 718 196 q 743 94 743 131 q 727 13 743 50 q 683 -52 711 -25 q 618 -95 656 -79 q 539 -111 581 -111 l 142 -111 q 65 -95 101 -111 q 0 -52 28 -79 q -45 13 -28 -25 q -62 94 -62 50 l -62 793 q -47 869 -62 832 q -5 935 -32 907 q 60 981 22 964 q 142 999 97 999 l 539 999 q 618 983 581 999 q 683 938 656 967 q 727 872 711 910 q 743 793 743 835 q 699 663 743 715 q 586 594 654 610 q 633 528 615 567 q 650 447 650 490 m 414 1093 q 398 1014 414 1051 q 354 948 382 976 q 288 903 326 919 q 207 888 250 888 q 128 903 165 888 q 63 948 90 919 q 19 1014 35 976 q 3 1093 3 1051 q 19 1172 3 1135 q 63 1238 35 1210 q 128 1283 90 1267 q 207 1299 165 1299 q 288 1283 250 1299 q 354 1238 326 1267 q 398 1172 382 1210 q 414 1093 414 1135 m 682 1093 q 666 1014 682 1051 q 622 948 650 976 q 556 903 594 919 q 475 888 518 888 q 396 903 433 888 q 331 948 358 919 q 287 1014 303 976 q 271 1093 271 1051 q 287 1172 271 1135 q 331 1238 303 1210 q 396 1283 358 1267 q 475 1299 433 1299 q 556 1283 518 1299 q 622 1238 594 1267 q 666 1172 650 1210 q 682 1093 682 1135 z "},"Ì":{"ha":368,"x_min":-149,"x_max":438,"o":"m 197 997 q 276 981 239 997 q 340 936 313 964 q 384 872 368 908 q 400 793 400 835 l 400 93 q 384 14 400 51 q 340 -51 368 -24 q 276 -95 313 -79 q 197 -111 239 -111 q 115 -95 153 -111 q 51 -51 78 -79 q 8 14 24 -24 q -8 93 -8 51 l -8 793 q 8 872 -8 835 q 51 936 24 908 q 115 981 78 964 q 197 997 153 997 m -136 1156 q -99 1229 -125 1196 q -38 1284 -72 1263 q 35 1312 -4 1306 q 113 1304 75 1318 l 111 1304 q 199 1282 157 1293 q 281 1260 240 1271 q 351 1220 319 1246 q 404 1161 383 1194 q 431 1089 425 1128 q 425 1011 438 1050 l 425 1013 q 388 938 414 971 q 326 883 361 904 q 251 856 292 863 q 172 863 211 850 q 90 885 132 874 q 8 908 49 897 q -65 944 -32 918 q -117 1005 -97 971 q -142 1078 -136 1039 q -136 1156 -149 1118 z "},"Í":{"ha":368,"x_min":-42,"x_max":544,"o":"m 200 997 q 278 981 242 997 q 343 936 315 964 q 387 872 371 908 q 403 793 403 835 l 403 93 q 387 14 403 51 q 343 -51 371 -24 q 278 -95 315 -79 q 200 -111 242 -111 q 118 -95 156 -111 q 53 -51 81 -79 q 10 14 26 -24 q -6 93 -6 51 l -6 793 q 10 872 -6 835 q 53 936 26 908 q 118 981 81 964 q 200 997 156 997 m 532 1156 q 538 1075 544 1115 q 510 1001 531 1035 q 459 943 490 968 q 389 908 428 918 q 319 888 347 896 q 274 876 292 881 q 243 868 256 871 q 221 863 231 865 q 140 858 181 850 q 65 886 100 865 q 6 940 31 907 q -29 1011 -19 972 q -36 1089 -42 1050 q -10 1162 -31 1128 q 42 1222 10 1196 q 114 1260 74 1247 l 283 1304 q 362 1309 322 1315 q 436 1283 401 1303 q 496 1231 471 1264 q 532 1156 521 1199 z "},"Î":{"ha":479,"x_min":-133,"x_max":644,"o":"m 254 997 q 333 981 296 997 q 397 936 369 964 q 441 872 425 908 q 457 793 457 835 l 457 93 q 441 14 457 51 q 397 -51 425 -24 q 333 -95 369 -79 q 254 -111 296 -111 q 172 -95 210 -111 q 108 -51 135 -79 q 65 14 81 -24 q 49 93 49 51 l 49 793 q 65 872 49 835 q 108 936 81 908 q 172 981 135 964 q 254 997 210 997 m 210 881 q 143 835 181 850 q 66 821 106 821 q -11 837 26 821 q -78 883 -49 853 q -120 953 -107 915 q -131 1028 -133 990 q -111 1103 -128 1067 q -64 1169 -94 1140 l 103 1336 q 170 1382 133 1367 q 246 1397 207 1397 q 321 1383 285 1397 q 389 1340 357 1368 l 572 1171 q 620 1103 603 1140 q 641 1028 638 1067 q 631 951 644 989 q 586 881 618 913 q 520 836 557 851 q 446 820 483 821 q 371 833 408 819 q 303 876 333 847 l 303 875 q 276 899 289 888 q 251 922 264 911 l 210 881 z "},"Ï":{"ha":513,"x_min":-68,"x_max":611,"o":"m 271 997 q 349 981 313 997 q 414 936 386 964 q 458 872 442 908 q 474 793 474 835 l 474 93 q 458 14 474 51 q 414 -51 442 -24 q 349 -95 386 -79 q 271 -111 313 -111 q 189 -95 226 -111 q 124 -51 151 -79 q 81 14 97 -24 q 65 93 65 51 l 65 793 q 81 872 65 835 q 124 936 97 908 q 189 981 151 964 q 271 997 226 997 m 343 1092 q 327 1013 343 1050 q 283 947 311 975 q 217 902 256 918 q 136 886 179 886 q 57 902 94 886 q -8 947 19 918 q -52 1013 -36 975 q -68 1092 -68 1050 q -52 1171 -68 1133 q -8 1237 -36 1208 q 57 1281 19 1265 q 136 1297 94 1297 q 217 1281 179 1297 q 283 1237 256 1265 q 327 1171 311 1208 q 343 1092 343 1133 m 611 1092 q 595 1013 611 1050 q 551 947 579 975 q 485 902 524 918 q 404 886 447 886 q 325 902 363 886 q 260 947 288 918 q 216 1013 232 975 q 200 1092 200 1050 q 216 1171 200 1133 q 260 1237 232 1208 q 325 1281 288 1265 q 404 1297 363 1297 q 485 1281 447 1297 q 551 1237 524 1265 q 595 1171 579 1208 q 611 1092 611 1133 z "},"Ù":{"ha":729,"x_min":-68,"x_max":828,"o":"m 381 -107 q 203 -72 285 -107 q 63 24 122 -36 q -32 166 3 85 q -68 339 -67 247 l -68 801 q -51 879 -68 843 q -7 942 -35 915 q 58 983 21 968 q 135 999 94 999 q 212 983 175 999 q 276 939 249 967 q 321 874 304 911 q 338 797 338 838 l 338 333 q 350 307 338 318 q 379 296 363 296 q 412 309 399 296 q 425 340 425 322 l 425 801 q 441 881 425 844 q 485 943 457 917 q 551 984 514 969 q 629 999 588 999 q 707 981 671 997 q 770 938 743 965 q 813 875 797 911 q 828 797 828 839 l 828 329 q 791 156 828 236 q 693 18 754 76 q 551 -74 632 -40 q 381 -107 469 -107 m 74 1158 q 111 1232 85 1199 q 172 1287 138 1265 q 245 1315 206 1308 q 322 1307 285 1321 l 321 1307 q 408 1285 367 1296 q 490 1263 450 1274 q 561 1223 529 1249 q 614 1164 593 1197 q 641 1092 635 1131 q 635 1014 647 1053 l 635 1015 q 597 940 624 974 q 536 886 571 907 q 461 859 501 865 q 382 865 421 853 q 300 888 342 876 q 218 911 258 900 q 145 947 178 921 q 93 1008 113 974 q 67 1081 74 1042 q 74 1158 61 1121 z "},"Ú":{"ha":729,"x_min":-68,"x_max":828,"o":"m 381 -107 q 203 -72 285 -107 q 63 24 122 -36 q -32 166 3 85 q -68 339 -67 247 l -68 801 q -51 879 -68 843 q -7 942 -35 915 q 58 983 21 968 q 135 999 94 999 q 212 983 175 999 q 276 939 249 967 q 321 874 304 911 q 338 797 338 838 l 338 333 q 350 307 338 318 q 379 296 363 296 q 412 309 399 296 q 425 340 425 322 l 425 801 q 441 881 425 844 q 485 943 457 917 q 551 984 514 969 q 629 999 588 999 q 707 981 671 997 q 770 938 743 965 q 813 875 797 911 q 828 797 828 839 l 828 329 q 791 156 828 236 q 693 18 754 76 q 551 -74 632 -40 q 381 -107 469 -107 m 689 1157 q 694 1076 701 1117 q 667 1003 688 1036 q 616 944 647 969 q 546 910 585 919 q 476 890 504 897 q 431 877 449 882 q 400 869 413 872 q 378 864 388 867 q 297 859 338 851 q 222 888 257 867 q 163 941 188 908 q 128 1013 138 974 q 121 1090 115 1051 q 147 1163 126 1129 q 199 1223 167 1197 q 271 1261 231 1249 l 440 1306 q 519 1310 479 1317 q 593 1285 558 1304 q 653 1233 628 1265 q 689 1157 678 1200 z "},"Û":{"ha":729,"x_min":-68,"x_max":828,"o":"m 381 -107 q 203 -72 285 -107 q 63 24 122 -36 q -32 166 3 85 q -68 339 -67 247 l -68 801 q -51 879 -68 843 q -7 942 -35 915 q 58 983 21 968 q 135 999 94 999 q 212 983 175 999 q 276 939 249 967 q 321 874 304 911 q 338 797 338 838 l 338 333 q 350 307 338 318 q 379 296 363 296 q 412 309 399 296 q 425 340 425 322 l 425 801 q 441 881 425 844 q 485 943 457 917 q 551 984 514 969 q 629 999 588 999 q 707 981 671 997 q 770 938 743 965 q 813 875 797 911 q 828 797 828 839 l 828 329 q 791 156 828 236 q 693 18 754 76 q 551 -74 632 -40 q 381 -107 469 -107 m 340 881 q 274 835 311 850 q 197 821 236 821 q 119 837 157 821 q 53 883 82 853 q 10 953 24 915 q 0 1028 -3 990 q 19 1103 3 1067 q 67 1169 36 1140 l 233 1336 q 301 1382 264 1367 q 376 1397 338 1397 q 451 1383 415 1397 q 519 1340 488 1368 l 703 1171 q 751 1103 733 1140 q 772 1028 768 1067 q 762 951 775 989 q 717 881 749 913 q 651 836 688 851 q 576 820 614 821 q 501 833 539 819 q 433 876 464 847 l 433 875 q 407 899 419 888 q 382 922 394 911 l 340 881 z "},"Ü":{"ha":729,"x_min":-68,"x_max":828,"o":"m 381 -107 q 203 -72 285 -107 q 63 24 122 -36 q -32 166 3 85 q -68 339 -67 247 l -68 801 q -51 879 -68 843 q -7 942 -35 915 q 58 983 21 968 q 135 999 94 999 q 212 983 175 999 q 276 939 249 967 q 321 874 304 911 q 338 797 338 838 l 338 333 q 350 307 338 318 q 379 296 363 296 q 412 309 399 296 q 425 340 425 322 l 425 801 q 441 881 425 844 q 485 943 457 917 q 551 984 514 969 q 629 999 588 999 q 707 981 671 997 q 770 938 743 965 q 813 875 797 911 q 828 797 828 839 l 828 329 q 791 156 828 236 q 693 18 754 76 q 551 -74 632 -40 q 381 -107 469 -107 m 451 1092 q 435 1013 451 1050 q 392 947 419 975 q 326 902 364 918 q 244 886 288 886 q 165 902 203 886 q 100 947 128 918 q 56 1013 72 975 q 40 1092 40 1050 q 56 1171 40 1133 q 100 1237 72 1208 q 165 1281 128 1265 q 244 1297 203 1297 q 326 1281 288 1297 q 392 1237 364 1265 q 435 1171 419 1208 q 451 1092 451 1133 m 719 1092 q 703 1013 719 1050 q 660 947 688 975 q 594 902 632 918 q 513 886 556 886 q 433 902 471 886 q 368 947 396 918 q 324 1013 340 975 q 308 1092 308 1050 q 324 1171 308 1133 q 368 1237 340 1208 q 433 1281 396 1265 q 513 1297 471 1297 q 594 1281 556 1297 q 660 1237 632 1265 q 703 1171 688 1208 q 719 1092 719 1133 z "},"ä":{"ha":729,"x_min":-82,"x_max":818,"o":"m 818 336 l 818 90 q 801 12 818 49 q 756 -52 783 -25 q 691 -95 728 -79 q 617 -111 654 -111 q 518 -85 561 -111 q 445 -106 482 -100 q 371 -111 408 -111 q 239 -91 301 -111 q 124 -35 176 -71 q 29 49 71 0 q -39 157 -12 99 q -77 304 -72 229 q -62 449 -82 379 q -3 579 -43 518 q 94 685 38 640 q 222 757 151 731 q 371 783 292 783 q 548 746 467 783 q 689 646 629 708 q 783 503 749 583 q 818 336 817 422 m 443 874 q 427 794 443 832 q 383 728 411 757 q 317 684 356 700 q 236 668 279 668 q 157 684 194 668 q 92 728 119 700 q 48 794 64 757 q 32 874 32 832 q 48 953 32 915 q 92 1019 64 990 q 157 1063 119 1047 q 236 1079 194 1079 q 317 1063 279 1079 q 383 1019 356 1047 q 427 953 411 990 q 443 874 443 915 m 711 874 q 695 794 711 832 q 651 728 679 757 q 585 684 624 700 q 504 668 547 668 q 425 684 463 668 q 360 728 388 700 q 316 794 332 757 q 300 874 300 832 q 316 953 300 915 q 360 1019 332 990 q 425 1063 388 1047 q 504 1079 463 1079 q 585 1063 547 1079 q 651 1019 624 1047 q 695 953 679 990 q 711 874 711 915 z "},"ñ":{"ha":729,"x_min":-71,"x_max":825,"o":"m 378 788 q 548 754 467 788 q 690 663 629 721 q 788 524 751 604 q 825 351 825 444 l 825 94 q 810 17 825 53 q 767 -47 794 -19 q 704 -90 740 -74 q 626 -107 668 -106 q 548 -92 585 -107 q 483 -51 511 -78 q 438 11 454 -25 q 422 90 422 47 l 422 340 q 409 372 422 358 q 376 385 396 385 q 347 374 360 385 q 335 347 335 363 l 335 94 q 318 17 335 54 q 274 -47 301 -19 q 209 -91 246 -75 q 132 -107 172 -107 q 55 -92 92 -107 q -10 -50 18 -76 q -54 13 -37 -24 q -71 90 -71 49 l -71 340 q -35 514 -69 432 q 60 656 0 596 q 201 752 119 717 q 378 788 282 788 m 469 1064 q 601 1117 526 1117 q 649 1111 625 1117 q 700 1090 674 1106 q 776 1017 749 1063 q 804 914 804 972 q 772 803 804 860 q 569 647 701 681 q 496 638 532 638 q 396 650 443 638 q 313 686 349 663 l 290 697 q 156 646 235 646 q 108 651 132 646 q 57 672 83 657 q -19 746 8 701 q -46 849 -46 790 q -39 903 -46 876 q -15 960 -32 931 q 103 1081 31 1039 q 263 1124 176 1124 q 360 1110 311 1124 q 443 1078 408 1097 l 469 1064 z "},"Ý":{"ha":735,"x_min":-86,"x_max":776,"o":"m -86 794 q -70 874 -86 836 q -26 939 -54 911 q 38 983 1 967 q 117 999 75 999 q 198 983 160 999 q 263 939 236 967 q 306 874 290 911 q 322 794 322 836 l 322 671 q 344 649 322 649 q 368 671 368 649 l 368 794 q 384 874 368 836 q 428 939 400 911 q 492 983 456 967 q 571 999 529 999 q 652 983 614 999 q 717 939 690 967 q 760 874 744 911 q 776 794 776 836 l 776 668 q 759 550 776 607 q 712 444 742 493 q 640 356 682 396 q 546 289 597 315 l 546 93 q 530 14 546 51 q 486 -51 514 -24 q 422 -95 458 -79 q 343 -111 385 -111 q 261 -95 299 -111 q 197 -51 224 -79 q 153 14 169 -24 q 138 93 138 51 l 138 293 q -26 446 33 347 q -86 671 -86 544 l -86 794 m 674 1156 q 679 1075 686 1115 q 652 1001 672 1035 q 601 943 632 968 q 531 908 569 918 q 461 888 489 896 q 415 876 433 881 q 385 868 397 871 q 363 863 372 865 q 282 858 322 850 q 207 886 242 865 q 147 940 172 907 q 113 1011 122 972 q 106 1089 100 1050 q 131 1162 111 1128 q 183 1222 151 1196 q 256 1260 215 1247 l 425 1304 q 503 1309 464 1315 q 578 1283 543 1303 q 638 1231 613 1264 q 674 1156 663 1199 z "},"Ñ":{"ha":729,"x_min":-68,"x_max":828,"o":"m 381 994 q 551 961 469 994 q 693 869 632 928 q 791 731 754 811 q 828 558 828 651 l 828 90 q 813 13 828 49 q 770 -51 797 -24 q 707 -94 743 -78 q 629 -111 671 -110 q 551 -97 588 -111 q 485 -56 514 -82 q 441 7 457 -29 q 425 86 425 43 l 425 547 q 412 578 425 565 q 379 592 399 592 q 350 581 363 592 q 338 554 338 569 l 338 90 q 321 13 338 50 q 276 -51 304 -24 q 212 -95 249 -79 q 135 -111 175 -111 q 58 -96 94 -111 q -7 -54 21 -81 q -51 8 -35 -28 q -68 86 -68 44 l -68 547 q -32 721 -67 639 q 63 863 3 803 q 203 959 122 924 q 381 994 285 994 m 468 1279 q 600 1332 525 1332 q 648 1326 624 1332 q 699 1306 672 1321 q 775 1233 747 1278 q 803 1129 803 1188 q 771 1018 803 1075 q 568 863 700 896 q 494 853 531 853 q 394 865 442 853 q 311 901 347 878 l 289 913 q 154 861 233 861 q 106 867 131 861 q 56 888 82 872 q -20 961 7 917 q -47 1064 -47 1006 q -40 1119 -47 1092 q -17 1175 -33 1146 q 102 1297 29 1254 q 261 1339 175 1339 q 358 1326 310 1339 q 442 1293 407 1313 l 468 1279 z "},"~":{"ha":717,"x_min":-67,"x_max":783,"o":"m 447 597 q 556 649 492 642 q 679 624 621 656 q 756 551 728 596 q 783 447 783 506 q 754 338 783 389 q 681 251 725 288 q 581 192 636 214 q 475 171 526 171 q 422 174 450 171 q 365 185 393 178 q 313 203 338 192 q 269 231 288 214 q 158 181 222 188 q 36 206 94 174 q -40 279 -12 235 q -67 382 -67 324 q -40 490 -67 440 q 31 578 -12 540 q 130 637 75 615 q 239 658 185 658 q 447 597 335 658 z "},"¥":{"ha":732,"x_min":-83,"x_max":825,"o":"m 739 429 q 707 319 739 368 q 731 268 722 296 q 739 211 739 240 q 724 135 739 171 q 684 73 710 100 q 624 29 658 46 q 550 10 589 13 q 477 -77 526 -43 q 365 -111 428 -111 q 253 -77 303 -111 q 181 10 204 -43 q 106 29 140 13 q 47 73 72 46 q 6 135 21 100 q -8 211 -8 171 q 22 321 -8 274 q -1 371 7 344 q -8 429 -8 397 q 35 554 -8 500 q -8 615 11 586 q -46 674 -28 644 q -76 748 -68 708 q -77 825 -83 788 q -50 897 -71 863 q 6 957 -29 931 q 81 990 40 983 q 160 989 121 997 q 234 958 199 981 q 294 900 269 935 l 367 800 l 435 903 q 494 963 460 940 q 569 992 529 985 q 648 990 608 999 q 721 957 688 982 q 808 827 792 899 q 771 675 825 756 l 696 553 q 727 495 715 526 q 739 429 739 464 z "},"€":{"ha":751,"x_min":-85,"x_max":828,"o":"m 624 414 q 702 398 665 414 q 767 355 739 382 q 811 290 794 328 q 828 208 828 251 q 819 153 828 179 q 796 101 811 128 q 728 14 768 53 q 641 -53 689 -25 q 539 -96 593 -81 q 428 -111 485 -111 q 309 -93 367 -111 q 201 -43 251 -75 q 111 33 151 -11 q 43 131 71 78 q -50 201 -15 153 q -85 317 -85 250 q -46 432 -85 381 q -74 490 -64 458 q -85 553 -85 521 q -51 664 -85 615 q 36 735 -18 713 q 101 840 61 792 q 191 923 140 888 q 301 978 242 958 q 428 997 361 997 q 640 939 540 997 q 797 781 739 881 q 818 733 808 763 q 828 676 828 704 q 812 597 828 635 q 767 531 796 560 q 701 487 739 503 q 622 471 664 471 q 570 476 592 471 q 528 492 549 481 q 517 462 524 475 q 500 435 510 449 q 513 415 508 424 q 522 393 518 406 q 565 409 542 404 q 624 414 588 414 z "},"#":{"ha":824,"x_min":-86,"x_max":910,"o":"m 910 568 q 885 470 910 515 q 821 397 860 425 q 830 363 826 382 q 833 326 833 343 q 819 251 833 286 q 781 188 806 215 q 722 142 756 160 q 650 121 689 125 q 639 87 644 106 q 622 32 633 68 q 590 -24 610 1 q 543 -69 569 -50 q 485 -99 517 -87 q 422 -110 454 -110 q 354 -97 386 -110 q 296 -64 322 -83 q 236 -97 268 -85 q 171 -110 204 -110 q 93 -93 129 -110 q 29 -48 57 -76 q -15 17 1 -19 q -31 92 -31 53 q -24 133 -31 115 q -14 169 -18 150 q -66 240 -46 199 q -86 326 -86 281 q -63 424 -86 379 q 1 496 -40 468 q -10 568 -10 528 q 4 642 -10 607 q 42 703 18 676 q 100 748 67 731 q 174 769 133 765 q 204 857 186 815 q 249 930 222 899 q 313 980 276 961 q 401 999 350 999 q 522 957 472 999 q 581 990 550 981 q 647 1000 611 1000 q 745 975 701 1000 q 816 910 789 950 q 851 819 843 869 q 842 719 858 769 q 910 568 910 663 z "},"£":{"ha":738,"x_min":-82,"x_max":828,"o":"m 503 357 q 494 297 503 324 l 624 297 q 703 281 665 297 q 768 236 740 264 q 812 172 796 208 q 828 93 828 135 q 812 14 828 51 q 768 -51 796 -24 q 703 -95 740 -79 q 624 -111 665 -111 l 213 -111 q 131 -95 168 -111 q 66 -52 93 -79 q 23 13 39 -25 q 7 94 7 50 l 7 183 q -82 351 -75 236 q -58 453 -82 407 q 7 526 -33 499 l 7 638 q 35 772 7 707 q 110 888 63 838 q 222 968 158 938 q 360 999 286 999 q 507 949 449 999 q 572 799 565 899 q 531 669 572 724 q 415 599 489 615 l 415 524 q 477 452 453 496 q 503 357 501 408 z "},"Ÿ":{"ha":735,"x_min":-86,"x_max":776,"o":"m -86 794 q -70 874 -86 836 q -26 939 -54 911 q 38 983 1 967 q 117 999 75 999 q 198 983 160 999 q 263 939 236 967 q 306 874 290 911 q 322 794 322 836 l 322 671 q 344 649 322 649 q 368 671 368 649 l 368 794 q 384 874 368 836 q 428 939 400 911 q 492 983 456 967 q 571 999 529 999 q 652 983 614 999 q 717 939 690 967 q 760 874 744 911 q 776 794 776 836 l 776 668 q 759 550 776 607 q 712 444 742 493 q 640 356 682 396 q 546 289 597 315 l 546 93 q 530 14 546 51 q 486 -51 514 -24 q 422 -95 458 -79 q 343 -111 385 -111 q 261 -95 299 -111 q 197 -51 224 -79 q 153 14 169 -24 q 138 93 138 51 l 138 293 q -26 446 33 347 q -86 671 -86 544 l -86 794 m 417 1092 q 401 1013 417 1050 q 357 947 385 975 q 291 902 329 918 q 210 886 253 886 q 131 902 168 886 q 65 947 93 918 q 22 1013 38 975 q 6 1092 6 1050 q 22 1171 6 1133 q 65 1237 38 1208 q 131 1281 93 1265 q 210 1297 168 1297 q 291 1281 253 1297 q 357 1237 329 1265 q 401 1171 385 1208 q 417 1092 417 1133 m 685 1092 q 669 1013 685 1050 q 625 947 653 975 q 559 902 597 918 q 478 886 521 886 q 399 902 436 886 q 333 947 361 918 q 290 1013 306 975 q 274 1092 274 1050 q 290 1171 274 1133 q 333 1237 306 1208 q 399 1281 361 1265 q 478 1297 436 1297 q 559 1281 521 1297 q 625 1237 597 1265 q 669 1171 653 1208 q 685 1092 685 1133 z "},"@":{"ha":1014,"x_min":-78,"x_max":1108,"o":"m 510 997 q 685 968 599 997 q 844 888 771 939 q 975 766 918 836 q 1065 614 1032 696 q 1103 442 1099 532 q 1076 260 1108 351 q 983 126 1049 181 q 833 54 918 71 q 798 -69 833 -18 q 700 -147 763 -121 q 510 -178 614 -178 q 282 -131 389 -178 q 95 -5 175 -85 q -31 182 15 75 q -78 410 -78 289 q -31 638 -78 531 q 95 824 15 744 q 282 951 175 904 q 510 997 389 997 z "},"–":{"ha":626,"x_min":-68,"x_max":694,"o":"m 694 418 q 678 339 694 376 q 635 273 663 301 q 569 228 607 244 q 490 213 532 213 l 136 213 q 54 228 92 213 q -10 273 17 244 q -53 339 -37 301 q -68 418 -68 376 q -53 499 -68 461 q -10 565 -37 538 q 54 608 17 592 q 136 624 92 624 l 490 624 q 569 608 532 624 q 635 565 607 592 q 678 499 663 538 q 694 418 694 461 z "},"—":{"ha":740,"x_min":-67,"x_max":807,"o":"m 807 418 q 791 339 807 376 q 747 273 775 301 q 682 228 719 244 q 603 213 644 213 l 138 213 q 56 228 93 213 q -9 273 18 244 q -51 339 -36 301 q -67 418 -67 376 q -51 499 -67 461 q -9 565 -36 538 q 56 608 18 592 q 138 624 93 624 l 603 624 q 682 608 644 624 q 747 565 719 592 q 791 499 775 538 q 807 418 807 461 z "},"_":{"ha":740,"x_min":-67,"x_max":807,"o":"m 807 96 q 791 17 807 54 q 747 -49 775 -21 q 682 -94 719 -78 q 603 -110 644 -110 l 138 -110 q 56 -94 93 -110 q -9 -49 18 -78 q -51 17 -36 -21 q -67 96 -67 54 q -51 177 -67 139 q -9 242 -36 215 q 56 285 18 269 q 138 301 93 301 l 603 301 q 682 285 644 301 q 747 242 719 269 q 791 177 775 215 q 807 96 807 139 z "},"¢":{"ha":638,"x_min":-92,"x_max":726,"o":"m 344 931 q 421 915 385 931 q 485 874 457 900 q 531 813 513 849 q 553 739 549 778 q 617 699 586 721 q 673 649 649 676 q 712 590 697 622 q 726 518 726 557 q 692 410 726 457 q 610 338 658 363 q 694 263 663 313 q 726 156 726 213 q 711 83 726 117 q 671 22 696 50 q 615 -28 646 -6 q 554 -65 585 -50 q 536 -146 553 -108 q 491 -212 519 -183 q 425 -256 463 -240 q 344 -272 388 -272 q 263 -256 301 -272 q 197 -210 225 -239 q 153 -144 169 -182 q 136 -62 136 -106 q 44 13 86 -31 q -28 106 1 56 q -75 215 -58 157 q -92 336 -92 274 q -75 456 -92 399 q -28 562 -58 513 q 44 652 1 611 q 136 722 86 693 q 153 803 136 765 q 197 869 169 842 q 263 914 225 897 q 344 931 301 931 z "},"¦":{"ha":283,"x_min":-64,"x_max":344,"o":"m 142 997 q 220 981 183 997 q 285 936 257 964 q 328 872 313 908 q 344 793 344 835 l 344 -122 q 328 -201 344 -164 q 285 -267 313 -239 q 220 -310 257 -294 q 142 -326 183 -326 q 60 -310 97 -326 q -5 -267 22 -294 q -48 -201 -32 -239 q -64 -122 -64 -164 l -64 793 q -48 872 -64 835 q -5 936 -32 908 q 60 981 22 964 q 142 997 97 997 z "},"œ":{"ha":1221,"x_min":-78,"x_max":1310,"o":"m 369 799 q 541 763 460 799 q 683 667 622 728 q 781 525 744 607 q 817 350 817 443 q 782 177 817 258 q 687 35 747 96 q 544 -60 626 -25 q 369 -96 463 -96 q 196 -62 278 -96 q 53 30 114 -29 q -42 171 -7 89 q -78 350 -78 253 q -44 522 -78 442 q 50 663 -10 603 q 192 760 110 724 q 369 799 274 796 m 861 783 q 1031 747 950 783 q 1174 647 1113 710 q 1273 504 1236 585 q 1310 336 1310 424 q 1273 219 1310 265 q 1174 156 1236 172 q 1178 117 1178 135 q 1147 11 1178 54 q 1069 -59 1117 -32 q 967 -99 1022 -86 q 863 -111 913 -111 q 691 -78 772 -114 q 548 21 610 -42 q 450 165 486 83 q 414 336 414 246 q 450 504 414 424 q 547 647 486 585 q 690 746 608 708 q 861 783 771 783 z "},"æ":{"ha":1206,"x_min":-97,"x_max":1294,"o":"m 803 336 l 803 90 q 785 12 803 49 q 740 -52 768 -25 q 676 -95 713 -79 q 601 -111 639 -111 q 503 -85 546 -111 q 430 -106 467 -100 q 356 -111 393 -111 q 224 -91 286 -111 q 108 -35 161 -71 q 14 49 56 0 q -54 157 -28 99 q -92 304 -87 229 q -78 449 -97 379 q -18 579 -58 518 q 79 685 22 640 q 206 757 136 731 q 356 783 276 783 q 533 746 451 783 q 674 646 614 708 q 767 503 733 583 q 803 336 801 422 m 846 783 q 1016 747 935 783 q 1159 647 1097 710 q 1258 504 1221 585 q 1294 336 1294 424 q 1258 219 1294 265 q 1158 156 1221 172 q 1163 117 1163 135 q 1132 11 1163 54 q 1054 -59 1101 -32 q 952 -99 1007 -86 q 847 -111 897 -111 q 676 -78 757 -114 q 533 21 594 -42 q 435 165 471 83 q 399 336 399 246 q 435 504 399 424 q 532 647 471 585 q 674 746 593 708 q 846 783 756 783 z "},"Ð":{"ha":817,"x_min":-81,"x_max":888,"o":"m 460 999 q 620 965 543 999 q 756 875 697 932 q 851 740 815 818 q 888 572 888 661 l 888 315 q 853 153 888 231 q 760 17 818 76 q 624 -76 701 -42 q 460 -111 546 -111 l 222 -111 q 147 -95 183 -111 q 83 -51 111 -79 q 37 13 54 -24 q 17 92 19 50 l 15 242 q -54 317 -28 269 q -81 418 -81 364 q 17 594 -81 539 l 17 793 q 33 869 17 832 q 76 935 49 907 q 140 981 103 964 q 222 999 178 999 l 460 999 z "},"Æ":{"ha":1129,"x_min":-67,"x_max":1233,"o":"m 382 997 q 552 964 471 997 q 694 872 633 931 q 792 734 756 814 q 829 561 829 654 l 829 93 q 814 15 829 51 q 772 -48 799 -21 q 708 -91 744 -75 q 631 -108 672 -107 q 552 -94 589 -108 q 487 -53 515 -79 q 442 10 458 -26 q 426 89 426 46 l 426 140 l 339 140 l 339 93 q 322 16 339 53 q 278 -49 306 -21 q 213 -92 250 -76 q 136 -108 176 -108 q 59 -93 96 -108 q -6 -51 22 -78 q -50 11 -33 -25 q -67 89 -67 47 l -67 550 q -31 724 -65 642 q 64 866 4 806 q 205 962 124 926 q 382 997 286 997 m 1140 447 q 1122 362 1140 401 q 1071 294 1103 322 q 1135 267 1106 286 q 1186 222 1164 249 q 1221 163 1208 196 q 1233 94 1233 131 q 1217 13 1233 50 q 1174 -52 1201 -25 q 1108 -95 1146 -79 q 1029 -111 1071 -111 l 632 -111 q 555 -95 592 -111 q 490 -52 518 -79 q 445 13 463 -25 q 428 94 428 50 l 428 793 q 443 869 428 832 q 485 935 458 907 q 550 981 513 964 q 632 999 588 999 l 1029 999 q 1108 983 1071 999 q 1174 938 1146 967 q 1217 872 1201 910 q 1233 793 1233 835 q 1189 663 1233 715 q 1076 594 1144 610 q 1123 528 1106 567 q 1140 447 1140 490 z "},"÷":{"ha":568,"x_min":72,"x_max":483,"o":"m 460 401 l 111 401 l 111 435 l 460 435 l 460 401 m 483 176 q 467 97 483 135 q 424 31 451 60 q 358 -13 396 3 q 276 -29 319 -29 q 197 -13 235 -29 q 132 31 160 3 q 88 97 104 60 q 72 176 72 135 q 88 256 72 218 q 132 322 104 293 q 197 366 160 350 q 276 382 235 382 q 358 366 319 382 q 424 322 396 350 q 467 256 451 293 q 483 176 483 218 m 483 661 q 467 582 483 619 q 424 516 451 544 q 358 472 396 488 q 276 456 319 456 q 197 472 235 456 q 132 516 160 488 q 88 582 104 544 q 72 661 72 619 q 88 740 72 703 q 132 806 104 778 q 197 851 160 835 q 276 867 235 867 q 358 851 319 867 q 424 806 396 835 q 467 740 451 778 q 483 661 483 703 z "},"µ":{"ha":743,"x_min":-62,"x_max":835,"o":"m 633 785 q 713 769 676 785 q 777 726 750 753 q 819 663 804 699 q 835 585 835 626 l 835 347 q 799 165 835 249 q 701 21 763 82 q 558 -75 639 -40 q 386 -110 476 -110 q 363 -110 374 -110 q 342 -108 353 -110 l 342 -121 q 324 -203 342 -167 q 279 -267 307 -240 q 215 -308 251 -293 q 140 -322 178 -322 q 63 -307 100 -322 q -1 -265 26 -292 q -46 -203 -29 -239 q -62 -125 -62 -167 l -62 589 q -46 667 -62 631 q -1 728 -29 703 q 63 769 26 754 q 140 785 100 785 q 220 769 183 785 q 284 726 257 753 q 326 663 311 699 q 342 585 342 626 l 342 331 q 356 305 342 315 q 386 294 369 294 q 418 307 406 294 q 431 338 431 319 l 431 589 q 448 668 431 632 q 494 730 465 704 q 559 770 522 756 q 633 785 596 785 z "},"×":{"ha":704,"x_min":-67,"x_max":772,"o":"m 432 696 q 498 740 463 725 q 570 754 533 754 q 643 740 607 754 q 711 696 679 725 q 756 630 740 667 q 771 555 771 593 q 757 480 771 517 q 714 413 743 443 l 638 336 l 713 260 q 757 194 742 231 q 772 119 772 157 q 758 43 772 81 q 713 -25 743 6 q 646 -69 682 -56 q 572 -83 610 -83 q 496 -66 533 -82 q 428 -21 458 -50 q 392 15 407 -1 q 354 51 376 31 l 274 -31 q 207 -69 243 -56 q 133 -83 171 -83 q 60 -69 96 -83 q -6 -25 24 -54 q -49 40 -35 4 q -65 114 -64 76 q -52 188 -65 151 q -11 256 -39 225 l 71 336 l -8 415 q -53 480 -39 444 q -65 551 -67 515 q -50 624 -64 588 q -10 690 -36 660 q 133 756 57 757 q 276 696 210 754 l 351 619 l 432 696 z "},"•":{"ha":357,"x_min":-76,"x_max":435,"o":"m 178 82 q 78 102 125 82 q -2 156 32 122 q -56 237 -36 190 q -76 336 -76 283 q -55 437 -76 390 q 3 518 -33 483 q 84 572 39 553 q 178 592 129 592 q 284 568 236 592 q 365 508 332 544 q 417 426 399 471 q 435 336 435 381 q 415 237 435 283 q 359 156 394 190 q 277 102 324 122 q 178 82 231 82 z "},"·":{"ha":257,"x_min":-76,"x_max":335,"o":"m 335 338 q 319 258 335 296 q 275 192 303 221 q 209 148 247 164 q 128 132 171 132 q 49 148 86 132 q -17 192 11 164 q -60 258 -44 221 q -76 338 -76 296 q -60 417 -76 379 q -17 483 -44 454 q 49 527 11 511 q 128 543 86 543 q 209 527 171 543 q 275 483 247 511 q 319 417 303 454 q 335 338 335 379 z "}," ":{"ha":313,"x_min":0,"x_max":0,"o":""},"¼":{"ha":1147,"x_min":-97,"x_max":1238,"o":"m 231 999 q 312 982 274 999 q 378 938 350 965 q 422 873 406 910 q 438 794 438 836 l 438 438 q 422 358 438 396 q 378 293 406 321 q 312 249 350 265 q 231 233 274 233 q 151 249 189 233 q 86 293 114 265 q 42 358 58 321 q 26 438 26 396 l 26 482 q -63 558 -29 507 q -97 669 -97 608 q -83 745 -97 708 q -36 814 -68 782 l 86 938 q 153 983 117 967 q 231 999 190 999 m 1238 94 q 1213 -1 1238 44 q 1150 -74 1188 -46 l 1150 -96 q 1134 -159 1150 -125 q 1090 -221 1118 -193 q 1024 -267 1063 -249 q 943 -286 986 -286 q 869 -269 904 -286 q 806 -227 833 -253 q 763 -171 779 -201 q 742 -111 746 -140 l 715 -111 q 636 -95 674 -111 q 571 -50 599 -79 q 527 19 543 -21 q 511 107 511 60 l 618 506 q 666 571 638 542 q 728 617 694 600 q 800 638 763 635 q 876 625 838 642 q 929 592 904 613 q 973 544 954 571 q 1003 489 992 518 q 1014 429 1014 460 q 1007 379 1014 407 q 1079 340 1047 367 q 1129 274 1111 313 q 1207 200 1176 247 q 1238 94 1238 153 m 819 733 l 597 31 q 525 -65 569 -33 q 431 -104 481 -97 q 333 -94 381 -111 q 250 -43 285 -78 q 201 42 215 -8 q 206 154 186 93 l 429 856 q 493 951 450 919 q 585 990 536 983 q 685 981 635 997 q 771 929 735 964 q 822 844 807 894 q 819 733 838 793 z "},"½":{"ha":1108,"x_min":-86,"x_max":1193,"o":"m 242 1000 q 323 983 285 1000 q 389 939 361 967 q 433 874 417 911 q 449 796 449 838 l 449 439 q 433 360 449 397 q 389 294 417 322 q 323 251 361 267 q 242 235 285 235 q 163 251 200 235 q 97 294 125 267 q 53 360 69 322 q 38 439 38 397 l 38 483 q 5 501 21 490 q -24 524 -11 513 q -70 592 -54 554 q -86 669 -86 629 q -72 746 -86 708 q -25 815 -57 783 l 97 939 q 165 984 128 968 q 242 1000 201 1000 m 556 97 q 569 160 556 126 q 610 226 582 193 l 628 244 q 578 313 597 274 q 560 397 560 353 q 589 501 560 454 q 663 582 618 549 q 763 633 708 615 q 867 651 817 651 l 892 651 q 1006 628 951 651 q 1099 564 1060 604 q 1163 470 1139 524 q 1186 358 1186 417 q 1151 219 1186 281 q 1193 96 1193 165 q 1176 17 1193 54 q 1131 -49 1160 -21 q 1066 -94 1103 -78 q 988 -111 1029 -111 l 757 -111 q 674 -94 711 -111 q 610 -47 636 -76 q 569 19 583 -18 q 556 97 556 57 m 817 733 l 594 31 q 522 -65 567 -33 q 428 -104 478 -97 q 330 -94 378 -111 q 247 -43 282 -78 q 198 42 213 -8 q 203 154 183 93 l 426 856 q 490 951 447 919 q 583 990 533 983 q 682 981 632 997 q 768 929 732 964 q 819 844 804 894 q 817 733 835 793 z "},"¾":{"ha":1138,"x_min":-96,"x_max":1228,"o":"m -96 494 q -53 618 -96 565 q -96 742 -96 671 q -83 812 -96 779 q -50 872 -71 844 q -2 922 -29 900 q 56 961 25 944 q 211 999 135 999 l 236 999 q 350 976 296 999 q 444 914 404 953 q 507 824 483 875 q 531 717 531 772 q 526 660 531 682 q 511 618 522 639 q 526 575 522 597 q 531 519 531 553 q 507 412 531 463 q 444 322 483 361 q 350 260 404 283 q 236 238 296 238 q 117 252 176 236 q 10 300 57 268 q -67 381 -37 332 q -96 494 -96 429 m 1228 94 q 1203 -1 1228 44 q 1140 -74 1178 -46 l 1140 -96 q 1124 -159 1140 -125 q 1081 -221 1108 -193 q 1015 -267 1053 -249 q 933 -286 976 -286 q 859 -269 894 -286 q 797 -227 824 -253 q 753 -171 769 -201 q 732 -111 736 -140 l 706 -111 q 626 -95 664 -111 q 561 -50 589 -79 q 517 19 533 -21 q 501 107 501 60 l 608 506 q 656 571 628 542 q 719 617 685 600 q 790 638 753 635 q 867 625 828 642 q 919 592 894 613 q 963 544 944 571 q 993 489 982 518 q 1004 429 1004 460 q 997 379 1004 407 q 1069 340 1038 367 q 1119 274 1101 313 q 1197 200 1167 247 q 1228 94 1228 153 m 850 733 l 628 31 q 556 -65 600 -33 q 461 -104 511 -97 q 363 -94 411 -111 q 281 -43 315 -78 q 231 42 246 -8 q 236 154 217 93 l 460 856 q 524 951 481 919 q 616 990 567 983 q 715 981 665 997 q 801 929 765 964 q 853 844 838 894 q 850 733 869 793 z "},"»":{"ha":911,"x_min":-65,"x_max":994,"o":"m 503 331 q 453 387 479 357 q 404 440 426 417 q 363 508 376 471 q 351 584 350 546 q 366 658 351 622 q 408 722 381 694 q 478 769 440 754 q 556 783 517 783 q 632 767 594 782 q 699 725 669 751 l 939 469 q 981 401 968 438 q 994 328 994 364 q 980 252 994 289 q 933 183 965 215 l 697 -51 q 626 -95 664 -81 q 549 -110 588 -110 q 476 -95 511 -110 q 413 -53 440 -81 l 413 -54 q 366 15 381 -24 q 351 92 351 53 q 366 168 351 131 q 408 236 381 206 l 503 331 m 90 331 q 40 387 67 357 q -8 440 14 417 q -51 508 -37 471 q -65 584 -65 546 q -49 658 -64 622 q -4 724 -33 694 q 66 770 28 756 q 144 784 104 785 q 220 768 183 783 q 286 724 257 753 l 524 471 q 582 328 582 404 q 567 252 582 289 q 521 185 551 215 l 285 -51 q 213 -95 251 -81 q 138 -109 175 -110 q 64 -94 100 -108 q -1 -53 28 -81 l -1 -54 q -48 15 -33 -24 q -62 92 -62 53 q -48 168 -62 131 q -4 236 -33 206 l 90 331 z "},"¹":{"ha":372,"x_min":-99,"x_max":436,"o":"m 229 1000 q 310 983 272 1000 q 376 939 349 967 q 420 874 404 911 q 436 796 436 838 l 436 439 q 420 360 436 397 q 376 294 404 322 q 310 251 349 267 q 229 235 272 235 q 150 251 188 235 q 85 294 113 267 q 41 360 57 322 q 25 439 25 397 l 25 483 q -65 559 -31 508 q -99 671 -99 610 q -84 747 -99 710 q -37 815 -69 783 l 85 939 q 152 984 115 968 q 229 1000 189 1000 z "},"¸":{"ha":326,"x_min":-85,"x_max":419,"o":"m 168 -403 q 65 -381 111 -403 q -15 -323 18 -360 q -67 -240 -49 -286 q -85 -143 -85 -193 q -67 -78 -82 -107 q -29 -31 -53 -50 l -29 101 q -17 151 -29 125 q 15 201 -6 178 q 65 238 36 224 q 128 253 93 253 q 192 238 163 253 q 242 201 221 224 q 274 151 263 178 q 286 101 286 125 l 286 72 q 332 40 313 58 q 369 0 351 21 q 406 -71 393 -32 q 419 -151 419 -110 q 399 -249 419 -204 q 345 -329 379 -294 q 265 -383 311 -364 q 168 -403 219 -403 z "},"Þ":{"ha":729,"x_min":-62,"x_max":833,"o":"m 146 1000 q 226 983 189 1000 q 289 938 263 967 q 331 872 315 910 q 346 790 346 833 l 346 -87 q 331 -169 346 -131 q 289 -235 315 -207 q 226 -281 263 -264 q 146 -297 189 -297 q 65 -281 103 -297 q -1 -235 26 -264 q -46 -169 -29 -207 q -62 -87 -62 -131 l -62 790 q -46 872 -62 833 q -1 938 -29 910 q 65 983 26 967 q 146 1000 103 1000 m -62 801 q -44 874 -62 839 q 2 938 -26 910 q 67 982 31 965 q 140 997 103 999 q 217 981 181 999 q 281 935 253 964 q 325 870 308 907 q 342 794 342 833 l 342 782 q 363 783 353 783 q 385 783 374 783 q 551 751 469 783 q 703 654 633 718 q 801 510 769 586 q 833 336 833 435 q 797 163 833 244 q 700 20 761 81 q 558 -76 639 -40 q 386 -111 476 -111 q 216 -75 297 -111 q 73 22 135 -39 q -26 165 11 83 q -62 336 -62 246 l -62 801 z "},"ß":{"ha":675,"x_min":-68,"x_max":747,"o":"m 364 999 q 515 969 444 999 q 636 889 585 940 q 717 769 688 838 q 747 621 747 700 q 735 527 747 572 q 704 443 724 482 q 735 358 724 403 q 747 268 747 314 q 718 120 747 189 q 638 -1 689 51 q 517 -83 586 -53 q 368 -112 447 -112 q 306 -103 336 -112 q 251 -76 275 -93 q 138 -111 203 -111 q 56 -95 93 -111 q -9 -51 18 -79 q -52 15 -36 -22 q -68 94 -68 53 l -68 572 q -31 740 -65 661 q 62 875 4 818 q 197 965 119 932 q 364 999 274 999 z "},"ø":{"ha":728,"x_min":-78,"x_max":817,"o":"m 369 785 q 541 749 460 785 q 683 653 622 714 q 781 511 744 593 q 817 336 817 429 q 782 163 817 244 q 687 22 747 82 q 544 -74 626 -39 q 369 -110 463 -110 q 196 -76 278 -110 q 53 16 114 -43 q -42 157 -7 75 q -78 336 -78 239 q -44 508 -78 428 q 50 649 -10 589 q 192 746 110 710 q 369 785 274 782 m 675 624 l 453 -79 q 381 -175 425 -143 q 286 -214 336 -207 q 188 -204 236 -221 q 106 -153 140 -187 q 57 -67 71 -118 q 61 44 43 -17 l 285 746 q 349 842 306 810 q 441 881 392 874 q 540 871 490 888 q 626 819 590 854 q 678 734 663 785 q 675 624 693 683 z "},"ð":{"ha":622,"x_min":-87,"x_max":693,"o":"m 303 -111 q 151 -81 222 -111 q 27 3 81 -50 q -57 128 -26 57 q -87 279 -87 199 q -71 396 -87 340 q -23 498 -54 451 q 52 580 8 544 q 149 638 96 615 q 72 796 72 694 q 88 876 72 839 q 132 940 104 913 q 197 983 160 967 q 275 999 233 999 l 329 999 q 472 960 407 994 q 583 872 536 925 q 659 753 631 819 q 693 622 688 688 l 693 279 q 659 128 690 199 q 574 3 628 57 q 451 -81 521 -50 q 303 -111 382 -111 z "},"ç":{"ha":653,"x_min":-79,"x_max":739,"o":"m 369 783 q 491 765 426 783 q 611 713 556 747 q 703 630 667 679 q 739 518 739 581 q 706 410 739 460 q 621 338 672 360 q 706 263 674 313 q 739 156 739 213 q 701 41 739 90 q 606 -42 663 -8 q 486 -94 550 -76 q 369 -111 422 -111 q 197 -75 278 -111 q 53 22 115 -39 q -44 165 -8 83 q -79 336 -79 246 q -43 506 -79 425 q 54 649 -7 588 q 197 747 115 710 q 369 783 279 783 m 397 -415 q 294 -394 340 -415 q 214 -335 247 -372 q 163 -252 181 -299 q 144 -156 144 -206 q 162 -91 147 -119 q 200 -43 176 -62 l 200 89 q 212 139 200 113 q 244 188 224 165 q 294 226 265 211 q 357 240 322 240 q 421 226 392 240 q 471 188 450 211 q 503 139 492 165 q 515 89 515 113 l 515 60 q 561 27 542 46 q 599 -12 581 8 q 635 -83 622 -44 q 649 -164 649 -122 q 628 -262 649 -217 q 574 -342 608 -307 q 494 -396 540 -376 q 397 -415 449 -415 z "},"Ç":{"ha":704,"x_min":-74,"x_max":797,"o":"m 593 414 q 672 398 635 414 q 736 355 708 382 q 781 290 764 328 q 797 208 797 251 q 758 78 797 136 q 659 -22 719 19 q 527 -87 599 -64 q 389 -111 456 -111 l 376 -111 q 204 -78 286 -111 q 60 14 122 -44 q -37 152 -1 72 q -74 325 -74 232 l -74 551 q -40 725 -74 643 q 53 867 -7 807 q 196 963 114 928 q 376 999 278 999 q 513 977 439 999 q 649 915 586 956 q 755 813 713 874 q 797 676 797 753 q 781 597 797 635 q 737 531 765 560 q 671 487 708 503 q 592 471 633 471 q 482 501 522 471 q 413 578 442 532 q 397 592 408 588 q 375 596 386 596 q 343 585 356 596 q 331 558 331 574 l 331 332 q 344 303 329 315 q 378 292 358 292 q 414 310 403 292 q 442 351 428 332 q 477 385 457 371 q 525 406 497 399 q 593 414 553 414 m 403 -449 q 299 -427 346 -449 q 219 -369 253 -406 q 168 -285 186 -332 q 150 -189 150 -239 q 167 -124 153 -153 q 206 -76 182 -96 l 206 56 q 217 106 206 79 q 250 155 229 132 q 299 192 271 178 q 363 207 328 207 q 426 192 397 207 q 476 155 456 178 q 509 106 497 132 q 521 56 521 79 l 521 26 q 567 -6 547 13 q 604 -46 586 -25 q 641 -117 628 -78 q 654 -197 654 -156 q 634 -295 654 -250 q 580 -375 614 -340 q 500 -429 546 -410 q 403 -449 454 -449 z "},"å":{"ha":729,"x_min":-82,"x_max":818,"o":"m 818 336 l 818 90 q 801 12 818 49 q 756 -52 783 -25 q 691 -95 728 -79 q 617 -111 654 -111 q 518 -85 561 -111 q 445 -106 482 -100 q 371 -111 408 -111 q 239 -91 301 -111 q 124 -35 176 -71 q 29 49 71 0 q -39 157 -12 99 q -77 304 -72 229 q -62 449 -82 379 q -3 579 -43 518 q 94 685 38 640 q 222 757 151 731 q 371 783 292 783 q 548 746 467 783 q 689 646 629 708 q 783 503 749 583 q 818 336 817 422 z "},"Å":{"ha":729,"x_min":-68,"x_max":828,"o":"m 381 999 q 551 965 469 999 q 693 874 632 932 q 791 735 754 815 q 828 563 828 656 l 828 94 q 813 17 828 53 q 770 -47 797 -19 q 707 -90 743 -74 q 629 -107 671 -106 q 551 -92 588 -107 q 485 -51 514 -78 q 441 11 457 -25 q 425 90 425 47 l 425 142 l 338 142 l 338 94 q 321 17 338 54 q 276 -47 304 -19 q 212 -91 249 -75 q 135 -107 175 -107 q 58 -92 94 -107 q -7 -50 21 -76 q -51 13 -35 -24 q -68 90 -68 49 l -68 551 q -32 725 -67 643 q 63 867 3 807 q 203 963 122 928 q 381 999 285 999 z "},"§":{"ha":722,"x_min":-83,"x_max":803,"o":"m 800 697 q 761 603 793 644 q 685 538 729 561 q 738 419 717 486 q 754 290 758 351 q 741 228 750 260 q 713 160 732 196 q 750 56 739 111 q 757 -54 761 1 q 699 -206 742 -142 q 597 -312 657 -271 q 462 -372 536 -354 q 308 -382 388 -389 q 183 -350 244 -374 q 69 -287 121 -326 q -19 -197 18 -249 q -72 -82 -57 -146 q -56 39 -83 -15 q 21 126 -28 93 q -34 242 -17 179 q -44 376 -51 304 q -30 440 -40 408 q -6 503 -19 471 q -50 664 -50 579 q -17 824 -50 749 q 76 957 15 899 q 215 1042 136 1015 q 280 1057 246 1053 q 349 1061 314 1061 q 436 1054 394 1061 q 507 1039 478 1047 l 506 1039 q 670 949 599 1010 q 779 806 742 889 q 796 755 789 782 q 800 697 803 728 z "},"‡":{"ha":561,"x_min":-93,"x_max":654,"o":"m 279 1000 q 360 983 322 1000 q 427 938 399 967 q 472 872 456 910 q 489 790 489 833 l 489 -87 q 472 -169 489 -131 q 427 -235 456 -207 q 360 -281 399 -264 q 279 -297 322 -297 q 198 -281 236 -297 q 132 -235 160 -264 q 88 -169 104 -207 q 71 -87 71 -131 l 71 790 q 88 872 71 833 q 132 938 104 910 q 198 983 160 967 q 279 1000 236 1000 m 654 314 q 638 235 654 272 q 595 171 622 199 q 531 127 568 143 q 453 111 494 111 l 110 111 q 30 127 67 111 q -34 171 -7 143 q -77 235 -61 199 q -93 314 -93 272 q -77 392 -93 356 q -34 457 -61 429 q 30 501 -7 485 q 110 517 67 517 l 453 517 q 531 501 494 517 q 595 457 568 485 q 638 392 622 429 q 654 314 654 356 m 654 610 q 638 531 654 568 q 595 467 622 494 q 531 423 568 439 q 453 407 494 407 l 110 407 q 30 423 67 407 q -34 467 -7 439 q -77 531 -61 494 q -93 610 -93 568 q -77 688 -93 651 q -34 753 -61 725 q 30 797 -7 781 q 110 813 67 813 l 453 813 q 531 797 494 813 q 595 753 568 781 q 638 688 622 725 q 654 610 654 651 z "},"†":{"ha":565,"x_min":-99,"x_max":664,"o":"m 282 1000 q 363 983 325 1000 q 430 938 401 967 q 475 872 458 910 q 492 790 492 833 l 492 -87 q 475 -169 492 -131 q 430 -235 458 -207 q 363 -281 401 -264 q 282 -297 325 -297 q 201 -281 239 -297 q 135 -235 163 -264 q 90 -169 107 -207 q 74 -87 74 -131 l 74 790 q 90 872 74 833 q 135 938 107 910 q 201 983 163 967 q 282 1000 239 1000 m 664 515 q 648 436 664 474 q 604 370 632 399 q 539 326 576 342 q 460 310 501 310 l 106 310 q 24 326 61 310 q -41 370 -14 342 q -83 436 -68 399 q -99 515 -99 474 q -83 597 -99 558 q -41 662 -68 635 q 24 705 -14 689 q 106 721 61 721 l 460 721 q 539 705 501 721 q 604 662 576 689 q 648 597 632 635 q 664 515 664 558 z "},"«":{"ha":911,"x_min":-83,"x_max":976,"o":"m 503 235 q 547 168 532 206 q 560 92 561 131 q 544 17 560 54 q 500 -50 529 -21 q 432 -96 469 -81 q 356 -111 394 -111 q 279 -96 317 -111 q 213 -50 242 -81 q 92 70 149 14 q -22 183 35 126 q -69 252 -54 215 q -83 328 -83 289 q -29 469 -83 404 l 210 725 q 280 769 242 754 q 357 785 318 785 q 433 769 396 785 q 503 722 471 753 q 547 656 532 693 q 561 581 561 619 q 547 504 561 542 q 506 438 533 467 q 455 384 479 410 q 407 332 431 358 l 503 235 m 917 235 q 960 170 944 206 q 975 94 975 135 q 960 18 975 56 q 914 -50 944 -19 q 844 -97 882 -82 q 769 -111 807 -111 q 693 -95 731 -111 q 625 -50 656 -79 q 576 -3 610 -36 q 507 67 543 31 q 438 137 471 104 q 390 185 404 169 q 344 252 360 215 q 329 328 329 289 q 385 471 329 408 l 625 724 q 694 770 656 754 q 770 786 732 786 q 846 770 808 786 q 915 724 883 754 q 961 656 946 693 q 976 581 976 619 q 962 505 976 542 q 918 438 947 468 q 868 384 892 410 q 821 332 844 358 l 917 235 z "},"°":{"ha":604,"x_min":-78,"x_max":682,"o":"m 308 999 q 458 966 389 999 q 576 880 526 933 q 654 758 626 826 q 682 617 682 689 q 651 467 682 536 q 569 347 621 397 q 449 266 518 296 q 306 235 381 236 q 151 265 221 238 q 30 342 81 292 q -49 465 -21 392 q -78 631 -78 538 q -46 776 -78 708 q 40 892 -14 843 q 164 970 94 942 q 308 999 233 999 z "},"²":{"ha":490,"x_min":-74,"x_max":564,"o":"m -74 444 q -58 509 -74 474 q -3 590 -43 544 q -52 660 -35 619 q -69 744 -69 700 q -41 849 -69 803 q 33 928 -12 896 q 132 979 78 961 q 238 999 186 997 l 263 999 q 376 975 322 999 q 470 911 431 951 q 533 817 510 871 q 557 706 557 764 q 522 567 557 628 q 564 443 564 513 q 547 364 564 401 q 502 298 531 326 q 437 253 474 269 q 358 236 400 236 l 128 236 q 44 253 82 236 q -19 300 7 271 q -60 367 -46 329 q -74 444 -74 404 z "},"³":{"ha":476,"x_min":-79,"x_max":564,"o":"m -76 494 q -33 618 -76 565 q -64 672 -53 642 q -77 734 -75 703 q -72 795 -79 765 q -46 850 -64 825 q 77 960 3 921 q 231 999 151 999 l 256 999 q 391 960 326 994 q 497 871 456 925 q 551 751 539 817 q 531 618 564 685 q 548 483 560 551 q 496 360 536 415 q 393 270 456 304 q 256 238 331 236 l 231 238 q 120 259 175 240 q 22 310 65 278 q -49 390 -22 343 q -76 494 -76 436 z "},"ƒ":{"ha":521,"x_min":-93,"x_max":615,"o":"m 406 999 q 549 949 490 999 q 615 801 608 900 q 576 681 615 732 q 474 608 536 631 q 528 540 510 581 q 547 450 547 500 q 523 355 547 397 q 463 285 499 313 l 463 46 q 431 -88 458 -24 q 358 -201 403 -153 q 252 -279 313 -250 q 124 -308 192 -308 q 45 -297 83 -308 q -23 -260 7 -285 q -72 -199 -53 -236 q -93 -110 -90 -161 q -50 18 -93 -36 q 60 89 -7 72 l 60 282 q 1 351 24 308 q -25 444 -22 393 q -2 542 -25 499 q 60 614 21 586 l 60 644 q 87 777 60 713 q 160 890 114 842 q 270 969 207 939 q 406 999 333 999 z "},"…":{"ha":731,"x_min":-67,"x_max":797,"o":"m 344 94 q 328 15 344 53 q 285 -51 313 -22 q 219 -95 257 -79 q 138 -111 181 -111 q 58 -95 96 -111 q -7 -51 21 -79 q -51 15 -35 -22 q -67 94 -67 53 q -51 174 -67 136 q -7 240 -35 211 q 58 284 21 268 q 138 300 96 300 q 219 284 181 300 q 285 240 257 268 q 328 174 313 211 q 344 94 344 136 m 571 94 q 555 15 571 53 q 511 -51 539 -22 q 445 -95 483 -79 q 364 -111 407 -111 q 285 -95 322 -111 q 219 -51 247 -79 q 176 15 192 -22 q 160 94 160 53 q 176 174 160 136 q 219 240 192 211 q 285 284 247 268 q 364 300 322 300 q 445 284 407 300 q 511 240 483 268 q 555 174 539 211 q 571 94 571 136 m 797 94 q 781 15 797 53 q 738 -51 765 -22 q 672 -95 710 -79 q 590 -111 633 -111 q 511 -95 549 -111 q 446 -51 474 -79 q 402 15 418 -22 q 386 94 386 53 q 402 174 386 136 q 446 240 418 211 q 511 284 474 268 q 590 300 549 300 q 672 284 633 300 q 738 240 710 268 q 781 174 765 211 q 797 94 797 136 z "},"^":{"ha":790,"x_min":-78,"x_max":868,"o":"m 206 893 l 206 892 q 286 976 238 944 q 394 1007 335 1007 q 499 974 450 1007 q 583 894 547 940 l 854 478 q 867 395 868 438 q 852 315 867 353 q 809 248 838 278 q 740 201 781 218 q 664 188 701 186 q 592 203 626 189 q 527 242 557 217 q 475 299 497 267 l 476 299 q 449 338 458 325 q 432 362 439 351 q 417 383 425 372 q 393 417 408 394 q 350 358 369 388 q 308 297 331 328 q 256 239 286 264 q 190 201 225 214 q 119 188 156 189 q 46 201 82 188 q -24 251 4 219 q -65 319 -51 282 q -77 398 -78 357 q -64 478 -76 439 l 206 893 z "},"±":{"ha":597,"x_min":-82,"x_max":681,"o":"m 299 921 q 370 907 336 921 q 432 869 404 893 q 478 813 460 844 q 503 743 496 781 q 572 719 540 736 q 628 674 604 701 q 667 613 653 647 q 681 539 681 578 q 667 467 681 501 q 628 405 653 432 q 572 359 604 378 q 503 335 540 340 q 478 265 496 297 q 432 209 460 233 q 370 171 404 185 q 299 157 336 157 q 226 172 260 157 q 165 210 192 186 q 119 267 138 235 q 94 335 101 299 q 22 356 54 339 q -34 401 -11 374 q -69 464 -57 429 q -82 539 -82 499 q -70 616 -82 581 q -35 678 -58 651 q 20 722 -12 706 q 94 743 53 739 q 117 813 100 781 q 162 869 135 846 q 224 907 189 893 q 299 921 258 921 m 681 94 q 665 15 681 53 q 621 -51 649 -22 q 556 -95 593 -79 q 476 -111 518 -111 l 122 -111 q 40 -95 78 -111 q -24 -51 3 -79 q -67 15 -51 -22 q -82 94 -82 53 q -67 176 -82 138 q -24 241 -51 214 q 40 284 3 268 q 122 300 78 300 l 476 300 q 556 284 518 300 q 621 241 593 268 q 665 176 649 214 q 681 94 681 138 z "},"þ":{"ha":729,"x_min":-62,"x_max":833,"o":"m 146 1000 q 227 983 189 1000 q 294 938 265 967 q 339 872 322 910 q 356 790 356 833 l 356 -87 q 339 -169 356 -131 q 294 -235 322 -207 q 227 -281 265 -264 q 146 -297 189 -297 q 65 -281 103 -297 q -1 -235 26 -264 q -46 -169 -29 -207 q -62 -87 -62 -131 l -62 790 q -46 872 -62 833 q -1 938 -29 910 q 65 983 26 967 q 146 1000 103 1000 m -62 801 q -44 874 -62 839 q 2 938 -26 910 q 67 982 31 965 q 140 997 103 999 q 217 981 181 999 q 281 935 253 964 q 325 870 308 907 q 342 794 342 833 l 342 782 q 363 783 353 783 q 385 783 374 783 q 551 751 469 783 q 703 654 633 718 q 801 510 769 586 q 833 336 833 435 q 797 163 833 244 q 700 20 761 81 q 558 -76 639 -40 q 386 -111 476 -111 q 216 -75 297 -111 q 73 22 135 -39 q -26 165 11 83 q -62 336 -62 246 l -62 801 z "},"¶":{"ha":283,"x_min":-64,"x_max":344,"o":"m 142 997 q 220 981 183 997 q 285 936 257 964 q 328 872 313 908 q 344 793 344 835 l 344 93 q 328 14 344 51 q 285 -51 313 -24 q 220 -95 257 -79 q 142 -111 183 -111 q 60 -95 97 -111 q -5 -51 22 -79 q -48 14 -32 -24 q -64 93 -64 51 l -64 793 q -48 872 -64 835 q -5 936 -32 908 q 60 981 22 964 q 142 997 97 997 z "},"›":{"ha":479,"x_min":-69,"x_max":579,"o":"m 88 331 q 47 376 68 353 q 7 421 26 400 q -42 492 -22 454 q -65 570 -61 531 q -56 649 -69 610 q -7 724 -43 688 q 62 770 24 754 q 138 786 100 786 q 214 770 176 786 q 283 724 251 754 l 521 471 q 579 328 579 404 q 564 252 579 289 q 518 185 549 215 l 282 -51 q 140 -112 219 -112 q -4 -53 61 -111 l -4 -54 q -51 14 -35 -24 q -67 90 -67 51 q -53 167 -68 129 q -7 236 -37 206 l 88 331 z "},"‹":{"ha":478,"x_min":-100,"x_max":547,"o":"m 488 235 q 531 168 517 206 q 545 92 546 131 q 529 17 544 54 q 485 -50 514 -21 q 415 -97 453 -82 q 340 -111 378 -111 q 264 -95 301 -111 q 196 -50 226 -79 q 147 -3 181 -36 q 78 67 114 31 q 8 137 42 104 q -39 185 -25 169 q -85 252 -69 215 q -100 328 -100 289 q -44 471 -100 408 l 196 724 q 265 770 226 754 q 341 786 303 786 q 417 770 379 786 q 486 724 454 754 q 531 657 515 694 q 547 581 546 619 q 533 506 547 543 q 489 438 518 468 l 392 332 l 488 235 z "},"¬":{"ha":710,"x_min":-100,"x_max":774,"o":"m 568 51 q 437 97 492 51 q 367 213 382 142 l 104 213 q 22 228 60 213 q -42 273 -15 244 q -85 339 -69 301 q -100 418 -100 376 q -85 499 -100 461 q -42 565 -69 538 q 22 608 -15 592 q 104 624 60 624 l 569 624 q 649 606 613 622 q 712 563 685 590 q 755 500 739 536 q 774 424 771 464 l 774 256 q 758 176 774 214 q 715 111 742 139 q 649 67 688 83 q 568 51 611 51 z "},"©":{"ha":1026,"x_min":-69,"x_max":1104,"o":"m 435 992 q 476 996 454 994 q 517 999 497 997 q 744 952 638 999 q 931 826 851 906 q 1058 639 1011 746 q 1104 411 1104 532 q 1057 182 1104 289 q 929 -5 1010 75 q 742 -131 849 -85 q 519 -176 636 -176 q 288 -130 396 -176 q 101 -3 181 -83 q -24 185 22 78 q -69 411 -69 292 q -29 619 -69 521 q 80 794 11 717 q 240 924 149 872 q 435 992 332 975 z "},"®":{"ha":1026,"x_min":-69,"x_max":1104,"o":"m 518 999 q 746 952 639 999 q 932 826 853 906 q 1058 639 1011 746 q 1104 411 1104 532 q 1057 182 1104 289 q 929 -5 1010 75 q 742 -131 849 -85 q 519 -176 636 -176 q 288 -130 396 -176 q 101 -3 181 -83 q -24 185 22 78 q -69 411 -69 292 q -19 639 -69 532 q 115 826 32 746 q 304 952 199 906 q 518 999 410 999 z "},"­":{"ha":626,"x_min":-68,"x_max":694,"o":"m 694 418 q 678 339 694 376 q 635 273 663 301 q 569 228 607 244 q 490 213 532 213 l 136 213 q 54 228 92 213 q -10 273 17 244 q -53 339 -37 301 q -68 418 -68 376 q -53 499 -68 461 q -10 565 -37 538 q 54 608 17 592 q 136 624 92 624 l 490 624 q 569 608 532 624 q 635 565 607 592 q 678 499 663 538 q 694 418 694 461 z "},"™":{"ha":1158,"x_min":-74,"x_max":1225,"o":"m 351 999 q 433 983 394 999 q 498 938 471 967 q 541 872 525 910 q 557 793 557 835 q 526 682 557 731 q 446 608 496 633 l 446 511 q 431 429 446 467 q 388 365 415 392 q 324 322 361 338 q 242 306 286 306 q 160 322 197 306 q 95 365 122 338 q 53 429 68 392 q 38 511 38 467 l 38 608 q -42 682 -11 633 q -74 793 -74 731 q -58 872 -74 835 q -14 938 -42 910 q 51 983 14 967 q 131 999 89 999 l 351 999 m 903 990 q 1012 972 957 990 q 1113 914 1067 954 q 1198 801 1171 864 q 1225 653 1225 738 l 1225 503 q 1208 421 1225 458 q 1164 356 1192 383 q 1099 313 1136 329 q 1021 297 1063 297 q 956 307 988 297 q 900 333 925 317 q 785 297 849 297 q 668 332 718 297 q 613 307 644 317 q 549 297 581 297 q 469 313 507 297 q 404 356 432 329 q 360 421 376 383 q 344 503 344 458 l 344 653 q 367 796 344 731 q 450 911 390 861 q 566 976 510 961 q 667 990 622 990 q 723 987 694 990 q 786 971 751 983 q 847 987 819 983 q 903 990 874 990 z "},"ª":{"ha":611,"x_min":-78,"x_max":682,"o":"m 308 999 q 456 967 388 999 q 574 881 524 935 q 652 760 624 828 q 682 622 681 693 l 682 433 q 652 337 678 381 q 587 266 626 293 q 499 232 547 239 q 404 247 451 225 q 215 243 303 224 q 63 315 128 263 q -39 449 -1 368 q -78 631 -76 531 q -38 778 -71 711 q 47 895 -6 846 q 166 972 99 944 q 308 999 233 999 z "},"º":{"ha":604,"x_min":-78,"x_max":682,"o":"m 308 999 q 458 966 389 999 q 576 880 526 933 q 654 758 626 826 q 682 617 682 689 q 651 467 682 536 q 569 347 621 397 q 449 266 518 296 q 306 235 381 236 q 151 265 221 238 q 30 342 81 292 q -49 465 -21 392 q -78 631 -78 538 q -38 778 -71 711 q 47 895 -6 846 q 166 972 99 944 q 308 999 233 999 z "},"¤":{"ha":772,"x_min":-62,"x_max":836,"o":"m 799 210 q 835 104 835 161 q 809 -1 835 47 q 736 -81 783 -49 q 631 -112 689 -112 q 538 -90 583 -112 q 463 -26 493 -67 l 442 4 q 415 2 428 3 q 388 1 403 1 q 358 1 372 1 q 329 4 343 1 q 252 -81 301 -49 q 144 -112 203 -112 q 35 -81 82 -112 q -35 -2 -11 -50 q -59 103 -60 46 q -26 210 -58 160 q -17 222 -22 217 q -7 235 -12 228 q -24 268 -18 253 q -60 447 -60 353 q -47 554 -60 504 q -10 651 -33 604 q -11 653 -10 653 q -12 656 -12 654 q -52 729 -42 697 q -62 792 -62 761 q -40 884 -62 839 q 25 961 -17 929 q 103 992 63 985 q 182 993 143 1000 q 255 965 221 986 q 314 908 289 943 l 325 892 q 355 894 339 894 q 385 896 371 894 q 417 895 401 896 q 449 893 433 894 q 461 913 453 901 q 522 967 488 947 q 596 994 557 988 q 674 992 635 1000 q 746 961 713 983 q 813 883 790 929 q 836 792 836 838 q 822 717 836 754 q 783 654 808 679 q 823 554 811 608 q 835 447 835 500 q 797 269 835 357 q 790 252 792 258 q 781 235 788 246 l 799 210 z "},"O":{"ha":750,"x_min":-74,"x_max":824,"o":"m 376 -111 q 204 -78 286 -111 q 60 14 122 -44 q -37 152 -1 72 q -74 325 -74 232 l -74 551 q -40 725 -74 643 q 53 867 -7 807 q 196 963 114 928 q 376 999 278 999 q 547 965 465 999 q 689 874 628 932 q 787 735 750 815 q 824 563 824 656 l 824 336 q 790 163 824 244 q 695 20 756 81 q 553 -76 635 -40 q 376 -111 472 -111 z "},"P":{"ha":738,"x_min":-62,"x_max":833,"o":"m 833 553 q 798 378 833 460 q 701 236 763 297 q 559 140 640 175 q 385 104 478 104 l 346 104 l 346 93 q 330 14 346 51 q 286 -51 314 -24 q 221 -95 258 -79 q 142 -111 183 -111 q 63 -95 100 -111 q -3 -51 25 -79 q -47 14 -31 -24 q -62 93 -62 51 l -62 797 q -47 876 -62 839 q -3 942 -31 914 q 63 985 25 969 q 142 1001 100 1001 l 385 1001 q 559 966 478 1001 q 701 869 640 931 q 798 727 763 808 q 833 553 833 646 z "},"Q":{"ha":836,"x_min":-75,"x_max":922,"o":"m 375 -111 q 203 -78 285 -111 q 59 14 121 -44 q -39 152 -3 72 q -75 325 -75 232 l -75 551 q -42 725 -75 643 q 52 867 -8 807 q 194 963 113 928 q 375 999 276 999 q 545 965 464 999 q 688 874 626 932 q 785 735 749 815 q 822 563 822 656 l 822 336 q 821 283 822 308 q 813 233 819 258 q 903 123 885 182 q 902 9 922 64 q 833 -90 882 -46 q 722 -153 783 -133 q 594 -164 660 -174 q 475 -101 528 -154 q 375 -111 428 -111 z "},"G":{"ha":747,"x_min":-74,"x_max":825,"o":"m 371 -111 q 199 -74 279 -108 q 58 19 118 -39 q -37 156 -1 78 q -74 326 -72 235 l -74 553 q -40 726 -74 644 q 53 869 -7 808 q 196 965 114 929 q 376 1000 278 1000 q 610 940 506 1000 q 678 892 644 921 q 739 828 713 863 q 781 755 765 793 q 797 678 797 717 q 788 618 797 646 q 764 567 779 590 q 825 426 817 511 l 825 332 q 785 160 819 240 q 691 19 750 79 q 551 -76 632 -42 q 374 -111 471 -111 l 371 -111 z "},"‰":{"ha":1682,"x_min":-81,"x_max":1776,"o":"m 779 981 q 885 878 854 946 q 894 735 917 810 q 839 560 867 647 q 783 383 811 472 q 728 207 756 294 q 672 32 700 119 q 631 -35 658 -6 q 567 -84 603 -65 q 492 -108 532 -103 q 414 -100 453 -112 q 343 -61 374 -87 q 294 1 313 -35 q 272 76 276 36 q 281 156 268 115 l 504 857 q 552 927 522 897 q 619 973 582 957 q 697 992 656 989 q 779 981 739 994 m 276 999 q 413 969 350 999 q 522 891 476 940 q 594 778 568 842 q 621 644 621 714 q 524 401 621 504 q 274 294 422 294 q 131 321 196 296 q 18 392 65 346 q -55 506 -29 439 q -81 660 -81 574 q -43 796 -74 733 q 35 903 -12 858 q 145 974 83 949 q 276 999 207 999 m 918 597 q 1055 568 992 597 q 1164 490 1118 539 q 1236 376 1210 440 q 1263 243 1263 313 q 1164 0 1263 103 l 1165 0 q 915 -107 1064 -107 q 772 -81 838 -106 q 660 -9 707 -56 q 587 105 613 38 q 561 258 561 172 q 599 394 568 332 q 677 502 629 457 q 787 572 725 547 q 918 597 849 597 m 1432 597 q 1569 568 1506 597 q 1678 490 1632 539 q 1750 376 1724 440 q 1776 243 1776 313 q 1748 106 1776 169 q 1672 -5 1719 43 q 1561 -80 1624 -53 q 1429 -107 1499 -107 q 1286 -81 1351 -106 q 1174 -9 1221 -56 q 1101 105 1126 38 q 1075 258 1075 172 q 1113 394 1082 332 q 1191 502 1143 457 q 1301 572 1239 547 q 1432 597 1363 597 z "},"b":{"ha":732,"x_min":-68,"x_max":828,"o":"m -68 801 q -50 874 -68 839 q -3 938 -32 910 q 61 982 25 965 q 135 997 97 999 q 211 981 175 999 q 275 935 247 964 q 319 870 303 907 q 336 794 336 833 l 336 782 q 521 763 432 794 q 678 668 610 731 q 787 519 746 606 q 828 336 828 433 q 792 163 828 244 q 694 20 756 81 q 552 -76 633 -40 q 381 -111 471 -111 q 210 -75 292 -111 q 67 22 129 -39 q -31 165 6 83 q -68 336 -68 246 l -68 801 z "},"e":{"ha":733,"x_min":-78,"x_max":818,"o":"m 369 783 q 540 747 458 783 q 683 647 621 710 q 781 504 744 585 q 818 336 818 424 q 781 219 818 265 q 682 156 744 172 q 686 117 686 135 q 656 11 686 54 q 578 -59 625 -32 q 476 -99 531 -86 q 371 -111 421 -111 q 199 -78 281 -114 q 56 21 118 -42 q -42 165 -6 83 q -78 336 -78 246 q -42 504 -78 424 q 56 647 -6 585 q 198 746 117 708 q 369 783 279 783 z "},"Œ":{"ha":1428,"x_min":65,"x_max":1368,"o":"m 515 -111 q 343 -78 425 -111 q 199 14 261 -44 q 101 152 138 72 q 65 325 65 232 l 65 551 q 99 725 65 643 q 192 867 132 807 q 335 963 253 928 q 515 999 417 999 q 685 965 604 999 q 828 874 767 932 q 926 735 889 815 q 963 563 963 656 l 963 336 q 928 163 963 244 q 834 20 894 81 q 692 -76 774 -40 q 515 -111 611 -111 m 1275 447 q 1256 362 1275 401 q 1206 294 1238 322 q 1269 267 1240 286 q 1321 222 1299 249 q 1356 163 1343 196 q 1368 94 1368 131 q 1352 13 1368 50 q 1308 -52 1336 -25 q 1243 -95 1281 -79 q 1164 -111 1206 -111 l 767 -111 q 690 -95 726 -111 q 625 -52 653 -79 q 580 13 597 -25 q 563 94 563 50 l 563 793 q 578 869 563 832 q 620 935 593 907 q 685 981 647 964 q 767 999 722 999 l 1164 999 q 1243 983 1206 999 q 1308 938 1281 967 q 1352 872 1336 910 q 1368 793 1368 835 q 1324 663 1368 715 q 1211 594 1279 610 q 1258 528 1240 567 q 1275 447 1275 490 z "},"Ò":{"ha":750,"x_min":-74,"x_max":824,"o":"m 376 -111 q 204 -78 286 -111 q 60 14 122 -44 q -37 152 -1 72 q -74 325 -74 232 l -74 551 q -40 725 -74 643 q 53 867 -7 807 q 196 963 114 928 q 376 999 278 999 q 547 965 465 999 q 689 874 628 932 q 787 735 750 815 q 824 563 824 656 l 824 336 q 790 163 824 244 q 695 20 756 81 q 553 -76 635 -40 q 376 -111 472 -111 m 67 1156 q 104 1229 78 1196 q 165 1284 131 1263 q 238 1312 199 1306 q 315 1304 278 1318 l 314 1304 q 401 1282 360 1293 q 483 1260 443 1271 q 554 1220 522 1246 q 607 1161 586 1194 q 634 1089 628 1128 q 628 1011 640 1050 l 628 1013 q 590 938 617 971 q 529 883 564 904 q 454 856 494 863 q 375 863 414 850 q 293 885 335 874 q 211 908 251 897 q 138 944 171 918 q 86 1005 106 971 q 60 1078 67 1039 q 67 1156 54 1118 z "},"Ó":{"ha":750,"x_min":-74,"x_max":824,"o":"m 376 -111 q 204 -78 286 -111 q 60 14 122 -44 q -37 152 -1 72 q -74 325 -74 232 l -74 551 q -40 725 -74 643 q 53 867 -7 807 q 196 963 114 928 q 376 999 278 999 q 547 965 465 999 q 689 874 628 932 q 787 735 750 815 q 824 563 824 656 l 824 336 q 790 163 824 244 q 695 20 756 81 q 553 -76 635 -40 q 376 -111 472 -111 m 690 1154 q 696 1074 703 1114 q 669 1000 689 1033 q 617 942 649 967 q 547 907 586 917 q 478 887 506 894 q 432 874 450 879 q 401 867 414 869 q 379 861 389 864 q 299 856 339 849 q 224 885 258 864 q 164 938 189 906 q 129 1010 139 971 q 122 1088 117 1049 q 148 1160 128 1126 q 200 1220 168 1194 q 272 1258 232 1246 l 442 1303 q 520 1308 481 1314 q 594 1282 560 1301 q 654 1230 629 1263 q 690 1154 679 1197 z "},"Ö":{"ha":750,"x_min":-74,"x_max":824,"o":"m 376 -111 q 204 -78 286 -111 q 60 14 122 -44 q -37 152 -1 72 q -74 325 -74 232 l -74 551 q -40 725 -74 643 q 53 867 -7 807 q 196 963 114 928 q 376 999 278 999 q 547 965 465 999 q 689 874 628 932 q 787 735 750 815 q 824 563 824 656 l 824 336 q 790 163 824 244 q 695 20 756 81 q 553 -76 635 -40 q 376 -111 472 -111 m 446 1093 q 430 1014 446 1051 q 386 948 414 976 q 320 903 358 919 q 239 888 282 888 q 160 903 197 888 q 94 948 122 919 q 51 1014 67 976 q 35 1093 35 1051 q 51 1172 35 1135 q 94 1238 67 1210 q 160 1283 122 1267 q 239 1299 197 1299 q 320 1283 282 1299 q 386 1238 358 1267 q 430 1172 414 1210 q 446 1093 446 1135 m 714 1093 q 698 1014 714 1051 q 654 948 682 976 q 588 903 626 919 q 507 888 550 888 q 428 903 465 888 q 363 948 390 919 q 319 1014 335 976 q 303 1093 303 1051 q 319 1172 303 1135 q 363 1238 335 1210 q 428 1283 390 1267 q 507 1299 465 1299 q 588 1283 550 1299 q 654 1238 626 1267 q 698 1172 682 1210 q 714 1093 714 1135 z "},"Õ":{"ha":750,"x_min":-74,"x_max":824,"o":"m 376 -111 q 204 -78 286 -111 q 60 14 122 -44 q -37 152 -1 72 q -74 325 -74 232 l -74 551 q -40 725 -74 643 q 53 867 -7 807 q 196 963 114 928 q 376 999 278 999 q 547 965 465 999 q 689 874 628 932 q 787 735 750 815 q 824 563 824 656 l 824 336 q 790 163 824 244 q 695 20 756 81 q 553 -76 635 -40 q 376 -111 472 -111 m 465 1274 q 597 1326 522 1326 q 645 1321 621 1326 q 696 1300 669 1315 q 772 1227 744 1272 q 800 1124 800 1182 q 768 1013 800 1069 q 565 857 697 890 q 492 847 528 847 q 392 860 439 847 q 308 896 344 872 l 286 907 q 151 856 231 856 q 103 861 128 856 q 53 882 79 867 q -23 956 4 911 q -50 1058 -50 1000 q -43 1113 -50 1086 q -19 1169 -36 1140 q 99 1291 26 1249 q 258 1333 172 1333 q 356 1320 307 1333 q 439 1288 404 1307 l 465 1274 z "},"Ô":{"ha":750,"x_min":-74,"x_max":824,"o":"m 376 -111 q 204 -78 286 -111 q 60 14 122 -44 q -37 152 -1 72 q -74 325 -74 232 l -74 551 q -40 725 -74 643 q 53 867 -7 807 q 196 963 114 928 q 376 999 278 999 q 547 965 465 999 q 689 874 628 932 q 787 735 750 815 q 824 563 824 656 l 824 336 q 790 163 824 244 q 695 20 756 81 q 553 -76 635 -40 q 376 -111 472 -111 m 333 881 q 267 835 304 850 q 190 821 229 821 q 113 837 150 821 q 46 883 75 853 q 3 953 17 915 q -7 1028 -10 990 q 13 1103 -4 1067 q 60 1169 29 1140 l 226 1336 q 294 1382 257 1367 q 369 1397 331 1397 q 444 1383 408 1397 q 513 1340 481 1368 l 696 1171 q 744 1103 726 1140 q 765 1028 761 1067 q 755 951 768 989 q 710 881 742 913 q 644 836 681 851 q 569 820 607 821 q 494 833 532 819 q 426 876 457 847 l 426 875 q 400 899 413 888 q 375 922 388 911 l 333 881 z "},"Ø":{"ha":750,"x_min":-74,"x_max":824,"o":"m 376 -111 q 204 -78 286 -111 q 60 14 122 -44 q -37 152 -1 72 q -74 325 -74 232 l -74 551 q -40 725 -74 643 q 53 867 -7 807 q 196 963 114 928 q 376 999 278 999 q 547 965 465 999 q 689 874 628 932 q 787 735 750 815 q 824 563 824 656 l 824 336 q 790 163 824 244 q 695 20 756 81 q 553 -76 635 -40 q 376 -111 472 -111 m 681 733 l 458 31 q 386 -65 431 -33 q 292 -104 342 -97 q 194 -94 242 -111 q 111 -43 146 -78 q 63 42 76 -8 q 67 154 49 93 l 290 856 q 354 951 311 919 q 447 990 397 983 q 546 981 496 997 q 632 929 596 964 q 683 844 668 894 q 681 733 699 793 z "},"í":{"ha":419,"x_min":-69,"x_max":518,"o":"m 136 782 q 215 765 178 782 q 279 721 251 749 q 323 656 307 693 q 339 578 339 619 l 339 93 q 323 14 339 51 q 279 -51 307 -24 q 215 -95 251 -79 q 136 -111 178 -111 q 54 -95 92 -111 q -10 -51 17 -79 q -53 14 -37 -24 q -69 93 -69 51 l -69 578 q -53 656 -69 619 q -10 721 -37 693 q 54 765 17 749 q 136 782 92 782 m 506 936 q 511 856 518 896 q 484 782 504 815 q 433 724 464 749 q 363 689 401 699 q 293 669 321 676 q 247 656 265 661 q 217 649 229 651 q 194 643 204 646 q 114 638 154 631 q 39 667 74 646 q -21 720 4 688 q -56 792 -46 753 q -62 869 -68 831 q -37 942 -57 908 q 15 1002 -17 976 q 88 1040 47 1028 l 257 1085 q 335 1090 296 1096 q 410 1064 375 1083 q 469 1012 444 1044 q 506 936 494 979 z "},"ì":{"ha":425,"x_min":-97,"x_max":489,"o":"m 281 782 q 359 765 322 782 q 424 721 396 749 q 467 656 451 693 q 483 578 483 619 l 483 93 q 467 14 483 51 q 424 -51 451 -24 q 359 -95 396 -79 q 281 -111 322 -111 q 199 -95 236 -111 q 134 -51 161 -79 q 91 14 107 -24 q 75 93 75 51 l 75 578 q 91 656 75 619 q 134 721 107 693 q 199 765 161 749 q 281 782 236 782 m -85 936 q -47 1010 -74 976 q 13 1065 -21 1043 q 87 1092 47 1086 q 164 1085 126 1099 l 163 1085 q 250 1063 208 1074 q 332 1040 292 1051 q 403 1001 371 1026 q 456 942 435 975 q 483 869 476 908 q 476 792 489 831 l 476 793 q 439 718 465 751 q 378 664 413 685 q 303 637 343 643 q 224 643 263 631 q 142 666 183 654 q 60 689 100 678 q -13 725 19 699 q -65 785 -46 751 q -91 859 -85 819 q -85 936 -97 899 z "},"ˇ":{"ha":614,"x_min":-81,"x_max":697,"o":"m 304 1124 q 329 1146 317 1135 q 356 1168 342 1157 q 424 1211 386 1197 q 499 1224 461 1225 q 573 1208 536 1224 q 639 1164 610 1193 q 684 1094 671 1132 q 694 1017 697 1056 q 673 940 690 978 q 625 872 656 903 l 442 703 q 374 661 411 675 q 298 647 336 647 q 222 663 260 647 q 156 708 185 678 l -11 875 q -58 942 -40 904 q -78 1017 -75 979 q -68 1093 -81 1056 q -24 1163 -56 1131 q 43 1207 6 1192 q 119 1223 81 1222 q 194 1209 157 1224 q 261 1165 232 1194 l 304 1124 z "},"ž":{"ha":768,"x_min":-67,"x_max":832,"o":"m 632 783 q 708 765 671 783 q 772 719 744 747 q 815 655 799 690 q 832 583 832 619 q 772 442 832 501 q 703 371 729 397 q 663 329 678 344 q 640 306 647 314 q 625 293 632 299 q 708 273 669 290 q 774 228 746 256 q 817 165 801 200 q 832 89 832 129 q 816 14 832 51 q 772 -53 800 -24 q 706 -99 743 -82 q 628 -111 669 -115 l 136 -111 q 24 -75 71 -112 q -45 16 -24 -37 q -58 128 -67 69 q -4 231 -50 188 l 144 381 q 58 401 97 383 q -9 447 19 418 q -52 511 -37 475 q -64 589 -67 547 q -46 666 -62 631 q -1 727 -29 701 q 62 768 26 753 q 136 783 97 783 l 632 783 m 422 1078 q 447 1100 435 1089 q 474 1122 460 1111 q 542 1165 504 1151 q 617 1178 579 1179 q 691 1163 654 1178 q 757 1118 728 1147 q 802 1048 789 1086 q 812 971 815 1010 q 791 894 808 932 q 743 826 774 857 l 560 657 q 492 615 529 629 q 416 601 454 601 q 340 617 378 601 q 274 663 303 632 l 107 829 q 60 896 78 858 q 40 972 43 933 q 50 1047 38 1010 q 94 1117 63 1085 q 161 1161 124 1146 q 237 1177 199 1176 q 313 1163 275 1178 q 379 1119 350 1149 l 422 1078 z "},"č":{"ha":664,"x_min":-79,"x_max":739,"o":"m 369 783 q 491 765 426 783 q 611 713 556 747 q 703 630 667 679 q 739 518 739 581 q 706 410 739 460 q 621 338 672 360 q 706 263 674 313 q 739 156 739 213 q 701 41 739 90 q 606 -42 663 -8 q 486 -94 550 -76 q 369 -111 422 -111 q 197 -75 278 -111 q 53 22 115 -39 q -44 165 -8 83 q -79 336 -79 246 q -43 506 -79 425 q 54 649 -7 588 q 197 747 115 710 q 369 783 279 783 m 342 1083 q 367 1106 354 1094 q 393 1128 379 1117 q 461 1171 424 1157 q 536 1184 499 1185 q 610 1168 574 1183 q 676 1124 647 1153 q 722 1053 708 1092 q 731 976 735 1015 q 710 900 728 938 q 663 832 693 863 l 479 663 q 411 621 449 635 q 335 607 374 607 q 260 622 297 607 q 193 668 222 638 l 26 835 q -20 901 -3 864 q -40 977 -37 939 q -31 1053 -43 1015 q 14 1122 -18 1090 q 81 1167 43 1151 q 156 1183 118 1182 q 232 1169 194 1183 q 299 1125 269 1154 l 342 1083 z "},"ě":{"ha":733,"x_min":-78,"x_max":818,"o":"m 369 783 q 540 747 458 783 q 683 647 621 710 q 781 504 744 585 q 818 336 818 424 q 781 219 818 265 q 682 156 744 172 q 686 117 686 135 q 656 11 686 54 q 578 -59 625 -32 q 476 -99 531 -86 q 371 -111 421 -111 q 199 -78 281 -114 q 56 21 118 -42 q -42 165 -6 83 q -78 336 -78 246 q -42 504 -78 424 q 56 647 -6 585 q 198 746 117 708 q 369 783 279 783 m 376 1083 q 401 1106 389 1094 q 428 1128 414 1117 q 496 1171 458 1157 q 571 1184 533 1185 q 645 1168 608 1183 q 711 1124 682 1153 q 756 1053 743 1092 q 766 976 769 1015 q 745 900 763 938 q 697 832 728 863 l 514 663 q 446 621 483 635 q 370 607 408 607 q 294 622 332 607 q 228 668 257 638 l 61 835 q 15 901 32 864 q -6 977 -3 939 q 4 1053 -8 1015 q 49 1122 17 1090 q 115 1167 78 1151 q 191 1183 153 1182 q 267 1169 229 1183 q 333 1125 304 1154 l 376 1083 z "},"˛":{"ha":328,"x_min":-92,"x_max":413,"o":"m 160 -403 q 63 -383 108 -403 q -17 -329 17 -364 q -72 -249 -51 -294 q -92 -151 -92 -204 q -78 -71 -92 -110 q -42 0 -65 -32 q -5 40 -26 21 q 42 72 17 58 l 42 101 q 53 151 42 125 q 86 201 65 178 q 136 238 107 224 q 200 253 165 253 q 263 238 235 253 q 313 201 292 224 q 345 151 333 178 q 357 101 357 125 l 357 -31 q 395 -78 381 -50 q 413 -143 410 -107 q 394 -240 413 -193 q 343 -323 376 -286 q 263 -381 310 -360 q 160 -403 217 -403 z "},"ę":{"ha":733,"x_min":-78,"x_max":818,"o":"m 369 783 q 540 747 458 783 q 683 647 621 710 q 781 504 744 585 q 818 336 818 424 q 781 219 818 265 q 682 156 744 172 q 686 117 686 135 q 656 11 686 54 q 578 -59 625 -32 q 476 -99 531 -86 q 371 -111 421 -111 q 199 -78 281 -114 q 56 21 118 -42 q -42 165 -6 83 q -78 336 -78 246 q -42 504 -78 424 q 56 647 -6 585 q 198 746 117 708 q 369 783 279 783 m 321 -425 q 224 -406 269 -425 q 144 -351 178 -386 q 90 -272 110 -317 q 69 -174 69 -226 q 83 -93 69 -132 q 119 -22 96 -54 q 156 17 135 -1 q 203 50 178 36 l 203 79 q 215 129 203 103 q 247 178 226 156 q 297 216 268 201 q 361 231 326 231 q 424 216 396 231 q 474 178 453 201 q 506 129 494 156 q 518 79 518 103 l 518 -53 q 556 -101 542 -72 q 574 -165 571 -129 q 556 -262 574 -215 q 504 -345 538 -308 q 424 -403 471 -382 q 321 -425 378 -425 z "},"Ę":{"ha":678,"x_min":-62,"x_max":743,"o":"m 650 447 q 631 362 650 401 q 581 294 613 322 q 644 267 615 286 q 696 222 674 249 q 731 163 718 196 q 743 94 743 131 q 727 13 743 50 q 683 -52 711 -25 q 618 -95 656 -79 q 539 -111 581 -111 l 142 -111 q 65 -95 101 -111 q 0 -52 28 -79 q -45 13 -28 -25 q -62 94 -62 50 l -62 793 q -47 869 -62 832 q -5 935 -32 907 q 60 981 22 964 q 142 999 97 999 l 539 999 q 618 983 581 999 q 683 938 656 967 q 727 872 711 910 q 743 793 743 835 q 699 663 743 715 q 586 594 654 610 q 633 528 615 567 q 650 447 650 490 m 303 -419 q 206 -400 251 -419 q 126 -346 160 -381 q 72 -266 92 -311 q 51 -168 51 -221 q 65 -87 51 -126 q 101 -17 78 -49 q 138 23 117 4 q 185 56 160 42 l 185 85 q 197 135 185 108 q 229 184 208 161 q 279 222 250 207 q 343 236 308 236 q 406 222 378 236 q 456 184 435 207 q 488 135 476 161 q 500 85 500 108 l 500 -47 q 538 -95 524 -67 q 556 -160 553 -124 q 538 -256 556 -210 q 486 -340 519 -303 q 406 -398 453 -376 q 303 -419 360 -419 z "},"Ž":{"ha":769,"x_min":-65,"x_max":835,"o":"m 631 299 q 713 282 675 299 q 777 238 750 265 q 819 173 804 210 q 835 94 835 136 q 819 13 835 50 q 777 -52 804 -25 q 713 -95 750 -79 q 631 -111 675 -111 l 138 -111 q 57 -91 93 -108 q -6 -46 21 -74 q -47 17 -32 -18 q -61 93 -61 53 q -53 148 -61 119 q -29 204 -46 176 l 236 589 l 139 589 q 60 604 97 589 q -4 647 24 619 q -49 711 -32 674 q -65 793 -65 749 q -49 872 -65 835 q -4 938 -32 910 q 60 983 24 967 q 139 999 97 999 l 629 999 q 710 980 674 997 q 774 934 747 963 q 817 869 801 906 q 832 792 832 832 q 826 740 832 764 q 811 699 821 715 l 533 299 l 631 299 m 394 1288 q 419 1310 407 1299 q 446 1332 432 1321 q 514 1375 476 1361 q 589 1388 551 1389 q 663 1372 626 1388 q 729 1328 700 1357 q 774 1258 761 1296 q 784 1181 788 1219 q 763 1104 781 1142 q 715 1036 746 1067 l 532 867 q 464 825 501 839 q 388 811 426 811 q 313 826 350 811 q 246 872 275 842 l 79 1039 q 33 1106 50 1068 q 13 1181 15 1143 q 22 1257 10 1219 q 67 1326 35 1294 q 133 1371 96 1356 q 209 1387 171 1386 q 285 1373 247 1388 q 351 1329 322 1358 l 394 1288 z "},"ň":{"ha":756,"x_min":-71,"x_max":825,"o":"m 378 788 q 548 754 467 788 q 690 663 629 721 q 788 524 751 604 q 825 351 825 444 l 825 94 q 810 17 825 53 q 767 -47 794 -19 q 704 -90 740 -74 q 626 -107 668 -106 q 548 -92 585 -107 q 483 -51 511 -78 q 438 11 454 -25 q 422 90 422 47 l 422 340 q 409 372 422 358 q 376 385 396 385 q 347 374 360 385 q 335 347 335 363 l 335 94 q 318 17 335 54 q 274 -47 301 -19 q 209 -91 246 -75 q 132 -107 172 -107 q 55 -92 92 -107 q -10 -50 18 -76 q -54 13 -37 -24 q -71 90 -71 49 l -71 340 q -35 514 -69 432 q 60 656 0 596 q 201 752 119 717 q 378 788 282 788 m 374 1079 q 399 1101 386 1090 q 425 1124 411 1113 q 493 1167 456 1153 q 568 1180 531 1181 q 642 1164 606 1179 q 708 1119 679 1149 q 753 1049 740 1088 q 763 972 767 1011 q 742 896 760 933 q 694 828 725 858 l 511 658 q 443 617 481 631 q 367 603 406 603 q 292 618 329 603 q 225 664 254 633 l 58 831 q 12 897 29 860 q -8 973 -6 935 q 1 1049 -11 1011 q 46 1118 14 1086 q 113 1163 75 1147 q 188 1178 150 1178 q 264 1165 226 1179 q 331 1121 301 1150 l 374 1079 z "},"Ň":{"ha":760,"x_min":-68,"x_max":828,"o":"m 381 994 q 551 961 469 994 q 693 869 632 928 q 791 731 754 811 q 828 558 828 651 l 828 90 q 813 13 828 49 q 770 -51 797 -24 q 707 -94 743 -78 q 629 -111 671 -110 q 551 -97 588 -111 q 485 -56 514 -82 q 441 7 457 -29 q 425 86 425 43 l 425 547 q 412 578 425 565 q 379 592 399 592 q 350 581 363 592 q 338 554 338 569 l 338 90 q 321 13 338 50 q 276 -51 304 -24 q 212 -95 249 -79 q 135 -111 175 -111 q 58 -96 94 -111 q -7 -54 21 -81 q -51 8 -35 -28 q -68 86 -68 44 l -68 547 q -32 721 -67 639 q 63 863 3 803 q 203 959 122 924 q 381 994 285 994 m 376 1297 q 401 1319 389 1308 q 428 1342 414 1331 q 496 1385 458 1371 q 571 1398 533 1399 q 645 1382 608 1397 q 711 1338 682 1367 q 756 1267 743 1306 q 766 1190 769 1229 q 745 1114 763 1151 q 697 1046 728 1076 l 514 876 q 446 835 483 849 q 370 821 408 821 q 294 836 332 821 q 228 882 257 851 l 61 1049 q 15 1115 32 1078 q -6 1191 -3 1153 q 4 1267 -8 1229 q 49 1336 17 1304 q 115 1381 78 1365 q 191 1397 153 1396 q 267 1383 229 1397 q 333 1339 304 1368 l 376 1297 z "},"ź":{"ha":767,"x_min":-67,"x_max":832,"o":"m 632 783 q 708 765 671 783 q 772 719 744 747 q 815 655 799 690 q 832 583 832 619 q 772 442 832 501 q 703 371 729 397 q 663 329 678 344 q 640 306 647 314 q 625 293 632 299 q 708 273 669 290 q 774 228 746 256 q 817 165 801 200 q 832 89 832 129 q 816 14 832 51 q 772 -53 800 -24 q 706 -99 743 -82 q 628 -111 669 -115 l 136 -111 q 24 -75 71 -112 q -45 16 -24 -37 q -58 128 -67 69 q -4 231 -50 188 l 144 381 q 58 401 97 383 q -9 447 19 418 q -52 511 -37 475 q -64 589 -67 547 q -46 666 -62 631 q -1 727 -29 701 q 62 768 26 753 q 136 783 97 783 l 632 783 m 747 936 q 753 856 760 896 q 726 782 746 815 q 674 724 706 749 q 604 689 643 699 q 535 669 563 676 q 489 656 507 661 q 458 649 471 651 q 436 643 446 646 q 356 638 396 631 q 281 667 315 646 q 221 720 246 688 q 186 792 196 753 q 179 869 174 831 q 205 942 185 908 q 257 1002 225 976 q 329 1040 289 1028 l 499 1085 q 577 1090 538 1096 q 651 1064 617 1083 q 711 1012 686 1044 q 747 936 736 979 z "},"Č":{"ha":719,"x_min":-74,"x_max":797,"o":"m 593 414 q 672 398 635 414 q 736 355 708 382 q 781 290 764 328 q 797 208 797 251 q 758 78 797 136 q 659 -22 719 19 q 527 -87 599 -64 q 389 -111 456 -111 l 376 -111 q 204 -78 286 -111 q 60 14 122 -44 q -37 152 -1 72 q -74 325 -74 232 l -74 551 q -40 725 -74 643 q 53 867 -7 807 q 196 963 114 928 q 376 999 278 999 q 513 977 439 999 q 649 915 586 956 q 755 813 713 874 q 797 676 797 753 q 781 597 797 635 q 737 531 765 560 q 671 487 708 503 q 592 471 633 471 q 482 501 522 471 q 413 578 442 532 q 397 592 408 588 q 375 596 386 596 q 343 585 356 596 q 331 558 331 574 l 331 332 q 344 303 329 315 q 378 292 358 292 q 414 310 403 292 q 442 351 428 332 q 477 385 457 371 q 525 406 497 399 q 593 414 553 414 m 356 1301 q 381 1324 368 1313 q 407 1346 393 1335 q 475 1389 438 1375 q 550 1402 513 1403 q 624 1386 588 1401 q 690 1342 661 1371 q 735 1272 722 1310 q 745 1194 749 1233 q 724 1118 742 1156 q 676 1050 707 1081 l 493 881 q 425 839 463 853 q 349 825 388 825 q 274 840 311 825 q 207 886 236 856 l 40 1053 q -6 1119 11 1082 q -26 1195 -24 1157 q -17 1271 -29 1233 q 28 1340 -4 1308 q 94 1385 57 1369 q 170 1401 132 1400 q 246 1387 208 1401 q 313 1343 283 1372 l 356 1301 z "},"Ě":{"ha":678,"x_min":-62,"x_max":743,"o":"m 650 447 q 631 362 650 401 q 581 294 613 322 q 644 267 615 286 q 696 222 674 249 q 731 163 718 196 q 743 94 743 131 q 727 13 743 50 q 683 -52 711 -25 q 618 -95 656 -79 q 539 -111 581 -111 l 142 -111 q 65 -95 101 -111 q 0 -52 28 -79 q -45 13 -28 -25 q -62 94 -62 50 l -62 793 q -47 869 -62 832 q -5 935 -32 907 q 60 981 22 964 q 142 999 97 999 l 539 999 q 618 983 581 999 q 683 938 656 967 q 727 872 711 910 q 743 793 743 835 q 699 663 743 715 q 586 594 654 610 q 633 528 615 567 q 650 447 650 490 m 335 1293 q 360 1315 347 1304 q 386 1338 372 1326 q 454 1381 417 1367 q 529 1394 492 1394 q 603 1378 567 1393 q 669 1333 640 1363 q 715 1263 701 1301 q 724 1186 728 1225 q 703 1110 721 1147 q 656 1042 686 1072 l 472 872 q 404 831 442 844 q 328 817 367 817 q 253 832 290 817 q 186 878 215 847 l 19 1044 q -27 1111 -10 1074 q -47 1187 -44 1149 q -37 1263 -50 1225 q 7 1332 -25 1300 q 74 1376 36 1361 q 149 1392 111 1392 q 225 1378 188 1393 q 292 1335 263 1364 l 335 1293 z "},"ń":{"ha":756,"x_min":-71,"x_max":825,"o":"m 378 788 q 548 754 467 788 q 690 663 629 721 q 788 524 751 604 q 825 351 825 444 l 825 94 q 810 17 825 53 q 767 -47 794 -19 q 704 -90 740 -74 q 626 -107 668 -106 q 548 -92 585 -107 q 483 -51 511 -78 q 438 11 454 -25 q 422 90 422 47 l 422 340 q 409 372 422 358 q 376 385 396 385 q 347 374 360 385 q 335 347 335 363 l 335 94 q 318 17 335 54 q 274 -47 301 -19 q 209 -91 246 -75 q 132 -107 172 -107 q 55 -92 92 -107 q -10 -50 18 -76 q -54 13 -37 -24 q -71 90 -71 49 l -71 340 q -35 514 -69 432 q 60 656 0 596 q 201 752 119 717 q 378 788 282 788 m 714 929 q 719 849 726 889 q 692 775 713 808 q 641 717 672 742 q 571 682 610 692 q 501 662 529 669 q 456 649 474 654 q 425 642 438 644 q 403 636 413 639 q 322 631 363 624 q 247 660 282 639 q 188 713 213 681 q 153 785 163 746 q 146 863 140 824 q 172 935 151 901 q 224 995 192 969 q 296 1033 256 1021 l 465 1078 q 544 1083 504 1089 q 618 1057 583 1076 q 678 1005 653 1038 q 714 929 703 972 z "},"ř":{"ha":474,"x_min":-150,"x_max":628,"o":"m 126 -112 q -13 -60 42 -112 q -75 82 -68 -8 l -75 344 q -37 513 -74 435 q 58 651 -1 592 q 198 744 118 710 q 368 782 278 779 q 447 767 410 782 q 510 726 483 751 q 554 665 538 700 q 575 590 571 629 q 559 508 575 546 q 516 441 543 469 q 452 397 489 413 q 374 379 415 381 q 342 367 356 379 q 329 335 329 354 l 329 72 q 269 -61 322 -10 q 126 -112 215 -112 m 235 1083 q 260 1106 247 1094 q 286 1128 272 1117 q 354 1171 317 1157 q 429 1184 392 1185 q 503 1168 467 1183 q 569 1124 540 1153 q 615 1053 601 1092 q 624 976 628 1015 q 603 900 621 938 q 556 832 586 863 l 372 663 q 304 621 342 635 q 228 607 267 607 q 153 622 190 607 q 86 668 115 638 l -81 835 q -127 901 -110 864 q -147 977 -144 939 q -137 1053 -150 1015 q -93 1122 -125 1090 q -26 1167 -64 1151 q 49 1183 11 1182 q 125 1169 88 1183 q 192 1125 163 1154 l 235 1083 z "},"Ć":{"ha":719,"x_min":-74,"x_max":797,"o":"m 593 414 q 672 398 635 414 q 736 355 708 382 q 781 290 764 328 q 797 208 797 251 q 758 78 797 136 q 659 -22 719 19 q 527 -87 599 -64 q 389 -111 456 -111 l 376 -111 q 204 -78 286 -111 q 60 14 122 -44 q -37 152 -1 72 q -74 325 -74 232 l -74 551 q -40 725 -74 643 q 53 867 -7 807 q 196 963 114 928 q 376 999 278 999 q 513 977 439 999 q 649 915 586 956 q 755 813 713 874 q 797 676 797 753 q 781 597 797 635 q 737 531 765 560 q 671 487 708 503 q 592 471 633 471 q 482 501 522 471 q 413 578 442 532 q 397 592 408 588 q 375 596 386 596 q 343 585 356 596 q 331 558 331 574 l 331 332 q 344 303 329 315 q 378 292 358 292 q 414 310 403 292 q 442 351 428 332 q 477 385 457 371 q 525 406 497 399 q 593 414 553 414 m 751 1156 q 757 1075 764 1115 q 730 1001 750 1035 q 678 943 710 968 q 608 908 647 918 q 539 888 567 896 q 493 876 511 881 q 463 868 475 871 q 440 863 450 865 q 360 858 400 850 q 285 886 319 865 q 225 940 250 907 q 190 1011 200 972 q 183 1089 178 1050 q 209 1162 189 1128 q 261 1222 229 1196 q 333 1260 293 1247 l 503 1304 q 581 1309 542 1315 q 656 1283 621 1303 q 715 1231 690 1264 q 751 1156 740 1199 z "},"Ź":{"ha":769,"x_min":-65,"x_max":835,"o":"m 631 299 q 713 282 675 299 q 777 238 750 265 q 819 173 804 210 q 835 94 835 136 q 819 13 835 50 q 777 -52 804 -25 q 713 -95 750 -79 q 631 -111 675 -111 l 138 -111 q 57 -91 93 -108 q -6 -46 21 -74 q -47 17 -32 -18 q -61 93 -61 53 q -53 148 -61 119 q -29 204 -46 176 l 236 589 l 139 589 q 60 604 97 589 q -4 647 24 619 q -49 711 -32 674 q -65 793 -65 749 q -49 872 -65 835 q -4 938 -32 910 q 60 983 24 967 q 139 999 97 999 l 629 999 q 710 980 674 997 q 774 934 747 963 q 817 869 801 906 q 832 792 832 832 q 826 740 832 764 q 811 699 821 715 l 533 299 l 631 299 m 763 1156 q 768 1075 775 1115 q 741 1001 761 1035 q 690 943 721 968 q 619 908 658 918 q 550 888 578 896 q 504 876 522 881 q 474 868 486 871 q 451 863 461 865 q 371 858 411 850 q 296 886 331 865 q 236 940 261 907 q 201 1011 211 972 q 194 1089 189 1050 q 220 1162 200 1128 q 272 1222 240 1196 q 344 1260 304 1247 l 514 1304 q 592 1309 553 1315 q 667 1283 632 1303 q 726 1231 701 1264 q 763 1156 751 1199 z "},"Ť":{"ha":728,"x_min":-90,"x_max":818,"o":"m 613 999 q 694 983 656 999 q 759 938 732 967 q 802 872 786 910 q 818 793 818 835 q 802 711 818 749 q 759 647 786 674 q 694 604 732 619 q 613 589 656 589 l 568 589 l 568 94 q 553 13 568 50 q 510 -52 538 -25 q 446 -95 483 -79 q 364 -111 408 -111 q 282 -95 319 -111 q 217 -52 244 -79 q 175 13 190 -25 q 160 94 160 50 l 160 589 l 114 589 q 35 604 72 589 q -31 647 -3 619 q -74 711 -58 674 q -90 793 -90 749 q -74 872 -90 835 q -31 938 -58 910 q 35 983 -3 967 q 114 999 72 999 l 613 999 m 363 1296 q 388 1318 375 1307 q 414 1340 400 1329 q 482 1383 444 1369 q 557 1397 519 1397 q 631 1381 594 1396 q 697 1336 668 1365 q 742 1266 729 1304 q 752 1189 756 1228 q 731 1113 749 1150 q 683 1044 714 1075 l 500 875 q 432 833 469 847 q 356 819 394 819 q 281 835 318 819 q 214 881 243 850 l 47 1047 q 1 1114 18 1076 q -19 1190 -17 1151 q -10 1265 -22 1228 q 35 1335 3 1303 q 101 1379 64 1364 q 177 1395 139 1394 q 253 1381 215 1396 q 319 1338 290 1367 l 363 1296 z "},"ć":{"ha":664,"x_min":-79,"x_max":739,"o":"m 369 783 q 491 765 426 783 q 611 713 556 747 q 703 630 667 679 q 739 518 739 581 q 706 410 739 460 q 621 338 672 360 q 706 263 674 313 q 739 156 739 213 q 701 41 739 90 q 606 -42 663 -8 q 486 -94 550 -76 q 369 -111 422 -111 q 197 -75 278 -111 q 53 22 115 -39 q -44 165 -8 83 q -79 336 -79 246 q -43 506 -79 425 q 54 649 -7 588 q 197 747 115 710 q 369 783 279 783 m 724 936 q 729 856 736 896 q 702 782 722 815 q 651 724 682 749 q 581 689 619 699 q 511 669 539 676 q 465 656 483 661 q 435 649 447 651 q 413 643 422 646 q 332 638 372 631 q 257 667 292 646 q 197 720 222 688 q 163 792 172 753 q 156 869 150 831 q 181 942 161 908 q 233 1002 201 976 q 306 1040 265 1028 l 475 1085 q 553 1090 514 1096 q 628 1064 593 1083 q 688 1012 663 1044 q 724 936 713 979 z "},"ŕ":{"ha":474,"x_min":-75,"x_max":613,"o":"m 126 -112 q -13 -60 42 -112 q -75 82 -68 -8 l -75 344 q -37 513 -74 435 q 58 651 -1 592 q 198 744 118 710 q 368 782 278 779 q 447 767 410 782 q 510 726 483 751 q 554 665 538 700 q 575 590 571 629 q 559 508 575 546 q 516 441 543 469 q 452 397 489 413 q 374 379 415 381 q 342 367 356 379 q 329 335 329 354 l 329 72 q 269 -61 322 -10 q 126 -112 215 -112 m 600 938 q 606 857 613 897 q 578 783 599 817 q 527 725 558 750 q 457 690 496 700 q 388 670 415 678 q 342 658 360 663 q 311 650 324 653 q 289 644 299 647 q 208 640 249 632 q 133 668 168 647 q 74 722 99 689 q 39 793 49 754 q 32 871 26 832 q 58 944 38 910 q 110 1003 78 978 q 182 1042 142 1029 l 351 1086 q 430 1091 390 1097 q 504 1065 469 1085 q 564 1013 539 1046 q 600 938 589 981 z "},"Ś":{"ha":704,"x_min":-74,"x_max":778,"o":"m 757 799 q 712 661 757 717 q 592 592 667 606 q 726 457 674 542 q 778 268 778 372 q 749 122 778 190 q 668 3 719 54 q 549 -78 617 -47 q 401 -111 481 -110 l 153 -111 q 69 -95 107 -111 q 5 -52 32 -79 q -37 13 -22 -25 q -53 94 -53 50 q -41 164 -53 131 q -7 224 -29 197 q 46 269 15 250 q 113 294 76 288 q -22 428 29 343 q -74 618 -74 513 q -44 759 -74 690 q 38 881 -14 828 q 158 967 89 935 q 306 999 226 999 l 553 999 q 629 983 593 999 q 692 941 665 968 q 736 878 719 914 q 757 799 753 842 m 715 1153 q 721 1072 728 1113 q 694 999 714 1032 q 642 940 674 965 q 572 906 611 915 q 503 885 531 893 q 457 873 475 878 q 426 865 439 868 q 404 860 414 863 q 324 855 364 847 q 249 883 283 863 q 189 937 214 904 q 154 1008 164 969 q 147 1086 142 1047 q 173 1159 153 1125 q 225 1219 193 1193 q 297 1257 257 1244 l 467 1301 q 545 1306 506 1313 q 619 1281 585 1300 q 679 1228 654 1261 q 715 1153 704 1196 z "},"ą":{"ha":747,"x_min":-82,"x_max":818,"o":"m 818 336 l 818 90 q 801 12 818 49 q 756 -52 783 -25 q 691 -95 728 -79 q 617 -111 654 -111 q 518 -85 561 -111 q 445 -106 482 -100 q 371 -111 408 -111 q 239 -91 301 -111 q 124 -35 176 -71 q 29 49 71 0 q -39 157 -12 99 q -77 304 -72 229 q -62 449 -82 379 q -3 579 -43 518 q 94 685 38 640 q 222 757 151 731 q 371 783 292 783 q 548 746 467 783 q 689 646 629 708 q 783 503 749 583 q 818 336 817 422 m 343 -429 q 246 -410 292 -429 q 166 -356 200 -390 q 112 -276 132 -321 q 92 -178 92 -231 q 105 -97 92 -136 q 142 -26 118 -58 q 178 13 157 -6 q 225 46 200 32 l 225 75 q 237 125 225 99 q 269 174 249 151 q 319 212 290 197 q 383 226 349 226 q 447 212 418 226 q 496 174 475 197 q 528 125 517 151 q 540 75 540 99 l 540 -57 q 578 -105 564 -76 q 596 -169 593 -133 q 578 -266 596 -219 q 526 -349 560 -312 q 447 -408 493 -386 q 343 -429 400 -429 z "},"Š":{"ha":704,"x_min":-74,"x_max":778,"o":"m 757 799 q 712 661 757 717 q 592 592 667 606 q 726 457 674 542 q 778 268 778 372 q 749 122 778 190 q 668 3 719 54 q 549 -78 617 -47 q 401 -111 481 -110 l 153 -111 q 69 -95 107 -111 q 5 -52 32 -79 q -37 13 -22 -25 q -53 94 -53 50 q -41 164 -53 131 q -7 224 -29 197 q 46 269 15 250 q 113 294 76 288 q -22 428 29 343 q -74 618 -74 513 q -44 759 -74 690 q 38 881 -14 828 q 158 967 89 935 q 306 999 226 999 l 553 999 q 629 983 593 999 q 692 941 665 968 q 736 878 719 914 q 757 799 753 842 m 347 1338 q 372 1360 360 1349 q 399 1382 385 1371 q 467 1425 429 1411 q 542 1438 504 1439 q 616 1422 579 1438 q 682 1378 653 1407 q 727 1308 714 1346 q 737 1231 740 1269 q 716 1154 733 1192 q 668 1086 699 1117 l 485 917 q 417 875 454 889 q 341 861 379 861 q 265 876 303 861 q 199 922 228 892 l 32 1089 q -15 1156 3 1118 q -35 1231 -32 1193 q -25 1307 -37 1269 q 19 1376 -12 1344 q 86 1421 49 1406 q 162 1437 124 1436 q 238 1423 200 1438 q 304 1379 275 1408 l 347 1338 z "},"š":{"ha":653,"x_min":-71,"x_max":726,"o":"m 494 786 q 573 769 536 786 q 636 723 610 751 q 678 658 663 694 q 693 586 693 622 q 675 505 693 543 q 626 439 657 467 q 699 334 674 393 q 725 214 725 275 q 701 83 726 143 q 631 -19 676 24 q 525 -87 586 -62 q 396 -111 464 -111 l 140 -111 q 63 -96 99 -111 q -1 -54 26 -81 q -44 9 -28 -28 q -60 88 -60 46 q -40 173 -60 132 q 15 243 -19 214 q -47 345 -22 288 q -71 461 -71 403 q -47 583 -71 525 q 20 685 -22 642 q 120 756 63 729 q 244 786 178 783 l 494 786 m 322 1124 q 347 1146 335 1135 q 374 1168 360 1157 q 442 1211 404 1197 q 517 1224 479 1225 q 591 1208 554 1224 q 657 1164 628 1193 q 702 1094 689 1132 q 712 1017 715 1056 q 691 940 708 978 q 643 872 674 903 l 460 703 q 392 661 429 675 q 316 647 354 647 q 240 663 278 647 q 174 708 203 678 l 7 875 q -40 942 -22 904 q -60 1017 -57 979 q -50 1093 -62 1056 q -6 1163 -37 1131 q 61 1207 24 1192 q 137 1223 99 1222 q 213 1209 175 1224 q 279 1165 250 1194 l 322 1124 z "}}}
